<?xml version="1.0" encoding="UTF-8"?>
<svg width="37px" height="37px" viewBox="0 0 37 37" version="1.1" xmlns="http://www.w3.org/2000/svg" xmlns:xlink="http://www.w3.org/1999/xlink">
    <!-- Generator: Sketch 43.1 (39012) - http://www.bohemiancoding.com/sketch -->
    <title>author 05</title>
    <desc>Created with Sketch.</desc>
    <defs></defs>
    <g id="Symbols" stroke="none" stroke-width="1" fill="none" fill-rule="evenodd">
        <g id="icon-/-author-05" transform="translate(0.000000, 1.000000)">
            <g id="author-05" transform="translate(0.000000, -1.000000)">
                <ellipse id="Oval-Copy" fill="#FF2B2B" cx="18.2" cy="18.3130435" rx="18.2" ry="18.3130435"></ellipse>
                <path d="M8.74944648,24.6521739 C13.918451,24.6521739 16.3477693,15.4956522 12.9406442,15.4956522 C11.660448,15.4956522 5.72509221,15.4956522 4.55824874,15.4956522 C3.39140527,15.4956522 5.07702819,24.6521739 8.74944648,24.6521739 Z" id="Oval-2-Copy-3" stroke="#FFFFFF" stroke-width="2.1"></path>
                <path d="M26.2494465,24.6521739 C31.418451,24.6521739 33.8477693,15.4956522 30.4406442,15.4956522 C29.160448,15.4956522 23.2250922,15.4956522 22.0582487,15.4956522 C20.8914053,15.4956522 22.5770282,24.6521739 26.2494465,24.6521739 Z" id="Oval-2-Copy-4" stroke="#FFFFFF" stroke-width="2.1" transform="translate(26.856255, 20.073913) scale(-1, 1) translate(-26.856255, -20.073913) "></path>
                <path d="M14,15.4956522 L23.1,15.4956522" id="Path-5" stroke="#FFFFFF" stroke-width="1.4"></path>
                <path d="M21.7,20.426087 C21.7,18.8700847 20.1329966,17.6086957 18.2,17.6086957 C16.2670034,17.6086957 14.7,18.8700847 14.7,20.426087" id="Oval-3" stroke="#FFFFFF" stroke-width="2.1"></path>
            </g>
        </g>
    </g>
</svg>