<svg xmlns="http://www.w3.org/2000/svg" width="37" height="37" viewBox="0 0 37 37">
    <g fill="none" fill-rule="evenodd">
        <ellipse cx="18.2" cy="18.313" fill="#CFEAEC" rx="18.2" ry="18.313"/>
        <path stroke="#1DB598" stroke-width="2.1" d="M10.036 24.102c2.556 0 4.628-2.085 4.628-4.657s-2.072-4.657-4.628-4.657c-1.283 0-5.025-.228-5.863.62-.838.849 1.234 2.755 1.234 4.037 0 2.572 2.073 4.657 4.629 4.657zM26.102 24.102c-2.556 0-4.628-2.085-4.628-4.657s2.072-4.657 4.628-4.657c1.283 0 5.024-.228 5.862.62.839.849-1.234 2.755-1.234 4.037 0 2.572-2.072 4.657-4.628 4.657z"/>
        <path stroke="#1DB598" stroke-width="1.4" d="M21 19.017c0-.778-1.254-1.408-2.8-1.408-1.546 0-2.8.63-2.8 1.408"/>
    </g>
</svg>
