<svg xmlns="http://www.w3.org/2000/svg" xmlns:xlink="http://www.w3.org/1999/xlink" width="245" height="301" viewBox="0 0 245 301">
    <defs>
        <path id="a" d="M134.317 289.2c42.133 0 79.736-21.318 104.362-54.674.709-.96 15.476-26.188 15.83-26.964C263.547 187.711 262 65.567 262 60 262-12 0-26.691 0 60v81.6c0 81.517 60.136 147.6 134.317 147.6z"/>
    </defs>
    <g fill="none" fill-rule="evenodd" transform="translate(-10 -25)">
        <g transform="translate(10 44)">
            <ellipse cx="122.782" cy="122.2" fill="#29C7A9" rx="121.967" ry="121.8"/>
            <circle cx="164.5" cy="107.5" r="66.5" fill="#026B57"/>
            <circle cx="76" cy="95" r="71" fill="#097F68"/>
        </g>
        <mask id="b" fill="#fff">
            <use xlink:href="#a"/>
        </mask>
        <g fill="#5D4734" mask="url(#b)">
            <path d="M18.553 138.219l3.89-.827 43.824 206.172-3.891.827z"/>
            <path d="M70.21 154.628l-6.864-1.21-36.601 207.576 6.863 1.21z"/>
            <path d="M43.606 152.436l-7.946.556 14.703 210.264 7.946-.555zM187.049 108.456l9.809-1.73 36.6 207.576-9.808 1.73z"/>
            <path d="M203.352 93.043l5.843 1.242-43.823 206.172-5.843-1.242zM237.343 138.012l4.903.864-36.601 207.576-4.903-.864z"/>
        </g>
        <g mask="url(#b)">
            <g transform="translate(11 85)">
                <circle cx="197" cy="44" r="27" fill="#129A80"/>
                <circle cx="19.5" cy="65.5" r="19.5" fill="#129A80"/>
                <circle cx="83" cy="27" r="27" fill="#129A80"/>
                <circle cx="70" cy="72" r="27" fill="#129A80"/>
                <circle cx="200.5" cy="52.5" r="40.5" fill="#097F68"/>
                <circle cx="196.5" cy="82.5" r="23.5" fill="#129A80"/>
                <circle cx="228.5" cy="74.5" r="12.5" fill="#129A80"/>
            </g>
        </g>
        <g mask="url(#b)">
            <path fill="#FFF" d="M40.92 215.625c3.429-27.622 28.781-50.015 56.608-50.015h68.04c27.834 0 53.162 22.405 56.567 50.025l2.198 17.827h-15.94l3.325 58.274c2.347 39.72-28.005 71.92-67.798 71.92h-24.745c-39.79 0-72.047-32.258-72.047-72.04v-59.312H38.85l2.07-16.679z"/>
            <g fill="#2A4871">
                <path d="M39.664 224.163h34.972v4h-36zM223.607 224.163h-34.971v4h36zM40.665 218.163h33.97v4h-35zM222.606 218.163h-33.97v4h35z"/>
            </g>
            <path fill="#CFEAEC" d="M190.525 232.127h33.742l-4.69 66.059-16.527-6z"/>
            <path fill="#B1DBDE" d="M190.525 232.127h34.015l-1 10.29h-31.015z" opacity=".4" style="mix-blend-mode:multiply"/>
            <path fill="#CFEAEC" d="M74.543 232.127H39.777l4.095 66.059h28.362z"/>
            <path fill="#B1DBDE" d="M40.011 232.127h34.532v4.29H40.971z" opacity=".4" style="mix-blend-mode:multiply"/>
            <path fill="#CFEAEC" d="M157.397 164.214c0 1.554-1.397 3.786-3.166 7.337C152.175 175.679 134.7 210 131 210c-3.7 0-22.731-35.451-26.278-38.806-3.377-3.194-2.377-5.568-2.377-6.98 0-1.515-3.394-7.302 5.272-7.765 3.204-.171 6.51-6.422 10.034-6.45 3.524-.026 28.494 6.037 33.753 6.45 6.737.528 5.993 6.48 5.993 7.765z"/>
            <path fill="#B1DBDE" d="M78.537 171.457c7.786-4.116 16.663-6.447 26.086-6.447h56.051c9.421 0 18.298 2.33 26.085 6.447H78.537z" opacity=".4" style="mix-blend-mode:multiply"/>
            <g>
                <path fill="#CFEAEC" d="M41.047 110.157c0-17.118 13.879-30.994 31-30.994h137.005c6.073 0 10.995 4.92 10.995 11v63.007c0 7.728-6.265 13.993-14.008 13.993H55.056c-7.737 0-14.009-6.259-14.009-13.993v-43.013z"/>
                <path stroke="#102445" stroke-linecap="round" stroke-linejoin="round" stroke-width="5" d="M125.679 141.754c0 3.01 2.5 5.449 5.587 5.449 3.085 0 5.586-2.44 5.586-5.45 0-.04-.011-.08-.012-.12"/>
                <g fill="#CFEAEC">
                    <path d="M48.549 99.67H36.688c-1.84 0-3.344 1.524-3.344 3.386v16.685c0 1.862 1.505 3.385 3.344 3.385h11.86c1.84 0 3.344-1.523 3.344-3.385v-16.685c0-1.862-1.505-3.385-3.343-3.385M226.402 99.67H214.54c-1.838 0-3.343 1.524-3.343 3.386v16.685c0 1.862 1.505 3.385 3.343 3.385h11.862c1.839 0 3.343-1.523 3.343-3.385v-16.685c0-1.862-1.504-3.385-3.343-3.385"/>
                </g>
                <g transform="translate(116 114)">
                    <rect width="28" height="11" x=".953" y=".837" fill="#102445" rx="5"/>
                    <circle cx="9.953" cy="6.837" r="2" fill="#203962"/>
                    <circle cx="20.953" cy="6.837" r="2" fill="#203962"/>
                </g>
                <g fill="#102445" stroke="#102445" stroke-linecap="round" stroke-linejoin="round" stroke-width="3.424">
                    <path d="M59.83 118.619c0-.051-.014-.099-.014-.15 0-3.715 2.973-6.727 6.642-6.727 3.67 0 6.644 3.012 6.644 6.728 0 .05-.014.098-.015.149H59.83zM190.196 118.619c0-.051-.014-.099-.014-.15 0-3.715 2.974-6.727 6.643-6.727 3.67 0 6.644 3.012 6.644 6.728 0 .05-.015.098-.016.149h-13.257z"/>
                </g>
                <g fill="#B1DBDE">
                    <path d="M50.76 149.075c-3.766 0-6.846-1.823-6.846-4.052v-3.896c0-2.228 2.221-4.052 5.988-4.052l15.307 5.002 14.619-5.002c3.767 0 6.846 1.824 6.846 4.052v3.896c0 2.229-3.08 4.052-6.846 4.052H50.76zM182.007 149.075c-3.766 0-6.847-1.823-6.847-4.052v-3.896c0-2.228 2.222-4.052 5.988-4.052 0 0 11.032 5.002 16.465 5.002 4.256 0 14.32-5.002 14.32-5.002 3.767 0 5.989 1.824 5.989 4.052v3.896c0 2.229-3.081 4.052-6.848 4.052h-29.067z"/>
                </g>
                <path fill="#2A4871" d="M99.747 95.992c-17.33 9.655 68.095 6.13 99.82 9.655 31.727 3.526 28.705-3.352 28.705-7.05 0-7.397-.687-26.51-12.768-36.246-12.39-9.986-36.766-15.951-84.676-15.951-49.202 0-73.991 6.171-86.453 16.914-11.504 9.918-12.503 29.5-12.503 38.808 0 16.696 75.096-12.505 79.428-19.017 4.333-6.512-7.143 10.43-11.553 12.887z"/>
                <g stroke="#FF2B2B" stroke-linecap="round" stroke-width="10">
                    <path d="M40.999 115.441c0-13.708 10.946-23.818 24.45-23.818 13.502 0 24.448 10.11 24.448 23.818 0 13.707-10.946 24.818-24.448 24.818-13.504 0-24.45-11.111-24.45-24.818zm132 0c0-13.708 10.946-23.818 24.45-23.818 13.502 0 24.448 10.11 24.448 23.818 0 13.707-10.946 24.818-24.448 24.818-13.504 0-24.45-11.111-24.45-24.818zM172.536 112.529c-22.573-26.466-59.105-26.466-81.68 0"/>
                </g>
                <g transform="translate(94 25)">
                    <path fill="#102445" d="M37.113 42.924c17.935 0 32.475 11.86 32.475-6.243S55.048 3.902 37.113 3.902C19.178 3.902 4.64 18.578 4.64 36.681s14.54 6.243 32.474 6.243z"/>
                    <path fill="#FF2B2B" stroke="#FF2B2B" stroke-width="3.848" d="M15.557 35.12v-2.35c0-8.625 6.006-19.194 13.409-23.602l8.842-5.266L44.6 7.817c7.468 4.303 13.523 14.79 13.523 23.41v2.349"/>
                    <path fill="#1A355B" d="M36.732 47.989c18.63 0 33.732 17.732 33.732 2.934 0-14.799-15.102-19.608-33.732-19.608S3 36.182 3 50.923c0 14.74 15.102-2.934 33.732-2.934z" opacity=".8"/>
                    <path fill="#102445" d="M37.232 43.989c20.563 0 37.232 17.732 37.232 2.934 0-14.799-16.67-19.608-37.232-19.608C16.669 27.315 0 32.182 0 46.923c0 14.74 16.67-2.934 37.232-2.934z"/>
                    <ellipse cx="37.113" cy="3.122" fill="#FF2B2B" rx="3.093" ry="3.122"/>
                </g>
            </g>
        </g>
        <g transform="rotate(-8 1791.046 -483.596)">
            <path fill="#CFEAEC" d="M139.241 9.916s.218 27.282.384 30.761c.858 17.885-3.527 25.101-40.885 34.677-36.5 9.355-71.574 10.177-71.574 10.177-6.612.34-12.01-4.748-12.054-11.386l-.004-.576c-.045-6.627 5.276-12.386 11.876-12.9 0 0 19.606-1.222 41.834-4.346s36.14-10.863 36.14-10.863c3.588-1.71 5.92-6.27 5.21-10.174l-2.206-12.151-1.563-17.789 32.842 4.57z"/>
            <rect width="4.807" height="25.2" x="10.795" y="65.161" fill="#3C5F8D" rx="2.403" transform="rotate(90 13.199 77.761)"/>
            <rect width="4.807" height="25" x="11.143" y="59.163" fill="#3C5F8D" rx="2.403" transform="rotate(90 13.546 71.663)"/>
        </g>
    </g>
</svg>
