<svg xmlns="http://www.w3.org/2000/svg" xmlns:xlink="http://www.w3.org/1999/xlink" width="239" height="203" viewBox="0 0 239 203">
    <defs>
        <path id="a" d="M121 242c37.956 0 71.83-17.476 94.015-44.821.638-.787 35.366 11.624 35.985 10.821a121.108 121.108 0 0 0 11.402-17.82c.33-.63-33.446-14.469-33.128-15.105C237.418 158.8 242 140.435 242 121 242 54.174 187.826 0 121 0S0 54.174 0 121s54.174 121 121 121z"/>
    </defs>
    <g fill="none" fill-rule="evenodd" transform="translate(-17 -41)">
        <circle cx="118.5" cy="142.5" r="101.5" fill="#F8FAFB"/>
        <mask id="b" fill="#fff">
            <use xlink:href="#a"/>
        </mask>
        <g mask="url(#b)">
            <path fill="#3C5F8D" d="M41.584 192.29c3.113-33.017 32.519-59.781 65.681-59.781h20.415c33.163 0 62.592 26.767 65.731 59.781l1.277 13.428h-13.265l2.191 31.924c2.271 33.085-22.771 59.905-55.934 59.905h-20.415c-33.162 0-60.045-26.877-60.045-60.039v-31.92h-6.89l1.254-13.298z"/>
            <path fill="#CFEAEC" d="M169.553 205.44h24.08l-3.347 55.048h-19.644z"/>
            <path fill="#B1DBDE" d="M169.553 205.44h24.308l-.715 3.574h-23.593z" opacity=".4" style="mix-blend-mode:multiply"/>
            <path fill="#CFEAEC" d="M68.034 205.44H42.102l3.055 55.048h21.155z"/>
            <path fill="#B1DBDE" d="M42.297 205.44h25.737v3.574H43.012z" opacity=".4" style="mix-blend-mode:multiply"/>
            <path fill="#CFEAEC" stroke="#294162" stroke-width="8" d="M147.805 135.802c0 6.205-15.234 24.287-31.44 24.287-16.206 0-33.06-18.082-33.06-24.287"/>
            <path fill="#B1DBDE" d="M77.521 140.381c8.769-5.01 18.922-7.872 29.744-7.872h20.415c10.823 0 20.978 2.862 29.747 7.872H77.521z" opacity=".4" style="mix-blend-mode:multiply"/>
        </g>
        <g mask="url(#b)">
            <g transform="translate(185 157)">
                <path fill="#FB2E2C" d="M18.5 2.5l52 37H8z"/>
                <rect width="6" height="68" x="8.98" y=".203" fill="#D8D8D8" rx="2" transform="rotate(15 11.98 34.203)"/>
                <rect width="4" height="12" x="14.295" y="7.268" fill="#FB2E2C" rx="1" transform="rotate(-66 16.295 13.268)"/>
                <rect width="4" height="12" x="8.199" y="25.716" fill="#FB2E2C" rx="1" transform="rotate(-83 10.199 31.716)"/>
                <path fill="#FFF" fill-rule="nonzero" d="M38.934 24.118c-.696-1.3-1.667-2.117-2.912-2.45-1.246-.335-2.448-.167-3.608.501l.32-1.191-2.982-.8L26 34.182l2.982.8 1.267-4.729c.514 1.26 1.424 2.063 2.73 2.413 1.305.35 2.587.126 3.845-.672 1.258-.799 2.097-1.985 2.52-3.561.422-1.575.285-3.013-.41-4.314m-3.95 5.477c-.664.41-1.34.524-2.03.34-.689-.185-1.202-.617-1.538-1.296-.337-.68-.388-1.453-.156-2.32.232-.867.667-1.524 1.305-1.97.638-.446 1.309-.575 2.011-.387.702.188 1.227.64 1.575 1.358.347.718.406 1.507.175 2.368-.23.86-.678 1.496-1.342 1.907"/>
            </g>
        </g>
        <g fill="#102445" fill-rule="nonzero" mask="url(#b)">
            <path d="M130.123 192.015c0 .7-.434 1.268-.97 1.268-.534 0-.969-.567-.969-1.268 0-.7.434-1.268.97-1.268.535 0 .97.568.97 1.268M127.43 218.562c-9.965 0-18.043-8.07-18.043-18.027 0-7.4 4.465-13.759 10.849-16.535-10.676.31-19.236 9.054-19.236 19.795 0 10.938 8.875 19.805 19.823 19.805 6.205 0 11.743-2.85 15.378-7.309a17.976 17.976 0 0 1-8.77 2.27"/>
            <path d="M130.499 207.036c-6.464 2.944-14.094.095-17.04-6.363-2.191-4.801-1.177-10.244 2.143-13.932-6.834 3.356-9.799 11.556-6.62 18.525 3.238 7.095 11.62 10.225 18.722 6.99a14.093 14.093 0 0 0 7.812-9.284 12.802 12.802 0 0 1-5.017 4.064"/>
            <path d="M123.785 189.103a7.957 7.957 0 0 0-3.048.744 8.33 8.33 0 0 0-2.641 1.961 8.73 8.73 0 0 0-1.753 2.963 9.119 9.119 0 0 0-.486 3.562 9.51 9.51 0 0 1-.287-3.738 9.91 9.91 0 0 1 1.233-3.703 10.312 10.312 0 0 1 2.669-3.056 10.746 10.746 0 0 1 3.782-1.856l.055-.015a1.596 1.596 0 1 1 .477 3.138M125.849 192.386c.197.277.451.52.753.707.3.188.648.319 1.016.377.367.058.755.044 1.133-.048a3 3 0 0 0 1.071-.506 3.138 3.138 0 0 1-.981.75c-.38.186-.806.3-1.245.325a3.404 3.404 0 0 1-1.323-.188 3.537 3.537 0 0 1-1.191-.71l-.014-.012a.525.525 0 1 1 .78-.695"/>
        </g>
        <g mask="url(#b)">
            <g fill="#CFEBEC">
                <path d="M40.822 94.67H30.82c-1.551 0-2.82 1.23-2.82 2.734v13.47c0 1.504 1.269 2.734 2.82 2.734h10.002c1.55 0 2.82-1.23 2.82-2.733v-13.47c0-1.504-1.27-2.734-2.82-2.734M206.18 94.67h-10.002c-1.55 0-2.82 1.23-2.82 2.734v13.47c0 1.504 1.27 2.734 2.82 2.734h10.002c1.55 0 2.82-1.23 2.82-2.733v-13.47c0-1.504-1.27-2.734-2.82-2.734"/>
                <path d="M187.729 137H47.036c-4.94 0-8.98-4.077-8.98-9.063V69.201c0-4.983 4.04-9.062 8.98-9.062H187.73c4.94 0 8.98 4.079 8.98 9.062v58.736c0 4.986-4.04 9.063-8.98 9.063"/>
            </g>
            <g transform="translate(105.425 87.786)">
                <rect width="22.618" height="12.41" x=".11" y=".073" fill="#102445" rx="6.205"/>
                <ellipse cx="4.711" cy="5.992" fill="#203962" rx="2.3" ry="2.256"/>
                <ellipse cx="17.363" cy="5.992" fill="#203962" rx="2.3" ry="2.256"/>
            </g>
            <g fill="#B1DBDE">
                <path d="M67.503 120.291H45.478c-2.854 0-5.188-2.37-5.188-5.266v-5.063c0-2.896 2.334-5.266 5.188-5.266h22.025c2.855 0 5.188 2.37 5.188 5.266v5.063c0 2.897-2.333 5.266-5.188 5.266M190.404 120.291h-22.025c-2.853 0-5.188-2.37-5.188-5.266v-5.063c0-2.896 2.335-5.266 5.188-5.266h22.025c2.854 0 5.189 2.37 5.189 5.266v5.063c0 2.897-2.335 5.266-5.19 5.266"/>
            </g>
            <g fill="#CFEBEC">
                <path d="M113.049 53.456h-2.505c-1.154 0-2.1 1.007-2.1 2.236v5.553c0 1.23.946 2.236 2.1 2.236h2.505c1.154 0 2.1-1.006 2.1-2.236v-5.553c0-1.23-.946-2.236-2.1-2.236"/>
                <path d="M119.622 49h-2.244c-1.226 0-2.23 1.034-2.23 2.299v9.883c0 1.265 1.004 2.299 2.23 2.299h2.244c1.226 0 2.23-1.034 2.23-2.299V51.3c0-1.265-1.004-2.299-2.23-2.299M126.606 55.684H123.8c-1.072 0-1.948.923-1.948 2.051v3.695c0 1.129.876 2.051 1.948 2.051h2.806c1.072 0 1.95-.922 1.95-2.05v-3.696c0-1.128-.878-2.051-1.95-2.051"/>
            </g>
            <path fill="#FFF" d="M36.938 94.67c0-10.459 8.254-18.936 18.436-18.936 10.181 0 18.435 8.477 18.435 18.937 0 10.459-8.254 18.937-18.435 18.937-10.182 0-18.436-8.478-18.436-18.937M162.074 94.67c0-10.459 8.255-18.936 18.436-18.936 10.182 0 18.434 8.477 18.434 18.937 0 10.459-8.252 18.937-18.434 18.937-10.181 0-18.436-8.478-18.436-18.937" opacity=".7"/>
            <path stroke="#FB2E2C" stroke-linecap="round" stroke-width="7" d="M160.957 93.557c-24.084-23.764-63.062-23.764-87.148 0M36.938 94.67c0-10.459 8.254-18.936 18.436-18.936 10.181 0 18.435 8.477 18.435 18.937 0 10.459-8.254 18.937-18.435 18.937-10.182 0-18.436-8.478-18.436-18.937zM162.074 94.67c0-10.459 8.255-18.936 18.436-18.936s18.434 8.477 18.434 18.937c0 10.459-8.253 18.937-18.434 18.937-10.181 0-18.436-8.478-18.436-18.937z"/>
            <g fill="#102445" stroke="#102445" stroke-linecap="round" stroke-linejoin="round" stroke-width="5">
                <path d="M50.24 96.67c0 .042-.012.08-.012.122 0 3.009 2.501 5.449 5.586 5.449 3.087 0 5.587-2.44 5.587-5.45 0-.04-.011-.079-.012-.12H50.24zM175.376 96.67c0 .042-.012.08-.012.122 0 3.009 2.501 5.449 5.586 5.449 3.086 0 5.587-2.44 5.587-5.45 0-.04-.013-.079-.014-.12h-11.147z"/>
            </g>
            <path stroke="#102445" stroke-linecap="round" stroke-linejoin="round" stroke-width="5" d="M110.679 115.754c0 3.01 2.5 5.449 5.587 5.449 3.085 0 5.586-2.44 5.586-5.45 0-.04-.011-.08-.012-.12"/>
        </g>
    </g>
</svg>
