<svg id="Layer_1" data-name="Layer 1" xmlns="http://www.w3.org/2000/svg" viewBox="0 0 476 493"><defs><style>.cls-1,.cls-2,.cls-3,.cls-4,.cls-5,.cls-6{fill:none;}.cls-1,.cls-3,.cls-4{stroke:#102445;}.cls-1,.cls-2{stroke-width:12.28px;}.cls-2{stroke:#122547;}.cls-3{stroke-width:12.2px;}.cls-4{stroke-width:12.36px;}.cls-5{stroke:#1db598;stroke-width:10.8px;}.cls-6{stroke:#fbfcfd;stroke-width:9.28px;}</style></defs><title>concepts</title><path id="Path-9-Copy-11" class="cls-1" d="M212.56,292l-18,73.61"/><path id="Path-9-Copy-6" class="cls-1" d="M233.23,98.64l-62.1,7.51"/><path id="Path-9-Copy-7" class="cls-1" d="M126.17,190.66l12.74-57.42"/><path id="Path-9-Copy-8" class="cls-1" d="M193,263l-54-38"/><path id="Path-9-Copy-9" class="cls-1" d="M292.31,178.37l-23.28-56"/><path id="Path-9-Copy-13" class="cls-1" d="M268.33,178.22,251,138.39"/><path id="Path-9-Copy-23" class="cls-1" d="M182.73,124.68l43-5.86"/><path id="Path-9-Copy-22" class="cls-1" d="M147,184.76l10.08-43.56"/><path id="Path-9-Copy-10" class="cls-1" d="M233,255.91l46.11-38.69"/><path id="Path-9-Copy-20" class="cls-1" d="M415.22,206.32l23.48,49.11"/><path id="Path-9-Copy-19" class="cls-1" d="M434.21,287.44,386,333"/><path id="Path-9-Copy-18" class="cls-1" d="M323.2,196.15l49.85-6.72"/><path id="Path-9-Copy-16" class="cls-1" d="M47.56,208.16,96.89,213"/><path id="Path-9-Copy-14" class="cls-1" d="M169.36,370.61l-65,6.34"/><path id="Path-9-Copy-15" class="cls-1" d="M173.52,392.82l-65,6.34"/><path id="Path-9-Copy-12" class="cls-1" d="M200,456.88l-7.16-54"/><ellipse id="data-circle-copy-6" class="cls-2" cx="147.58" cy="107.97" rx="22.69" ry="22.66" transform="translate(-34.88 120.12) rotate(-40)"/><ellipse id="data-circle-copy-9" class="cls-2" cx="122.65" cy="213.52" rx="22.69" ry="22.66" transform="translate(-108.56 128.8) rotate(-40)"/><ellipse id="data-circle-copy-10" class="cls-2" cx="258.42" cy="99.6" rx="22.69" ry="22.66" transform="translate(-3.56 189.41) rotate(-40)"/><ellipse id="data-circle-copy-11" class="cls-2" cx="300.35" cy="201.6" rx="22.69" ry="22.66" transform="translate(-59.32 240.23) rotate(-40)"/><ellipse id="data-circle-copy-17" class="cls-2" cx="366.73" cy="347.97" rx="22.69" ry="22.66" transform="translate(-137.87 317.14) rotate(-40)"/><ellipse id="data-circle-copy-19" class="cls-2" cx="446.5" cy="274.9" rx="22.69" ry="22.66" transform="translate(-72.24 351.32) rotate(-40)"/><ellipse id="data-circle-copy-18" class="cls-2" cx="399.22" cy="186.11" rx="22.69" ry="22.66" transform="translate(-26.23 300.16) rotate(-40)"/><ellipse id="data-circle-copy-12" class="cls-3" cx="216.26" cy="273.06" rx="22.73" ry="22.7" transform="translate(-124.92 202.9) rotate(-40)"/><ellipse id="data-circle-copy-14" class="cls-4" cx="86.06" cy="389.84" rx="22.65" ry="22.62" transform="translate(-66.39 20.87) rotate(-10)"/><ellipse id="data-circle-copy-15" class="cls-5" cx="202.36" cy="474.28" rx="13.14" ry="13.12" transform="translate(-79.28 42.34) rotate(-10)"/><ellipse id="data-circle-copy-13" class="cls-6" cx="190.54" cy="381.74" rx="23.55" ry="23.97" transform="matrix(0.98, -0.17, 0.17, 0.98, -63.39, 38.89)"/><path id="Path-9-Copy-21" class="cls-1" d="M304,35,263.63,77"/><path id="Path-9-Copy-17" class="cls-1" d="M320,51,281.1,91.29"/><ellipse id="data-circle-copy-20" class="cls-6" cx="325.27" cy="29.34" rx="23.55" ry="23.97" transform="translate(93.72 259.65) rotate(-50)"/><ellipse id="data-circle-copy-14-2" data-name="data-circle-copy-14" class="cls-4" cx="30.06" cy="203.84" rx="22.65" ry="22.62" transform="translate(-34.94 8.32) rotate(-10)"/></svg>