<svg id="Layer_1" data-name="Layer 1" xmlns="http://www.w3.org/2000/svg" viewBox="0 0 388 493"><defs><style>.cls-1,.cls-2,.cls-3,.cls-4,.cls-5,.cls-6{fill:none;}.cls-1,.cls-3,.cls-4{stroke:#102445;}.cls-1,.cls-2{stroke-width:12.28px;}.cls-2{stroke:#122547;}.cls-3{stroke-width:12.2px;}.cls-4{stroke-width:12.36px;}.cls-5{stroke:#1db598;stroke-width:10.8px;}.cls-6{stroke:#fbfcfd;stroke-width:9.28px;}</style></defs><title>concepts</title><path class="cls-1" d="M124.56,292l-18,73.61m38.64-267-62.1,7.51m-45,84.5,12.74-57.42M105,263,51,225m153.31-46.63-23.28-56m-.71,55.84L163,138.39M94.73,124.68l43-5.86M59,184.76,69.06,141.2M145,255.91l46.11-38.69m136.14-10.91,23.48,49.11m-4.48,32L298,333M235.2,196.15l49.86-6.72m-325.5,18.74L8.89,213M81.36,370.61l-65,6.34m69.14,15.87-65,6.34M112,456.88l-7.16-54"/><ellipse class="cls-2" cx="59.58" cy="107.97" rx="22.69" ry="22.66" transform="translate(-55.46 63.56) rotate(-40)"/><ellipse class="cls-2" cx="34.65" cy="213.52" rx="22.69" ry="22.66" transform="translate(-129.14 72.23) rotate(-40)"/><ellipse class="cls-2" cx="170.42" cy="99.6" rx="22.69" ry="22.66" transform="translate(-24.15 132.85) rotate(-40)"/><ellipse class="cls-2" cx="212.35" cy="201.6" rx="22.69" ry="22.66" transform="translate(-79.9 183.66) rotate(-40)"/><ellipse class="cls-2" cx="278.73" cy="347.97" rx="22.69" ry="22.66" transform="translate(-158.46 260.58) rotate(-40)"/><ellipse class="cls-2" cx="358.5" cy="274.9" rx="22.69" ry="22.66" transform="translate(-92.83 294.76) rotate(-40)"/><ellipse class="cls-2" cx="311.23" cy="186.11" rx="22.69" ry="22.66" transform="translate(-46.81 243.59) rotate(-40)"/><ellipse class="cls-3" cx="128.26" cy="273.06" rx="22.73" ry="22.7" transform="translate(-145.51 146.33) rotate(-40)"/><ellipse class="cls-4" cx="-1.94" cy="389.84" rx="22.65" ry="22.62" transform="translate(-67.73 5.59) rotate(-10)"/><ellipse class="cls-5" cx="114.36" cy="474.28" rx="13.14" ry="13.12" transform="translate(-80.62 27.06) rotate(-10)"/><ellipse class="cls-6" cx="102.55" cy="381.74" rx="23.55" ry="23.97" transform="translate(-64.73 23.61) rotate(-10)"/><path class="cls-1" d="M216,35,175.63,77M232,51,193.1,91.29"/><ellipse class="cls-6" cx="237.27" cy="29.34" rx="23.55" ry="23.97" transform="translate(62.28 192.24) rotate(-50)"/></svg>