<svg xmlns="http://www.w3.org/2000/svg" xmlns:xlink="http://www.w3.org/1999/xlink" width="210" height="220" viewBox="0 0 210 220">
    <defs>
        <path id="a" d="M121 245c37.956 0 71.83-17.476 94.015-44.821.638-.787 13.941-24.468 14.26-25.104C237.417 158.8 242 140.435 242 121 242 54.174 187.826 0 121 0S0 54.174 0 121s54.174 124 121 124z"/>
        <rect id="c" width="35" height="42" x="9" y="3" rx="4"/>
        <ellipse id="d" cx="26.4" cy="5" rx="17.4" ry="5"/>
        <rect id="e" width="11.306" height="23" x=".118" y="14.06" rx="3"/>
    </defs>
    <g fill="none" fill-rule="evenodd" transform="translate(-14 -41)">
        <circle cx="118.5" cy="142.5" r="101.5" fill="#F8FAFB"/>
        <mask id="b" fill="#fff">
            <use xlink:href="#a"/>
        </mask>
        <g mask="url(#b)">
            <path fill="#345B9B" d="M29.306 213.241c3.403-39.648 38.422-71.79 78.213-71.79h24.246c39.793 0 74.473 32.17 77.46 71.837l1.933 25.687h-14.893l2.161 28.814c2.977 39.685-26.87 71.856-66.66 71.856h-24.247c-39.793 0-72.051-32.265-72.051-72.054v-29.974h-8.254l2.092-24.376z"/>
            <path fill="#CFEAEC" d="M60.407 207.64h-31.07l3.66 66.108h25.346z"/>
            <path fill="#9DC8CB" d="M29.57 207.64h30.837v4.293h-29.98z" opacity=".4" style="mix-blend-mode:multiply"/>
            <g>
                <path fill="#CFEAEC" d="M182.043 203.64h26.851l-3.732 66.108h-21.906z"/>
                <path fill="#9DC8CB" d="M181.043 203.64h27.118l1.149 4.293h-28.267z" opacity=".4" style="mix-blend-mode:multiply"/>
            </g>
        </g>
        <g fill="#1DB598" mask="url(#b)">
            <g transform="translate(114 165)">
                <ellipse cx="6.868" cy="6.884" rx="6.868" ry="6.884"/>
                <path d="M3.862 13.406C3.94 12.077 5.086 11 6.402 11h.085c1.326 0 2.463 1.074 2.54 2.406l3.85 66.275c.077 1.329-.14 3.451-.483 4.733l-1.907 7.125c-.344 1.285-1.698 2.327-3.024 2.327h-1.06c-1.326 0-2.757-1.014-3.197-2.271L.669 84.358c-.44-1.254-.734-3.345-.657-4.677l3.85-66.275z"/>
            </g>
        </g>
        <path fill="#CFEAEC" d="M96.409 137.595h45.53v25.219h-45.53z" mask="url(#b)"/>
        <g fill="#FFF" stroke="#FFF" stroke-width="1.2" mask="url(#b)">
            <path d="M71.446 151.006l23.963-12.009 23.963 22.817-7.189 20.415zM168.298 149.805l-23.963-12.009-23.963 24.018 7.189 20.415z"/>
        </g>
        <path fill="#B1DBDE" d="M67.475 153.285c10.526-6.016 22.714-9.455 35.704-9.455h34.787c12.994 0 25.184 3.438 35.71 9.455h-106.2z" mask="url(#b)" opacity=".4" style="mix-blend-mode:multiply"/>
        <g mask="url(#b)">
            <g transform="translate(14 49)">
                <rect width="184.516" height="98.473" x="12.305" y=".038" fill="#CFEAEC" rx="9.6"/>
                <path stroke="#102445" stroke-linecap="round" stroke-linejoin="round" stroke-width="5" d="M99 68.12c0 3.01 2.5 5.45 5.587 5.45 3.085 0 5.586-2.44 5.586-5.45 0-.04-.011-.08-.012-.12"/>
                <g transform="translate(93 40)">
                    <rect width="22.618" height="12.41" x=".11" y=".073" fill="#102445" rx="6.205"/>
                    <ellipse cx="4.711" cy="5.992" fill="#203962" rx="2.3" ry="2.256"/>
                    <ellipse cx="17.363" cy="5.992" fill="#203962" rx="2.3" ry="2.256"/>
                </g>
                <g fill="#CFEAEC">
                    <path d="M15.16 31.732H3.334C1.5 31.732 0 33.257 0 35.12v16.698c0 1.863 1.5 3.387 3.334 3.387H15.16c1.833 0 3.334-1.524 3.334-3.387V35.12c0-1.863-1.5-3.388-3.334-3.388M206.514 31.732h-11.827c-1.834 0-3.334 1.525-3.334 3.388v16.698c0 1.863 1.5 3.387 3.334 3.387h11.827c1.833 0 3.333-1.524 3.333-3.387V35.12c0-1.863-1.5-3.388-3.333-3.388"/>
                </g>
                <g fill="#102445" stroke="#102445" stroke-linecap="round" stroke-linejoin="round" stroke-width="3.424">
                    <path d="M30.604 47.214c0 .051-.014.1-.014.15 0 3.718 2.965 6.733 6.622 6.733 3.66 0 6.625-3.015 6.625-6.733 0-.05-.014-.099-.015-.15H30.604zM167.822 47.214c0 .051-.015.1-.015.15 0 3.718 2.966 6.733 6.624 6.733 3.659 0 6.625-3.015 6.625-6.733 0-.05-.015-.099-.016-.15h-13.218z"/>
                </g>
                <g fill="#B1DBDE">
                    <path d="M22.558 77.36c-3.756 0-6.827-2.28-6.827-5.066v-4.87c0-2.784 2.215-5.064 5.97-5.064l15.263 6.252 14.577-6.252c3.756 0 6.826 2.28 6.826 5.065v4.87c0 2.786-3.07 5.065-6.826 5.065H22.558zM158.458 77.36c-3.755 0-6.827-2.28-6.827-5.066v-4.87c0-2.784 2.215-5.064 5.97-5.064 0 0 11 6.252 16.417 6.252 4.245 0 14.279-6.252 14.279-6.252 3.756 0 5.972 2.28 5.972 5.065v4.87c0 2.786-3.073 5.065-6.829 5.065h-28.982z"/>
                </g>
                <g transform="translate(6.426 18.838)">
                    <path stroke="#3C5F8D" stroke-linecap="round" stroke-width="7.6" d="M145.262 9.66c-26.573-8.523-69.579-8.523-96.154 0M6.599 27.077c0-13.717 10.915-24.836 24.38-24.836 13.462 0 24.376 11.119 24.376 24.836 0 13.718-10.914 24.837-24.377 24.837-13.464 0-24.379-11.12-24.379-24.837zM142.91 27.077c0-13.717 10.915-24.836 24.379-24.836 13.463 0 24.377 11.119 24.377 24.836 0 13.718-10.914 24.837-24.377 24.837-13.464 0-24.38-11.12-24.38-24.837z"/>
                    <ellipse cx="8.585" cy="8.808" fill="#3C5F8D" rx="8.387" ry="8.406"/>
                    <ellipse cx="7.986" cy="8.208" fill="#102445" rx="2.995" ry="3.002"/>
                    <ellipse cx="189.507" cy="8.808" fill="#3C5F8D" rx="8.387" ry="8.406"/>
                    <ellipse cx="190.106" cy="8.208" fill="#102445" rx="2.995" ry="3.002"/>
                </g>
            </g>
        </g>
        <g fill="#AC2625" transform="translate(80 230)">
            <rect width="7.666" height="23" x="20.15" y="6.219" fill-opacity=".539" rx="3.833" transform="rotate(100 23.983 17.719)"/>
            <rect width="5.81" height="25.2" x="10.843" y="-.575" rx="2.905" transform="rotate(100 13.748 12.025)"/>
            <rect width="5.81" height="25.2" x="11.838" y="-6.571" rx="2.905" transform="rotate(100 14.743 6.029)"/>
        </g>
        <g transform="translate(69 216)">
            <use fill="#FB2E2C" xlink:href="#c"/>
            <rect width="20" height="27" x="16.5" y="10.5" stroke="#FB2E2C" stroke-width="15" rx="4"/>
        </g>
        <g transform="translate(69 216)">
            <use fill="#AC2624" xlink:href="#d"/>
            <ellipse cx="26.4" cy="5" stroke="#FB2E2C" stroke-width="2" rx="16.4" ry="4"/>
        </g>
        <g transform="translate(69 216)">
            <use fill="#F1F1F1" fill-opacity="0" xlink:href="#e"/>
            <rect width="7.306" height="19" x="2.118" y="16.06" stroke="#FB2E2C" stroke-width="4" rx="3"/>
        </g>
        <g transform="translate(83 203)">
            <path fill="#CFEAEC" d="M126.607 4.5s-1.032 4.723-1 8.216c.096 10.276-12.644 29.264-49.762 36.686-25.416 5.082-58.67.544-58.67.544-6.593-.69-11.409-6.592-10.755-13.19l-.173 1.75c.654-6.595 6.527-11.3 13.112-10.663 0 0 17.807 2.857 38.699-.08 20.892-2.936 34.308-9.474 34.308-9.474C96.03 16.749 99 12.274 99 8.301V4.5h27.607z"/>
            <rect width="4.807" height="20.813" x="8.324" y="31.172" fill="#102445" rx="2.403" transform="rotate(100 10.727 41.579)"/>
            <rect width="4.807" height="19.688" x="10.172" y="26.018" fill="#102445" rx="2.403" transform="rotate(100 12.575 35.862)"/>
        </g>
    </g>
</svg>
