<svg width="698" height="446" viewBox="0 0 698 446" xmlns="http://www.w3.org/2000/svg" xmlns:xlink="http://www.w3.org/1999/xlink"><title>2736A6A9-FEDA-455B-80C2-BF241262F7F2</title><defs><path id="a" d="M0 0h1366v446H0z"/><path d="M16.394 278.657c-2.221-3.818-.865-8.593 3.042-10.672l501.16-266.7a7.75 7.75 0 0 1 10.635 3.397L673.77 290.353c1.972 3.953.399 8.801-3.536 10.841L185.107 552.707c-3.925 2.035-8.91.585-11.13-3.228L16.395 278.657z" id="c"/><path d="M91.758 179.117a7.89 7.89 0 0 1 6.066-9.478L647.076 52.666a8.013 8.013 0 0 1 9.5 6.158l78.747 367.364c.926 4.321-1.826 8.6-6.132 9.553l-544.38 120.53c-4.313.955-8.595-1.762-9.567-6.083L91.758 179.117z" id="d"/><path id="e" d="M488.592 216.912l142.294-27.597 39.908 170.089-143.52 34.35z"/></defs><g transform="translate(-668)" fill="none" fill-rule="evenodd"><mask id="b" fill="#fff"><use xlink:href="#a"/></mask><use fill="#F2F7F9" xlink:href="#a"/><g mask="url(#b)"><g transform="translate(668 -64)"><path d="M1.394 278.657c-2.221-3.818-.865-8.593 3.042-10.672l501.16-266.7a7.75 7.75 0 0 1 10.635 3.397L658.77 290.353c1.972 3.953.399 8.801-3.536 10.841L170.107 552.707c-3.925 2.035-8.91.585-11.13-3.228L1.395 278.657z" fill="#E4EEF2" opacity=".463"/><use fill="#E5E8EA" xlink:href="#c"/><path stroke-opacity=".203" stroke="#C8CDCE" stroke-width="3" d="M17.69 277.903c-1.794-3.085-.704-6.915 2.45-8.594L521.302 2.61a6.25 6.25 0 0 1 8.587 2.743l142.538 285.671c1.608 3.223.32 7.178-2.884 8.84L184.417 551.374c-3.213 1.666-7.325.472-9.143-2.65L17.691 277.902z"/><g opacity=".6" fill="#304665"><path d="M70.74 301.791l96.208-53.329 4.163 7.511-96.208 53.33zM79.66 317.886l100.485-55.7 4.164 7.512-100.485 55.7zM88.582 333.98l87.656-48.588 4.164 7.511-87.656 48.589zM97.504 350.075l105.829-58.662 4.163 7.512-105.829 58.662zM106.425 366.17l105.83-58.662 4.163 7.511-105.83 58.662zM115.347 382.265l98.345-54.514 4.164 7.511-98.346 54.514zM124.268 398.36l104.76-58.07 4.164 7.511-104.76 58.07z"/></g><g opacity=".597" fill="#304665"><path d="M415.74 109.791l96.208-53.329 4.163 7.511-96.208 53.33zM424.66 125.886l100.485-55.7 4.164 7.512-100.485 55.7zM433.582 141.98l87.656-48.588 4.164 7.511-87.656 48.589zM442.504 158.075l105.829-58.662 4.163 7.512-105.829 58.662zM451.425 174.17l105.83-58.662 4.163 7.511-105.83 58.662zM460.347 190.265l98.345-54.514 4.164 7.511-98.346 54.514zM469.268 206.36l104.76-58.07 4.164 7.511-104.76 58.07z"/></g><path fill="#D8D8D8" d="M136.269 426.144l77.517-39.497 44.945 88.21-77.517 39.496z"/><path d="M91.758 194.117a7.89 7.89 0 0 1 6.066-9.478L647.076 67.666a8.013 8.013 0 0 1 9.5 6.158l78.747 367.364c.926 4.321-1.826 8.6-6.132 9.553l-544.38 120.53c-4.313.955-8.595-1.762-9.567-6.083L91.758 194.117z" fill="#E4EFF3" opacity=".633"/><use fill="#F8FAFB" xlink:href="#d"/><path stroke-opacity=".315" stroke="#E4E8E9" stroke-width="3" d="M93.221 178.788a6.39 6.39 0 0 1 4.916-7.682L647.388 54.133a6.513 6.513 0 0 1 7.722 5.006l78.746 367.363c.753 3.513-1.486 6.999-4.99 7.775l-544.379 120.53a6.532 6.532 0 0 1-7.78-4.948L93.222 178.788z"/><path d="M134 249l513-102" stroke="#304665" stroke-width="3" opacity=".362"/><path d="M135 255l513-102" stroke="#304665" opacity=".362"/><path d="M278.306 179.023l-.14.027-.104-.029-.235.046-.038.056c-.691.135-.985.469-.881 1.003l-.038.056.009.047.056.038.01.047.047-.009.018.094.047-.009.092.472c-.716.008-1.344-.245-1.884-.76a3.403 3.403 0 0 1-1.02-1.854c-.44-2.262.738-3.665 3.534-4.208l.103.029-1.392-7.162c-.067-.346-.317-.664-.748-.955-.432-.291-.851-.397-1.26-.317-.597.116-1.05.513-1.357 1.192-.308.68-.401 1.333-.279 1.962l-.33.064.056.038a1.878 1.878 0 0 1-.887-1.295 1.759 1.759 0 0 1-.135-.316 3.98 3.98 0 0 1-.115-.466c-.256-1.32.027-2.548.849-3.686.853-1.144 1.94-1.844 3.259-2.1l.217-.14c3.347-.39 5.362 1.174 6.046 4.692.055.283.073.459.054.527.063-.012.107-.037.132-.074l.01.047a.914.914 0 0 1 .203-.21l.213-.164c.05-.075.137-.174.26-.295.123-.122.257-.23.402-.323l-.047.01.038-.057.085-.066-1.026-5.277 1.508-.293.833 4.288c1.772-1.453 3.684-3.438 5.737-5.956 1.6 1.351 2.85 2.086 3.754 2.204.037.025.292-.008.763-.1.125-.024.232-.06.32-.11l.048-.01.075-.112.236-.046.038-.056.377-.074.128.66-.038.056c.151 1.112-.22 1.967-1.115 2.564l4.13 21.25.075.133a.326.326 0 0 0 .14.217l.01.047.056.038c.055.12.141.266.256.44.115.172.276.37.482.59l-.519.1-.103-.028-.283.055-.056-.038c-.069-.02-.323.014-.763.1l-.15-.02-.095.018c-2.764.537-4.932 2.214-6.504 5.03l-1.575-1.063a.607.607 0 0 1-.385-.219l1.484 7.633-.707.138c-1.602.311-2.958-.208-4.068-1.557-.654.47-1.213 1.2-1.677 2.195.002.038-.015.119-.05.243a.558.558 0 0 0-.066.16l-.076.113-2.262.44-.073-.378.029-.103c.065-1.512.066-2.425.005-2.74l-1.181-6.078a6.916 6.916 0 0 0-.648.566c-.205.203-.456.464-.753.782-.152.389-.273.648-.362.78a9.515 9.515 0 0 0-.351.581c-.05.075-.13.213-.238.413-.107.2-.187.338-.237.413-.49-1.013-.775-1.724-.855-2.132-.537-2.764.29-4.88 2.482-6.35l-1.017-5.23a1.254 1.254 0 0 0-.295-.138 7.086 7.086 0 0 0-.288-.091zm8.784 13.989c.201 1.037.844 1.743 1.927 2.119l-5.44-27.988a1.117 1.117 0 0 0-.246.243l-.17.131a2.348 2.348 0 0 0-.208.187l-.094.019-.596.458 4.827 24.83zm3.48-15.297c.095-.019.337-.033.726-.044.389-.01.684-.002.885.024l-1.374-7.068c-.378.237-.96.431-1.745.584l-1.366.266c-.44.085-.995.079-1.666-.019l1.383 7.115a.789.789 0 0 0 .183-.06.789.789 0 0 1 .184-.06 18.468 18.468 0 0 1 1.509-.416c.484-.11.707-.178.67-.203l.612-.12zm-1.912-8.332c.785-.153 1.36-.379 1.726-.678l.047-.01-.916-4.711c-.47.091-1.116-.044-1.937-.406-.48.55-.864.918-1.154 1.104a4.523 4.523 0 0 1-.6.557 8.73 8.73 0 0 0-.81.744l.047-.009-.076.113.66 3.392c.564.217 1.348.227 2.353.032l.66-.128zm-.449 13.29a18.241 18.241 0 0 1 5.165 2.418l.208-.187-1.017-5.23-.254-.048-.206-.058c-.164 0-.361-.011-.593-.031l.056.038c.006.03-.007.05-.038.056l-.01-.047a.534.534 0 0 1-.244-.002l-.235.046c-.126.025-.24.03-.34.017-.062.012-.103.012-.122 0-.019-.013-.044-.016-.075-.01l-.942.183c-.126.024-.28.07-.462.139a5.693 5.693 0 0 0-.586.26 3.404 3.404 0 0 1-.396.224 1.41 1.41 0 0 1-.32.111l.411 2.12zm22.376 3.767a5.828 5.828 0 0 1-1.567-.013 4.41 4.41 0 0 1-1.574-.55c-1.089-.57-1.728-1.343-1.917-2.317l-2.308-11.874c-.477.06-.894-.152-1.249-.637l-.586.505-.843-.814.096-.263.056.038.076-.113.085-.065c.26-.344.542-.733.849-1.167.307-.435.722-.98 1.247-1.636.302-.287.66-.715 1.07-1.284l.161-.178.228-.338-.11-.565c1.642 1.571 2.95 2.262 3.924 2.073.22-.043.68-.36 1.38-.953l.11.566c-.027.2-.016.426.033.678-.11.771-.326 1.424-.646 1.959-.32.535-.681.94-1.084 1.213l1.95 10.036c.037.189.165.425.383.708.399.542 1.1.716 2.106.52.345-.067.735-.24 1.17-.52l.252.293-3.292 4.698zm-5.567-21.851l-.377.073-.01-.047-.47.092-.104-.03c-1.194.233-2.026-.11-2.498-1.03l-.681.524-.814-.917c.202-.3.431-.549.686-.745l.724-.556-.076.112c.082-.08.195-.209.34-.384l.418-.497c.189-.2.411-.438.667-.716.256-.278.532-.576.829-.895 1.048 1.035 2.012 1.467 2.892 1.296a1.84 1.84 0 0 1 .378-.195 1.84 1.84 0 0 0 .377-.196l-.047.01.076-.113.047-.01.038-.056.047-.009.038-.056.33-.064.082.424c.086.44.065.876-.063 1.308a3.74 3.74 0 0 1-.6 1.192c-.271.363-.601.68-.989.95a3.22 3.22 0 0 1-1.24.535zm17.668 19.548c-1.908-1.096-4.03-1.695-6.363-1.795.496-1.303 1.098-2.235 1.804-2.796l-3.737-19.224-.567-1.406c-.006-.03-.018-.053-.037-.066-.019-.012-.031-.034-.037-.066l.009.047c-.044-.056-.081-.163-.112-.32l-.121-.123-.057-.038a.534.534 0 0 0-.092-.227l-.066-.085-.119-.612c.207.057.359.085.456.082.097-.002.193-.013.287-.031 1.1-.214 2.644-1.492 4.634-3.835l.272.143a4.974 4.974 0 0 0-.156.96c-.027.363-.06.777-.1 1.241-.05.923-.028 1.62.063 2.09l3.911 20.12c.414.115.98.347 1.7.696l-.056-.038.047-.009.104.029c.187.127.303.218.346.275l.17.114.578-.797 1.18 1.042-3.94 4.629zm22.356-9.92c.366.874.84 1.385 1.423 1.532-3.295 1.162-5.747 3.057-7.355 5.684-2.188-1.53-5.59-2.092-10.205-1.684-.125.025-.197-.01-.216-.104-.036-.189.088-.555.373-1.1.394-.826.692-1.39.895-1.69l-2.318-11.92c-.624-.53-.973-.984-1.047-1.361l-.009-.048c3.23-.823 5.686-2.278 7.367-4.365 3.96 1.088 7.077 1.525 9.35 1.312-.463.807-.667 1.352-.612 1.634l2.354 12.11zm-7.738-10.378c-2.752-.574-4.285-.83-4.6-.769-.062.012-.09.034-.084.065l2.408 12.393c.607.436 2.168.67 4.684.703l-2.408-12.392zm26.194-9.542c-.328 2.672-1.549 5.615-3.662 8.83l4.41-.956c.007.031.011.096.014.193.002.097.007.162.013.193a.534.534 0 0 0-.002.245l-.038.056.019.094-.076.113.018.094-.029.104a.334.334 0 0 1 .004.146.213.213 0 0 0-.005.098l-.01-.047c-.012.1-.022.217-.03.348l-.01.198 1.557 8.01c.012.063.037.107.075.132l.027.142.066.085-.01-.047c.038.025.06.053.066.085l.093.226-.065-.085-.057-.038c.006.031.05.088.131.17l.374.416.262.34c-.345.068-.553.092-.622.073l.048-.01c-.038-.025-.088-.031-.15-.02a15.86 15.86 0 0 1-.948.16c-.254.034-.47.018-.644-.045-.472.091-.757.13-.858.117l-.282.055c-2.388.464-4.192 1.663-5.414 3.595l-1.632-1.1a3.5 3.5 0 0 0-.803-.358 1.695 1.695 0 0 0-.786-.018c-.207-.058-.483-.053-.828.014-1.445.281-2.316 1.167-2.613 2.66l-1.366.265c.037-1.148.259-2.357.664-3.625.405-1.269 1.014-2.667 1.825-4.194l.152-.225c.076-.112.17-.26.28-.445.111-.185.243-.39.394-.615l-3.137.463.266-.394-.02.15c.21-.431.275-.851.195-1.26l.03-.103-1.642-8.19c-.006-.03-.018-.053-.037-.065-.019-.013-.031-.035-.037-.066l.009.047c-.038-.026-.069-.101-.093-.227l-.205-.302-.01-.047c-.075-.05-.124-.139-.149-.265l-.082-.424c.369.222.726.3 1.072.232.244.083.806.039 1.685-.132.038.025.198.01.48-.045 1.446-.28 2.773-.913 3.984-1.898.113-.088.625-.807 1.536-2.157 1.231.967 2.287 1.365 3.166 1.194.911-.177 1.56-.776 1.95-1.797l1.253-.342.234.2zm-2.753 18.286l-1.154-5.937-.113-.076-2.403.467-1.974 2.926c-.177.263-.375.587-.593.971-.219.385-.493.821-.822 1.31l.958-.358c.273-.102.489-.169.646-.2 1.633-.317 3.171.134 4.615 1.353l.17-.13.132-.075c.063-.012.167-.065.311-.159l.189-.036.038-.056zm-.872-12.789a4.494 4.494 0 0 1-1.633.66c-.91.177-2.036-.077-3.375-.762a.521.521 0 0 0-.17.13l-.189.037c-.17.13-.333.212-.49.242l1.154 5.937.518-.1c.22-.207.516-.574.886-1.102.37-.528.846-1.224 1.428-2.087a2246.88 2246.88 0 0 0 1.87-2.955zm9.09 11.387c-.045.106-.064.175-.058.207.031-.007.07-.063.114-.17l-.057-.037zm15.305-5.03c.547.97 1.257 1.435 2.13 1.396l1.789-.103-3.269 5.574-4.231-2.65-2.507 3.96c-3.44-2.266-6.493-3.302-9.161-3.11l.095-.262c.076-.113.149-.241.219-.385l.372-.855-2.418-12.439c-.594-.537-.924-.978-.991-1.323l-.018-.094a36.895 36.895 0 0 0 6.926-4.868c2.753.41 5.531.783 8.335 1.119l2.729 14.04zm-5.247 2.439l-2.5-12.863c-2.796-.63-4.288-.927-4.477-.89l.01.047.215.104 2.327 11.968c1.685.455 3.16 1 4.425 1.634zm26.662-14.327l-.14.027-.103-.028-.235.045-.038.057c-.691.134-.985.468-.881 1.002l-.038.056.009.048.056.038.01.047.047-.01.018.095.047-.01.092.472c-.716.008-1.344-.244-1.884-.759a3.403 3.403 0 0 1-1.02-1.855c-.44-2.262.738-3.664 3.533-4.208l.104.029-1.392-7.162c-.067-.345-.317-.664-.748-.955-.432-.29-.852-.397-1.26-.317-.597.116-1.05.513-1.357 1.193-.308.679-.401 1.333-.28 1.96l-.329.065.056.038a1.878 1.878 0 0 1-.887-1.294 1.759 1.759 0 0 1-.135-.317 3.98 3.98 0 0 1-.115-.466c-.256-1.32.026-2.548.848-3.686.854-1.144 1.94-1.844 3.26-2.1l.217-.14c3.347-.39 5.362 1.174 6.046 4.692.055.283.073.459.054.528.063-.012.107-.037.132-.075l.01.047a.914.914 0 0 1 .203-.21l.212-.164c.051-.075.138-.173.26-.295.124-.122.258-.23.403-.323l-.047.01.038-.057.085-.065-1.026-5.278 1.508-.293.833 4.288c1.772-1.453 3.684-3.438 5.737-5.956 1.6 1.352 2.85 2.086 3.754 2.204.037.026.291-.008.763-.1.125-.024.232-.06.32-.11l.047-.01.076-.112.236-.046.038-.056.377-.073.128.66-.038.056c.151 1.111-.22 1.966-1.115 2.563l4.13 21.25.075.133a.326.326 0 0 0 .14.217l.01.047.056.038c.055.12.14.266.256.44.115.173.276.37.482.59l-.519.101-.103-.029-.283.055-.056-.038c-.069-.019-.323.014-.763.1l-.15-.02-.095.018c-2.764.538-4.932 2.214-6.504 5.03l-1.575-1.063a.607.607 0 0 1-.385-.219l1.484 7.633-.707.138c-1.602.311-2.958-.208-4.068-1.557-.654.47-1.213 1.201-1.677 2.195.002.038-.015.12-.05.244a.558.558 0 0 0-.066.16l-.076.112-2.262.44-.073-.377.029-.104c.064-1.512.066-2.425.005-2.74l-1.181-6.077a6.916 6.916 0 0 0-.648.566c-.205.202-.456.463-.753.782-.153.388-.273.648-.362.779a9.515 9.515 0 0 0-.351.582c-.05.075-.13.212-.238.413-.108.2-.187.337-.237.412-.49-1.013-.776-1.723-.855-2.132-.537-2.764.29-4.88 2.482-6.35l-1.017-5.23a1.253 1.253 0 0 0-.295-.138 7.085 7.085 0 0 0-.289-.09zm8.785 13.99c.201 1.036.844 1.742 1.927 2.118l-5.44-27.988a1.117 1.117 0 0 0-.246.244l-.17.13a2.348 2.348 0 0 0-.208.188l-.095.018-.595.458 4.827 24.831zm3.48-15.298c.095-.018.337-.033.726-.043.389-.01.684-.003.885.023l-1.374-7.067c-.378.236-.96.43-1.745.583l-1.366.266c-.44.085-.996.08-1.667-.019l1.383 7.115a.789.789 0 0 0 .184-.06.789.789 0 0 1 .184-.06 18.468 18.468 0 0 1 1.509-.416c.484-.11.707-.178.67-.203l.612-.12zm-1.912-8.332c.785-.153 1.36-.379 1.726-.678l.047-.01-.916-4.711c-.47.092-1.117-.044-1.937-.406-.48.55-.864.918-1.154 1.105a4.523 4.523 0 0 1-.6.557 8.73 8.73 0 0 0-.81.744l.047-.01-.076.113.66 3.392c.563.217 1.348.227 2.353.032l.66-.128zm-.449 13.29a18.241 18.241 0 0 1 5.165 2.419l.208-.188-1.017-5.23-.254-.048-.206-.058c-.164 0-.361-.011-.593-.031l.056.038c.006.031-.007.05-.038.056l-.01-.047a.534.534 0 0 1-.244-.001l-.236.045c-.125.025-.238.03-.339.017-.062.013-.103.012-.122 0-.019-.013-.044-.016-.075-.01l-.943.183c-.125.025-.28.07-.462.139a5.693 5.693 0 0 0-.585.26 3.404 3.404 0 0 1-.396.224 1.41 1.41 0 0 1-.32.111l.411 2.12zm15.594-18.043c2.173.783 3.466 1.396 3.878 1.837l.141-.027c.126-.024.305-.108.538-.251.73-.436 1.765-1.321 3.102-2.657l.568-.6c1.89 1.166 3.546 1.805 4.97 1.92.034.678-.23 1.332-.792 1.963-.505.587-1.22 1.02-2.144 1.297-.214.074-.415.13-.603.166-1.037.201-2.267.245-3.691.13a3.587 3.587 0 0 0-.773.053c-.534.104-.764.344-.69.721l2.509 12.91 2.026-.393c-1.835 1.628-3.023 3.065-3.563 4.31-.4.959-.648 1.447-.742 1.465l-.018-.094-.057-.038-.149-.265a5.417 5.417 0 0 0-.748-.832c-.956-.89-2.36-1.66-4.215-2.31l-.102-.274 1.838-.357-2.381-12.25c-.834-1.436-1.775-2.085-2.823-1.946l3.921-4.478zm31.77 2.284c-.34.261-1.006.823-1.996 1.683-.99.861-2.333 2.043-4.03 3.546a9.543 9.543 0 0 0-.823.796l.687 3.534a21.287 21.287 0 0 1 2.829.086c.88.09 1.716.237 2.506.442l.902-1.398 1.389.855-3.372 5.545-.517-.144a56.371 56.371 0 0 0-2.12-.59c-.686-.177-1.453-.264-2.3-.262-1.437-.014-2.658.076-3.664.272-.377.073-.749.17-1.117.29-.367.12-.734.249-1.098.385.032-.17.069-.315.11-.437.042-.122.088-.221.138-.296l.01.047c.152-.388.278-.706.376-.953.099-.248.161-.39.186-.428.165-.325.516-.785 1.053-1.378l-2.217-11.402c-.091-.472-.495-1.208-1.212-2.21l-.128-.66.507.342.282-.055.057.038.141-.027.15.02.189-.037c2.482-.483 5.076-2.063 7.783-4.74.267.535.59 1.107.97 1.718.379.611.868 1.282 1.466 2.013.55.643 1.064 1.236 1.544 1.778.48.543.92 1.003 1.32 1.382l-.001.245zm-8.074-2.294l-.36.168 1.173 6.03 2.224-2.143a14.268 14.268 0 0 1-.59-.643c-.23-.265-.501-.612-.813-1.04-.3-.366-.586-.75-.86-1.153a23.34 23.34 0 0 1-.774-1.219zm27.017-8.577c-.328 2.672-1.549 5.615-3.662 8.83l4.41-.956c.007.032.011.096.014.193.002.098.007.162.013.193a.534.534 0 0 0-.002.245l-.038.056.019.095-.076.112.018.094-.029.104a.334.334 0 0 1 .004.146.213.213 0 0 0-.005.098l-.01-.047c-.012.1-.022.217-.03.349l-.01.197 1.557 8.01c.012.063.037.107.075.132l.027.142.066.085-.01-.047c.038.025.06.053.066.085l.093.226-.065-.085-.057-.038c.006.032.05.088.131.17l.374.417.262.34c-.345.067-.553.091-.622.072l.048-.01c-.038-.025-.088-.031-.15-.019a15.86 15.86 0 0 1-.948.16c-.254.033-.47.018-.644-.046-.472.091-.757.13-.858.118l-.282.055c-2.388.464-4.192 1.662-5.414 3.595l-1.632-1.101a3.5 3.5 0 0 0-.803-.358 1.695 1.695 0 0 0-.786-.018c-.207-.058-.483-.053-.828.014-1.445.281-2.316 1.168-2.613 2.66l-1.366.265c.037-1.148.259-2.356.664-3.625.405-1.269 1.014-2.667 1.826-4.193l.151-.226c.076-.112.17-.26.28-.445.111-.185.243-.39.394-.615l-3.137.463.266-.393-.02.15c.21-.432.275-.852.195-1.26l.03-.104-1.642-8.19c-.006-.03-.018-.053-.037-.065-.019-.013-.031-.035-.037-.066l.009.047c-.038-.026-.069-.101-.093-.227l-.205-.302-.01-.047c-.075-.05-.124-.139-.149-.265l-.082-.424c.369.222.726.3 1.072.232.244.083.806.039 1.685-.132.038.025.198.01.48-.044 1.446-.281 2.773-.914 3.984-1.9.113-.086.625-.805 1.536-2.156 1.231.967 2.287 1.365 3.166 1.194.911-.177 1.56-.776 1.95-1.797l1.253-.342.234.2zm-2.753 18.286l-1.154-5.937-.113-.076-2.403.467-1.974 2.926c-.177.263-.375.587-.593.971-.219.385-.493.821-.822 1.31l.958-.358c.273-.102.489-.168.646-.199 1.633-.317 3.171.133 4.615 1.352l.17-.13.132-.075c.063-.012.167-.065.311-.158l.189-.037.038-.056zm-.872-12.789a4.494 4.494 0 0 1-1.633.66c-.91.177-2.036-.077-3.375-.762a.521.521 0 0 0-.17.13l-.189.037c-.17.131-.333.212-.49.242l1.154 5.937.518-.1c.22-.206.516-.574.886-1.102.37-.528.846-1.224 1.428-2.087a2245.02 2245.02 0 0 0 1.87-2.955zm23.869-9.432c-.329 2.672-1.55 5.615-3.663 8.83l4.41-.956c.007.032.011.096.014.193.002.098.007.162.013.193a.534.534 0 0 0-.001.245l-.038.056.018.095-.076.112.018.094-.029.104a.334.334 0 0 1 .004.146.213.213 0 0 0-.005.099l-.009-.047c-.013.1-.023.216-.03.348l-.01.197 1.556 8.01c.013.063.037.107.075.133l.027.14.066.086-.01-.047c.038.025.06.054.066.085l.093.226-.065-.085-.057-.038c.006.032.05.088.131.17l.375.417.261.34c-.345.067-.552.091-.621.072l.047-.01c-.038-.024-.088-.031-.15-.019a15.86 15.86 0 0 1-.948.16c-.254.033-.469.018-.644-.046-.472.092-.757.13-.858.118l-.282.055c-2.388.464-4.192 1.662-5.414 3.595l-1.632-1.101a3.5 3.5 0 0 0-.803-.358 1.695 1.695 0 0 0-.786-.018c-.207-.057-.483-.053-.828.014-1.445.281-2.316 1.168-2.613 2.66l-1.366.265c.037-1.148.259-2.356.664-3.625.406-1.269 1.014-2.666 1.826-4.193l.151-.225c.076-.113.17-.262.28-.446.111-.185.243-.39.395-.615l-3.138.464.266-.394-.02.15c.21-.432.275-.852.195-1.26l.03-.104-1.641-8.189c-.007-.031-.019-.053-.038-.066-.019-.013-.031-.035-.037-.066l.01.047c-.038-.025-.07-.1-.094-.227l-.205-.302-.01-.047c-.074-.05-.124-.139-.149-.264l-.082-.424c.369.221.726.298 1.072.231.244.083.806.04 1.686-.132.037.026.197.01.48-.044 1.445-.281 2.773-.914 3.983-1.9.113-.086.625-.805 1.536-2.156 1.232.967 2.287 1.365 3.166 1.194.911-.177 1.561-.776 1.95-1.797l1.253-.342.235.2zm-2.754 18.286l-1.154-5.937-.113-.076-2.403.467-1.974 2.926c-.177.263-.375.587-.593.972-.219.384-.493.82-.821 1.308l.957-.357c.273-.102.489-.168.646-.199 1.633-.317 3.172.133 4.615 1.353l.17-.131.132-.075c.063-.012.167-.065.312-.158l.188-.037.038-.056zm-.872-12.789a4.494 4.494 0 0 1-1.632.66c-.911.177-2.036-.077-3.376-.762a.521.521 0 0 0-.17.13l-.188.037c-.17.131-.334.212-.491.242l1.154 5.937.518-.1c.22-.206.516-.573.886-1.102.37-.528.846-1.224 1.428-2.087a2245.02 2245.02 0 0 0 1.87-2.955z" stroke-opacity=".303" stroke="#7A7979" fill="#1F2D42" opacity=".467"/><path fill-opacity=".36" fill="#304665" d="M201.01 435.786l290.498-62.048.027 5.039-290.043 59.485z"/><g opacity=".36" fill="#304665"><path d="M328.951 266.879l107.597-22.87 1.785 8.4-107.596 22.87zM332.777 284.879l112.379-23.887 1.785 8.4-112.378 23.887zM336.603 302.879l98.032-20.838 1.786 8.4-98.032 20.838zM340.43 320.878l118.355-25.157 1.786 8.4-118.356 25.158zM344.255 338.878l118.356-25.157 1.786 8.4L346.04 347.28zM348.081 356.878L458.068 333.5l1.786 8.4-109.987 23.379zM351.907 374.878l117.16-24.903 1.786 8.4-117.16 24.903z"/></g><g fill-opacity=".36" fill="#304665"><path d="M179.951 297.879l107.597-22.87 1.785 8.4-107.596 22.87zM183.777 315.879l112.379-23.887 1.785 8.4-112.378 23.887zM187.603 333.879l98.032-20.838 1.786 8.4-98.032 20.838zM191.43 351.878l118.355-25.157 1.786 8.4-118.356 25.158zM195.255 369.878l118.356-25.157 1.786 8.4L197.04 378.28zM199.081 387.878L309.068 364.5l1.786 8.4-109.987 23.379zM202.907 405.878l117.16-24.903 1.786 8.4-117.16 24.903z"/></g><g opacity=".358" fill="#304665"><path d="M363.798 427.475l107.596-22.87 1.781 8.38-107.596 22.87zM367.615 445.431l112.378-23.886 1.781 8.38-112.378 23.886zM371.431 463.388l98.032-20.837 1.781 8.38-98.031 20.837zM375.248 481.346l118.356-25.157 1.781 8.38-118.355 25.157zM379.065 499.303l118.356-25.157 1.781 8.38-118.356 25.157z"/></g><g opacity=".36" fill="#304665"><path d="M218.798 462.475l107.596-22.87 1.781 8.38-107.596 22.87zM222.615 480.431l112.378-23.886 1.781 8.38-112.378 23.886zM226.431 498.388l98.032-20.837 1.781 8.38-98.031 20.837zM230.248 516.346l118.356-25.157 1.781 8.38-118.355 25.157zM234.065 534.303l118.356-25.157 1.781 8.38-118.356 25.157z"/></g><mask id="f" fill="#fff"><use xlink:href="#e"/></mask><use fill="#E4E8E9" xlink:href="#e"/><path stroke-opacity=".461" stroke="#979797" stroke-width="3" d="M488.306 215.44l-1.508.292.328 1.5 38.683 176.843.327 1.494 1.488-.356 143.52-34.35 1.451-.348-.34-1.454-39.909-170.089-.33-1.404-1.416.274-142.294 27.598z"/><g mask="url(#f)"><path d="M539.38 361.742c-3.153-23.66 13.156-47.198 36.415-52.567l14.657-3.384c23.264-5.371 48.25 8.631 55.81 31.277l3.056 9.156-9.338 2.155 6.692 21.965c6.958 22.834-6.268 45.7-29.526 51.07l-14.658 3.383c-23.264 5.371-46.476-9.126-51.847-32.393l-5.15-22.307-4.85 1.12-1.262-9.475z" fill="#3C5F8D"/><path fill="#FEFEFE" d="M631.58 350.113l16.95-3.914 6.547 39.11-13.827 3.193z"/><path fill="#B1DBDE" opacity=".4" style="mix-blend-mode:multiply" d="M631.58 350.113l17.11-3.95.075 2.62-16.607 3.834z"/><path fill="#FEFEFE" d="M560.119 366.61l-18.255 4.215 11.054 38.07 14.892-3.438"/><path fill="#B1DBDE" opacity=".4" style="mix-blend-mode:multiply" d="M542.002 370.793l18.117-4.182.578 2.504-17.614 4.067z"/><path d="M605.007 304.86c1.004 4.348-6.795 19.491-18.202 22.125-11.408 2.634-26.197-7.295-27.2-11.642" stroke="#294162" stroke-width="5.76" fill="#FEFEFE"/><path d="M556.216 319.504a43.034 43.034 0 0 1 19.579-10.33l14.657-3.383a43.04 43.04 0 0 1 22.128.7l-56.364 13.013z" fill="#E8E8E8" style="mix-blend-mode:multiply" opacity=".4"/></g><g mask="url(#f)"><path d="M523.048 293.431l-7.041 1.626c-1.092.252-1.786 1.32-1.543 2.373l2.179 9.437c.243 1.053 1.335 1.708 2.427 1.456l7.04-1.625c1.092-.252 1.787-1.32 1.543-2.373l-2.178-9.437c-.243-1.053-1.336-1.709-2.427-1.457M639.446 266.558l-7.04 1.626c-1.092.252-1.787 1.32-1.544 2.373l2.18 9.437c.242 1.054 1.335 1.709 2.426 1.457l7.041-1.626c1.092-.252 1.786-1.32 1.543-2.373l-2.179-9.437c-.243-1.053-1.335-1.709-2.427-1.457" fill="#FFF"/><path d="M633.304 299.212l-99.036 22.864c-3.477.803-6.98-1.397-7.787-4.89l-9.5-41.15c-.806-3.49 1.379-7.004 4.856-7.807l99.035-22.864c3.478-.803 6.982 1.398 7.788 4.889l9.5 41.15c.807 3.492-1.379 7.005-4.856 7.808" fill="#FFF"/><g transform="rotate(-13 1504.171 -2350.99)"><rect fill="#102445" x=".08" y=".053" width="16.34" height="8.923" rx="4.461"/><ellipse fill="#203962" cx="3.403" cy="4.308" rx="1.662" ry="1.622"/><ellipse fill="#203962" cx="12.544" cy="4.308" rx="1.662" ry="1.622"/></g><path d="M545.973 307.044l-15.504 3.58c-2.01.463-4.035-.817-4.504-2.847l-.819-3.547c-.468-2.028.791-4.068 2.8-4.532l15.504-3.58c2.01-.463 4.036.818 4.504 2.847l.819 3.546c.469 2.03-.791 4.07-2.8 4.533M632.485 287.071l-15.504 3.58c-2.009.463-4.035-.817-4.503-2.847l-.82-3.547c-.468-2.028.792-4.068 2.8-4.532l15.504-3.58c2.01-.463 4.036.818 4.505 2.847l.818 3.546c.469 2.03-.791 4.07-2.8 4.533" fill="#E5E5E5"/><path d="M520.314 294.062c-1.692-7.327 2.747-14.608 9.914-16.262 7.167-1.655 14.348 2.943 16.04 10.27 1.691 7.328-2.747 14.608-9.914 16.263-7.167 1.655-14.349-2.943-16.04-10.27M608.399 273.726c-1.692-7.327 2.748-14.608 9.915-16.263 7.167-1.654 14.347 2.944 16.039 10.271 1.691 7.328-2.747 14.608-9.914 16.263-7.167 1.654-14.348-2.943-16.04-10.27" fill="#FFF"/><path d="M528.973 292.063c.007.03.005.058.011.087.487 2.108 2.642 3.41 4.814 2.91 2.172-.502 3.538-2.618 3.051-4.726-.006-.029-.02-.054-.028-.083l-7.848 1.812z" fill="#375567"/><path d="M528.973 292.063c.007.03.005.058.011.087.487 2.108 2.642 3.41 4.814 2.91 2.172-.502 3.538-2.618 3.051-4.726-.006-.029-.02-.054-.028-.083l-7.848 1.812z" stroke="#375567" stroke-width="2.054" stroke-linecap="round" stroke-linejoin="round"/><path d="M617.059 271.727c.006.029.004.058.01.087.487 2.108 2.643 3.41 4.814 2.91 2.172-.502 3.538-2.618 3.052-4.726-.007-.029-.022-.054-.03-.083l-7.846 1.812z" fill="#375567"/><path d="M617.059 271.727c.006.029.004.058.01.087.487 2.108 2.643 3.41 4.814 2.91 2.172-.502 3.538-2.618 3.052-4.726-.007-.029-.022-.054-.03-.083l-7.846 1.812z" stroke="#375567" stroke-width="2.054" stroke-linecap="round" stroke-linejoin="round"/><path d="M575.631 296.849c.487 2.108 2.642 3.41 4.814 2.91 2.172-.502 3.538-2.617 3.05-4.726-.006-.029-.02-.054-.027-.083" stroke="#375567" stroke-width="3.6" stroke-linecap="round" stroke-linejoin="round"/><g stroke-linecap="round" stroke="#2A4870" stroke-width="3.6"><path d="M607.432 273.127c-20.797-12.734-48.234-6.4-61.345 14.163M520.314 294.062c-1.692-7.327 2.747-14.608 9.914-16.262 7.167-1.655 14.348 2.943 16.04 10.27 1.691 7.328-2.747 14.608-9.914 16.263-7.167 1.655-14.349-2.943-16.04-10.27zM608.399 273.726c-1.692-7.327 2.748-14.608 9.915-16.263 7.166-1.654 14.347 2.944 16.039 10.271 1.691 7.328-2.747 14.608-9.914 16.263-7.167 1.654-14.348-2.943-16.04-10.27z"/></g></g></g></g></g></svg>