<svg xmlns="http://www.w3.org/2000/svg" xmlns:xlink="http://www.w3.org/1999/xlink" width="224" height="244" viewBox="0 0 224 244">
    <defs>
        <path id="a" d="M137.5 241c66.55 0 120.5-53.95 120.5-120.5S204.05 0 137.5 0 0 69.95 0 136.5 70.95 241 137.5 241z"/>
        <rect id="c" width="33" height="10" x="4.848" y="49.198" rx="3"/>
        <rect id="d" width="33" height="10" x="8.848" y="50.198" rx="3"/>
        <rect id="e" width="8" height="31" x="33" rx="4"/>
        <rect id="f" width="4" height="11" x="14.694" y="2.41" rx="2"/>
        <rect id="g" width="4" height="11" x="54.148" y="2.295" rx="2"/>
        <path id="h" d="M95 30l-23-3-12 11.5 8 17z"/>
    </defs>
    <g fill="none" fill-rule="evenodd" transform="translate(-17 -1)">
        <circle cx="139.5" cy="143.5" r="101.5" fill="#F8FAFB"/>
        <mask id="b" fill="#fff">
            <use xlink:href="#a"/>
        </mask>
        <g mask="url(#b)">
            <path fill="#FFF" d="M62.584 191.29c3.113-33.017 32.519-59.781 65.681-59.781h20.415c33.163 0 62.592 26.767 65.731 59.781l1.277 13.428h-13.265l2.191 31.924c2.271 33.085-22.771 59.905-55.934 59.905h-20.415c-33.162 0-60.045-26.877-60.045-60.039v-31.92h-6.89l1.254-13.298z"/>
            <path fill="#FB2E2C" stroke="#FA4947" d="M90.5 144l-2 90 1 15 40.5 2.5 1-89-29.5-23.5z"/>
            <g transform="translate(88.152 138.802)">
                <use fill="#FFF" xlink:href="#c"/>
                <rect width="36" height="13" x="3.348" y="47.698" stroke="#DC2C2A" stroke-width="3" rx="3"/>
            </g>
            <path fill="#FB2E2C" stroke="#FA4947" d="M188.5 145l2 87.5-5 15.5-40.5 2.5-1-89 29.5-23.5z"/>
            <g transform="translate(143.152 137.802)">
                <use fill="#FFF" xlink:href="#d"/>
                <rect width="36" height="13" x="7.348" y="48.698" stroke="#DC2C2A" stroke-width="3" rx="3"/>
            </g>
            <g>
                <path fill="#CFEAEC" d="M190.553 204.44h24.08l-3.347 55.048h-19.644z"/>
                <path fill="#B1DBDE" d="M190.553 204.44h24.308l-.715 3.574h-23.593z" opacity=".4" style="mix-blend-mode:multiply"/>
            </g>
            <g>
                <path fill="#CFEAEC" d="M89.034 204.44H63.102l3.055 55.048h21.155z"/>
                <path fill="#B1DBDE" d="M63.297 204.44h25.737v3.574H64.012z" opacity=".4" style="mix-blend-mode:multiply"/>
            </g>
            <path fill="#CFEAEC" stroke="#FFF" stroke-width="8" d="M168.805 134.802c0 6.205-15.234 24.287-31.44 24.287-16.206 0-33.06-18.082-33.06-24.287"/>
            <path fill="#B1DBDE" d="M98.521 139.381c8.769-5.01 18.922-7.872 29.744-7.872h20.415c10.823 0 20.978 2.862 29.747 7.872H98.521z" opacity=".4" style="mix-blend-mode:multiply"/>
        </g>
        <g mask="url(#b)">
            <g fill="#CFEBEC">
                <path d="M61.358 79.374h-9.87c-1.531 0-2.783 1.27-2.783 2.821V96.1c0 1.551 1.252 2.82 2.782 2.82h9.87c1.53 0 2.783-1.269 2.783-2.82V82.195c0-1.551-1.252-2.82-2.782-2.82M227.064 79.374h-9.87c-1.53 0-2.783 1.27-2.783 2.821V96.1c0 1.551 1.252 2.82 2.782 2.82h9.871c1.53 0 2.783-1.269 2.783-2.82V82.195c0-1.551-1.253-2.82-2.783-2.82"/>
                <path d="M67.286 134.817c-4.971 0-9.038-4.562-9.038-10.14V58.956c0-5.576 1.872-7.537 9.038-10.14 7.166-2.601 47.04-8.698 70.794-8.698 23.755 0 60.054 4.515 70.803 8.699 10.749 4.184 9.039 4.563 9.039 10.139v65.721c0 5.578-4.068 10.14-9.04 10.14H67.287z"/>
            </g>
            <g transform="translate(127 89)">
                <rect width="22.618" height="12.41" x=".11" y=".073" fill="#102445" rx="6.205"/>
                <ellipse cx="4.711" cy="5.992" fill="#203962" rx="2.3" ry="2.256"/>
                <ellipse cx="17.363" cy="5.992" fill="#203962" rx="2.3" ry="2.256"/>
            </g>
            <g transform="translate(105 4)">
                <rect width="57" height="42" x="7" y="1" fill="#F5F608" rx="17"/>
                <ellipse cx="36" cy="44.5" fill="#B1DBDE" rx="36" ry="16.5"/>
                <ellipse cx="36" cy="39.5" fill="#F5F608" rx="36" ry="16.5"/>
                <use fill="#DBDC01" xlink:href="#e"/>
                <rect width="11" height="34" x="31.5" y="-1.5" stroke="#BDBE04" stroke-opacity=".565" stroke-width="3" rx="5"/>
                <g transform="scale(-1 1) rotate(28 0 -59.047)">
                    <use fill="#DBDC01" xlink:href="#f"/>
                    <rect width="7" height="14" x="13.194" y=".91" stroke="#BDBE04" stroke-opacity=".56" stroke-width="3" rx="3.5"/>
                </g>
                <g transform="rotate(28 56.148 7.795)">
                    <use fill="#DBDC01" xlink:href="#g"/>
                    <rect width="7" height="14" x="52.648" y=".795" stroke="#BDBE04" stroke-opacity=".56" stroke-width="3" rx="3.5"/>
                </g>
                <path stroke="#DBDC01" stroke-width="5" d="M7.5 29.484s.324.357.933.96C13.717 35.67 40.467 59.382 63.5 29"/>
            </g>
            <g fill="#102445" stroke="#102445" stroke-linecap="round" stroke-linejoin="round" stroke-width="4">
                <path d="M75.578 92.266c0 .043-.012.083-.012.125 0 3.096 2.475 5.607 5.527 5.607 3.055 0 5.53-2.51 5.53-5.607 0-.042-.012-.082-.013-.125H75.578zM189.102 92.266c0 .043-.012.083-.012.125 0 3.096 2.475 5.607 5.529 5.607 3.053 0 5.529-2.51 5.529-5.607 0-.042-.013-.082-.014-.125h-11.032z"/>
            </g>
            <path stroke="#102445" stroke-linecap="round" stroke-linejoin="round" stroke-width="5.705" d="M132.166 122.869c-.239.735-2.786-.15-5.69-1.093-2.904-.944-5.064-2.304-4.825-3.039.003-.01.016-.016.02-.025"/>
            <g fill="#B1DBDE">
                <path d="M68.863 122.862c-3.135 0-5.698-2.606-5.698-5.792v-5.568c0-3.184 1.848-5.791 4.983-5.791l12.738 7.15 12.166-7.15c3.135 0 5.698 2.607 5.698 5.791v5.568c0 3.186-2.563 5.792-5.698 5.792H68.863zM182.287 122.862c-3.134 0-5.698-2.606-5.698-5.792v-5.568c0-3.184 1.849-5.791 4.983-5.791 0 0 9.181 7.15 13.702 7.15 3.542 0 11.917-7.15 11.917-7.15 3.135 0 4.984 2.607 4.984 5.791v5.568c0 3.186-2.564 5.792-5.699 5.792h-24.19z"/>
            </g>
            <g stroke="#005595" stroke-linecap="round" stroke-width="8">
                <path d="M176.637 80.013c-22.178-7.098-58.072-7.098-80.252 0"/>
                <path fill="#FAFAFA" fill-opacity=".519" d="M60.907 94.516c0-11.423 9.11-20.681 20.347-20.681 11.236 0 20.345 9.258 20.345 20.681 0 11.423-9.109 20.682-20.345 20.682-11.238 0-20.347-9.26-20.347-20.682zM174.674 94.516c0-11.423 9.11-20.681 20.347-20.681 11.236 0 20.345 9.258 20.345 20.681 0 11.423-9.109 20.682-20.345 20.682-11.237 0-20.347-9.26-20.347-20.682z"/>
            </g>
        </g>
        <g mask="url(#b)">
            <g transform="scale(-1 1) rotate(-27 307.668 316.083)">
                <rect width="16" height="67" x="21.701" y="16.504" fill="#D8D8D8" rx="8" transform="rotate(45 29.701 50.004)"/>
                <path fill="#005595" fill-rule="nonzero" d="M70.7 50a4.666 4.666 0 0 1-3.324-1.38l-4.195-4.204a1.21 1.21 0 0 1-.345-.988l.34-3.01a2.302 2.302 0 0 0-2.866-2.487l-4.767 1.252a1.203 1.203 0 0 1-1.154-.311l-15.046-14.98a1.21 1.21 0 0 1-.003-1.709l6.841-6.855c-1.747-3.011-5.852-7.261-15.089-7.261-.564 0-1.148.016-1.737.047-.548.002-.966-.234-1.194-.63-.112-.193-.332-.71.026-1.331C28.904 4.908 34.553.99 42.432.99c3.304 0 6.59.698 9.764 2.074 2.59 1.124 4.964 2.756 7.058 4.854l13.011 13.037c.26.26.386.624.345.989l-.422 3.72c-.075.66.126 1.297.567 1.793a2.292 2.292 0 0 0 1.975.757l3.713-.423c.365-.042.728.086.988.346l4.195 4.204a4.722 4.722 0 0 1 0 6.66l-9.604 9.623A4.671 4.671 0 0 1 70.7 50z"/>
                <mask id="i" fill="#fff">
                    <use xlink:href="#h"/>
                </mask>
                <use fill="#E8EBED" fill-opacity="0" xlink:href="#h"/>
                <path fill="#102445" fill-opacity=".399" d="M70.7 50a4.666 4.666 0 0 1-3.324-1.38l-4.195-4.204a1.21 1.21 0 0 1-.345-.988l.34-3.01a2.302 2.302 0 0 0-2.866-2.487l-4.767 1.252a1.203 1.203 0 0 1-1.154-.311l-15.046-14.98a1.21 1.21 0 0 1-.003-1.709l6.841-6.855c-1.747-3.011-5.852-7.261-15.089-7.261a32.218 32.218 0 0 0-1.814.05 1.27 1.27 0 0 1-1.117-.633c-.112-.193-.332-.71.026-1.331C28.904 4.908 34.553.99 42.432.99c3.304 0 6.59.698 9.764 2.074 2.59 1.124 4.964 2.756 7.058 4.854l13.011 13.037c.26.26.386.624.345.989l-.422 3.72c-.075.66.126 1.297.567 1.793.437.49 1.06.772 1.708.772.089 0 .178-.005.267-.015l3.713-.423c.365-.042.728.086.988.346l4.195 4.204a4.722 4.722 0 0 1 0 6.66l-9.604 9.623A4.671 4.671 0 0 1 70.7 50z" mask="url(#i)"/>
            </g>
        </g>
    </g>
</svg>
