<svg xmlns="http://www.w3.org/2000/svg" width="68" height="68" viewBox="0 0 68 68">
    <g fill="none" fill-rule="nonzero">
        <path fill="#ECB32D" d="M43.84 4.478a6.06 6.06 0 0 0-7.573-3.87 6.06 6.06 0 0 0-3.87 7.574l15.535 47.766c1.05 2.93 4.257 4.589 7.297 3.704 3.207-.94 5.142-4.312 4.091-7.408 0-.11-15.48-47.766-15.48-47.766z"/>
        <path fill="#63C1A0" d="M19.792 12.273a6.06 6.06 0 0 0-7.574-3.87 6.06 6.06 0 0 0-3.87 7.574l15.535 47.766c1.05 2.93 4.257 4.589 7.297 3.704 3.207-.94 5.142-4.312 4.092-7.408 0-.11-15.48-47.766-15.48-47.766z"/>
        <path fill="#E01A59" d="M63.411 44.007a6.06 6.06 0 0 0 3.87-7.574 6.06 6.06 0 0 0-7.574-3.87l-47.82 15.59c-2.93 1.05-4.59 4.257-3.705 7.297.94 3.207 4.312 5.142 7.408 4.091.11 0 47.821-15.534 47.821-15.534z"/>
        <path fill="#331433" d="M21.837 57.551c3.096-.995 7.132-2.322 11.444-3.704-.995-3.096-2.322-7.132-3.704-11.444l-11.444 3.704 3.704 11.444z"/>
        <path fill="#D62027" d="M45.941 49.7c4.313-1.381 8.348-2.708 11.444-3.703-.995-3.096-2.322-7.132-3.704-11.444l-11.444 3.704L45.941 49.7z"/>
        <path fill="#89D3DF" d="M55.561 19.958a6.06 6.06 0 0 0 3.87-7.574 6.06 6.06 0 0 0-7.574-3.87L4.09 24.049c-2.93 1.05-4.589 4.257-3.704 7.297.94 3.207 4.312 5.142 7.408 4.091.11 0 47.766-15.48 47.766-15.48z"/>
        <path fill="#258B74" d="M14.042 33.447c3.096-.995 7.132-2.322 11.444-3.704-1.382-4.312-2.709-8.348-3.704-11.444l-11.444 3.704 3.704 11.444z"/>
        <path fill="#819C3C" d="M38.091 25.652c4.312-1.382 8.348-2.709 11.444-3.704-1.382-4.312-2.709-8.348-3.704-11.444l-11.444 3.704 3.704 11.444z"/>
    </g>
</svg>
