<svg width="417" height="498" viewBox="0 0 417 498" xmlns="http://www.w3.org/2000/svg" xmlns:xlink="http://www.w3.org/1999/xlink"><title>CE1D1562-3C06-4EBA-A803-59C375FDD001</title><defs><path id="a" d="M0 0h520v498H0z"/><ellipse id="c" cx="135.296" cy="133.474" rx="135.296" ry="133.474"/><ellipse id="e" cx="135.296" cy="133.474" rx="135.296" ry="133.474"/><ellipse id="g" cx="135.296" cy="133.474" rx="135.296" ry="133.474"/><ellipse id="i" cx="135.296" cy="133.474" rx="135.296" ry="133.474"/><ellipse id="k" cx="135.296" cy="133.474" rx="135.296" ry="133.474"/><ellipse id="m" cx="135.296" cy="133.474" rx="135.296" ry="133.474"/></defs><g transform="translate(-100)" fill="none" fill-rule="evenodd"><mask id="b" fill="#fff"><use xlink:href="#a"/></mask><g mask="url(#b)"><g transform="translate(442.66 -187.955)"><mask id="d" fill="#fff"><use xlink:href="#c"/></mask><use fill="#29CEAF" xlink:href="#c"/><g mask="url(#d)" fill="#102445"><path d="M61.144 198.824c1.19-32.065 28.162-58.058 60.259-58.058h45.525c32.09 0 59.077 25.995 60.277 58.065l5.841 156.112h-15.269L63.3 354.46h-7.93l5.775-155.637z"/></g></g><g transform="translate(100 114.315)"><mask id="f" fill="#fff"><use xlink:href="#e"/></mask><use fill="#29CEAF" xlink:href="#e"/><g mask="url(#f)"><path d="M58.078 100.772l-10.387.181c-1.61.029-2.905 1.353-2.877 2.944l.249 14.257c.028 1.591 1.368 2.87 2.978 2.841l10.387-.181c1.61-.028 2.905-1.353 2.877-2.944l-.249-14.256c-.027-1.591-1.368-2.87-2.978-2.842" fill="#CFEBEC"/><path d="M45.8 216.053c3.65-42.25 40.982-76.5 83.39-76.5h19.837c42.406 0 79.73 34.25 83.365 76.486l2.01 23.342H218.03l1.999 26.488c3.192 42.284-28.596 76.562-71.003 76.562H129.19c-42.406 0-76.783-34.378-76.783-76.778v-27.662h-8.501l1.894-21.938z" fill="#102445"/><path fill="#CFEAEC" d="M113.947 136.546h46.897v25.26h-46.897z"/><path stroke="#FFF" stroke-width="1.279" fill="#FFF" d="M89.226 149.576l24.683-12.029 24.682 22.854-15.645 20.449zM188.032 148.574l-24.682-12.028-24.683 24.056 15.645 20.449"/><path d="M228.756 99.212l-10.387.182c-1.61.028-2.905 1.352-2.877 2.943l.249 14.257c.027 1.591 1.368 2.87 2.978 2.841l10.387-.181c1.61-.028 2.905-1.352 2.878-2.943l-.25-14.257c-.027-1.591-1.368-2.87-2.978-2.842" fill="#CFEBEC"/><path d="M213.297 148.705H65.845c-5.177 0-9.412-4.23-9.412-9.401V78.375c0-5.169 4.235-9.4 9.412-9.4h147.452c5.177 0 9.413 4.231 9.413 9.4v60.929c0 5.171-4.236 9.4-9.413 9.4" fill="#CFEBEC"/><path d="M135.058 130.815c.236 2.697 2.67 4.687 5.438 4.445 2.767-.242 4.818-2.624 4.582-5.322-.003-.037-.016-.07-.02-.107" stroke="#102445" stroke-width="4.5" stroke-linecap="round" stroke-linejoin="round"/><g transform="rotate(-5 746.199 -1470.956)" fill="#CFEAEC"><rect y="4.363" width="6.204" height="12.217" rx="3.102"/><rect x="4.431" width="6.204" height="17.453" rx="3.102"/><rect x="9.749" y="3.491" width="6.204" height="17.453" rx="3.102"/></g><g transform="rotate(-1 6130.21 -7361.7)"><rect fill="#102445" x=".099" y=".066" width="20.363" height="11.165" rx="5.583"/><ellipse fill="#203962" cx="4.241" cy="5.391" rx="2.071" ry="2.03"/><ellipse fill="#203962" cx="15.632" cy="5.391" rx="2.071" ry="2.03"/></g><path d="M85.51 134.6l-23.165.404c-3.002.052-5.485-1.581-5.521-3.63l-.063-3.582c-.035-2.049 2.39-3.768 5.392-3.82l23.165-.405c3.002-.053 5.486 1.581 5.522 3.63l.062 3.581c.036 2.05-2.39 3.77-5.391 3.821M215.859 134.256l-23.165.404c-3.002.052-5.486-1.581-5.522-3.63l-.063-3.582c-.035-2.049 2.39-3.768 5.392-3.82l23.165-.405c3.002-.052 5.487 1.582 5.523 3.63l.062 3.582c.036 2.05-2.39 3.768-5.392 3.82" fill="#B1DBDE"/><path d="M69.335 110.957c-.001-.03-.01-.058-.01-.087-.038-2.17 1.71-3.96 3.906-3.998 2.197-.039 4.007 1.69 4.045 3.86 0 .029-.007.057-.008.086l-7.933.139zM201.162 108.085c-.001-.027-.009-.052-.01-.078-.033-1.94 1.531-3.542 3.495-3.576 1.964-.034 3.583 1.511 3.617 3.452 0 .026-.006.051-.007.078l-7.095.124z" stroke="#102445" stroke-width="8.317" fill="#102445" stroke-linecap="round" stroke-linejoin="round"/><path d="M185.238 106.51c-25.484-25.18-66.727-25.18-92.212 0M53.752 108.336c0-10.635 8.725-19.255 19.489-19.255 10.762 0 19.487 8.62 19.487 19.255s-8.725 19.256-19.487 19.256c-10.764 0-19.489-8.62-19.489-19.256z" stroke="#FF2B2B" stroke-width="9" stroke-linecap="round"/><path d="M184.942 107.511c0-10.636 8.725-19.256 19.488-19.256s19.488 8.62 19.488 19.256c0 10.635-8.725 19.256-19.488 19.256s-19.488-8.621-19.488-19.256z" stroke="#FF2B2B" stroke-width="9" stroke-linecap="round"/></g></g><g transform="translate(100 416.585)"><mask id="h" fill="#fff"><use xlink:href="#g"/></mask><use fill="#29CEAF" xlink:href="#g"/><g mask="url(#h)"><g transform="translate(34.386 23.502)"><rect fill="#171717" x="89.504" y=".398" width="27.756" height="27.465" rx="13.732"/><g fill="#F2F7F9"><path d="M15.143 56.79H3.78a3.216 3.216 0 0 0-3.203 3.212V75.83c0 1.766 1.441 3.21 3.203 3.21h11.362a3.216 3.216 0 0 0 3.203-3.21V60.002a3.217 3.217 0 0 0-3.203-3.212M198.842 56.79h-11.363a3.217 3.217 0 0 0-3.202 3.212V75.83a3.216 3.216 0 0 0 3.202 3.21h11.363a3.216 3.216 0 0 0 3.202-3.21V60.002a3.217 3.217 0 0 0-3.202-3.212"/></g><path d="M20.935 119.526c-5.602 0-10.185-4.88-10.185-10.846V38.39c0-5.964 29.559-19.616 89.99-19.616 60.43 0 89.942 13.652 89.942 19.616v70.29c0 5.966-4.584 10.846-10.186 10.846H20.936z" fill="#EDFDFE"/><g stroke="#102445" stroke-width="6.916" fill="#42CBFF" stroke-linecap="round" fill-opacity=".4"><path d="M16.383 65.11c0-13.004 10.486-23.543 23.422-23.543 12.934 0 23.419 10.54 23.419 23.543s-10.485 23.543-23.42 23.543c-12.935 0-23.42-10.54-23.42-23.543zM141.543 65.11c0-13.004 10.487-23.543 23.421-23.543s23.42 10.54 23.42 23.543-10.486 23.543-23.42 23.543c-12.934 0-23.421-10.54-23.421-23.543z"/></g></g></g></g><g transform="translate(100 -187.955)"><mask id="j" fill="#fff"><use xlink:href="#i"/></mask><use fill="#29CEAF" xlink:href="#i"/><g mask="url(#j)"><path d="M55.113 199.889c1.162-25.839 23.061-46.785 48.938-46.785h68.066c25.865 0 47.784 20.943 48.955 46.774l5.893 129.932h-15.27l-154.478-.398h-7.93l5.826-129.523z" fill="#3C5F8D"/><path fill="#FFF" d="M85.025 187.615h102.612l3.508 141.997H81.517z"/></g></g><g transform="translate(442.66 114.429)"><mask id="l" fill="#fff"><use xlink:href="#k"/></mask><use fill="#29CEAF" xlink:href="#k"/><g mask="url(#l)"><path d="M58.142 223.944c1.674-32.044 29.038-58.02 61.124-58.02h45.54c32.089 0 59.47 25.972 61.158 58.015l4.957 94.078h-15.269l-154.479-.342h-7.929l4.898-93.731z" fill="#1DB598"/><path d="M57.745 103.37H46.383a3.216 3.216 0 0 0-3.203 3.212v15.828c0 1.767 1.441 3.211 3.203 3.211h11.362a3.216 3.216 0 0 0 3.203-3.21v-15.829a3.217 3.217 0 0 0-3.203-3.211" fill="#CFEAEC"/><path d="M60.704 166.106c-5.602 0-10.185-4.88-10.185-10.846V84.97c0-5.963.867-10.844 10.185-10.844h159.56c11.507 0 10.187 4.88 10.187 10.844v70.29c0 5.966-4.584 10.846-10.186 10.846H60.704z" fill="#CFEAEC"/><path d="M73.341 117.982c0-.049-.014-.094-.014-.142 0-3.524 2.849-6.382 6.363-6.382 3.516 0 6.364 2.858 6.364 6.382 0 .048-.013.093-.014.142H73.34z" stroke="#102445" stroke-width="3.946" fill="#102445" stroke-linecap="round" stroke-linejoin="round"/><path d="M64.654 141.425c-3.609 0-6.56-2.247-6.56-4.995v-4.802c0-2.746 2.128-4.994 5.737-4.994l14.662 6.165 14.004-6.165c3.608 0 6.559 2.248 6.559 4.994v4.802c0 2.748-2.95 4.995-6.559 4.995H64.654z" fill="#B1DBDE"/><path d="M111.578 97.136c-6.17 3.069 6.667 5.721 20.1-5.157.577-.467 1.994 4.37-3.467 7.384-10.435 5.76 57.128 1.267 74.747 3.014 30.39 3.015 20.929 17.212 26.908 7.352 4.612-7.605 5.167-33.033-6.406-41.358-11.869-8.538-36.215-13.638-82.11-13.638-47.13 0-70.876 5.277-82.814 14.462-11.02 8.48-11.976 25.224-11.976 33.182 0 14.276 71.935-10.692 76.085-16.26 4.15-5.568-6.843 8.918-11.067 11.019z" fill="#FF2B2B"/><path d="M55.302 111.69c0-13.003 10.486-23.543 23.421-23.543 12.934 0 23.42 10.54 23.42 23.543s-10.486 23.543-23.42 23.543c-12.935 0-23.421-10.54-23.421-23.543z" stroke="#FFF46A" stroke-width="6.916" stroke-linecap="round"/></g></g><g transform="translate(442.66 417.038)"><mask id="n" fill="#fff"><use xlink:href="#m"/></mask><use fill="#29CEAF" xlink:href="#m"/><g mask="url(#n)"><path d="M77.335 147.972c-4.362 0-7.93-4.88-7.93-10.845v-70.29c0-5.964.676-10.845 7.93-10.845h124.218c8.957 0 7.93 4.881 7.93 10.844v70.29c0 5.967-3.569 10.846-7.93 10.846H77.335z" fill="#CFEAEC"/><path d="M70.202 93.557c0-13.004 10.486-23.543 23.422-23.543 12.934 0 23.419 10.539 23.419 23.543 0 13.003-10.485 23.543-23.42 23.543-12.935 0-23.42-10.54-23.42-23.543z" stroke="#FF2B2B" stroke-width="6.916" stroke-linecap="round"/></g></g></g></g></svg>