<svg xmlns="http://www.w3.org/2000/svg" xmlns:xlink="http://www.w3.org/1999/xlink" width="1366" height="500" viewBox="0 0 1366 500">
    <defs>
        <rect id="a" width="408.466" height="131.234" rx="1.728"/>
        <path id="c" d="M0 113.6L17.575 0h255.637v113.6c0 6.186-54.722 11.2-122.226 11.2-67.504 0-115.037-3.2-122.227-11.2-7.19-8-28.759 0-28.759 0z"/>
    </defs>
    <g fill="none" fill-rule="evenodd">
        <path fill="#102445" d="M0 0h1366v500H0z"/>
        <g transform="translate(273 213)">
            <path fill="#3C5F8D" d="M148.062 13.798H2.876A2.884 2.884 0 0 0 0 16.676v168.446A2.878 2.878 0 0 0 2.876 188h433.248a2.884 2.884 0 0 0 2.876-2.878V16.676a2.878 2.878 0 0 0-2.876-2.878h-144.61V7.49c0-4.14-3.351-7.49-7.485-7.49H155.547a7.488 7.488 0 0 0-7.485 7.49v6.308z"/>
            <path fill="#102445" d="M146 11h148v3H146z"/>
            <rect width="398.466" height="131.234" x="22.707" y="36.063" fill="#102445" rx="1.728"/>
            <g transform="translate(16.707 36.063)">
                <mask id="b" fill="#fff">
                    <use xlink:href="#a"/>
                </mask>
                <path fill="#FFF" d="M356.64 47.21h-7.93V20.479l-17.039-2.056v28.789h-24.823l38.042-62.865h-19.388l-39.657 64.48v15.276h45.826v22.766h17.038V64.102h7.932V47.21zm-1.321 123.48c0-20.122-12.191-34.663-33.636-34.663-4.7 0-9.694.881-14.1 4.113v-18.654h40.686v-17.332h-57.284v55.08h15.423c4.26-4.553 8.078-6.61 14.394-6.61 11.163 0 16.597 8.373 16.597 18.067 0 9.987-5.287 18.947-16.744 18.947-8.372 0-13.072-5.875-15.57-13.366l-16.89 5.435c4.994 15.569 15.569 25.557 32.46 25.557 22.62 0 34.664-15.129 34.664-36.573z" mask="url(#b)"/>
            </g>
            <path fill="#FFF" d="M189.434 114.568h-7.931V87.836l-17.038-2.056v28.788h-24.823l38.042-62.864h-19.388l-39.658 64.48v15.276h45.827v22.766h17.038V131.46h7.931v-16.892zm94.306-11.897c0 23.648-9.107 52.73-37.014 52.73-28.2 0-37.454-28.935-37.454-52.436 0-23.648 9.253-52.583 37.454-52.583 27.907 0 37.014 28.641 37.014 52.289zm-18.507.294c0-11.897-2.203-34.81-18.507-34.81-16.744 0-18.947 22.766-18.947 34.81 0 11.897 2.203 34.81 18.947 34.81 16.598 0 18.507-22.913 18.507-34.81z"/>
            <text fill="#FFF" font-family="AauxNext-Bold, Aaux Next" font-size="17.28" font-weight="bold">
                <tspan x="392.487" y="151.382">am</tspan>
            </text>
            <path stroke="#3C5F8D" stroke-width="1.728" d="M108.022 27.021V184.56M382.253 27.021V184.56M199.048 27.021V184.56M293.188 27.021V184.56"/>
        </g>
        <path fill="#CFEAEC" d="M172 443.99c0-23.742 19.248-42.99 42.995-42.99h957.01c23.745 0 42.995 19.25 42.995 42.99V500H172v-56.01z"/>
        <path fill="#B1DBDE" d="M214 441h954v59H214z"/>
        <g fill="#FFF" transform="translate(853 170)">
            <ellipse cx="4.5" cy="4.5" rx="4.5" ry="4.5"/>
            <ellipse cx="4.5" cy="12.808" rx="4.5" ry="4.5"/>
            <ellipse cx="4.5" cy="21.115" rx="4.5" ry="4.5"/>
            <ellipse cx="4.5" cy="29.423" rx="4.5" ry="4.5"/>
            <circle cx="4.5" cy="37.731" r="4.5"/>
            <circle cx="4.5" cy="46.038" r="4.5"/>
            <circle cx="4.5" cy="54.346" r="4.5"/>
        </g>
        <path fill="#2A4871" d="M828 165h12v235h-12z"/>
        <path fill="#2A4871" d="M787 384h95v16h-95z"/>
        <path fill="#3C5F8D" d="M677.807 0h311.617l6.11 167.003a4.786 4.786 0 0 1-4.812 4.997H676.509a4.782 4.782 0 0 1-4.812-4.997L677.807 0z"/>
        <g transform="translate(797 217)">
            <path fill="#B1DBDE" d="M150.586 185C255.866 185 282 128.814 282 110.526c0-18.287-262.827-20.023-262.827 0S45.306 185 150.586 185z"/>
            <mask id="d" fill="#fff">
                <use xlink:href="#c"/>
            </mask>
            <ellipse cx="150.986" cy="113.6" fill="#FAFAFA" mask="url(#d)" rx="122.227" ry="11.2"/>
            <path fill="#0CA386" d="M21.149 72.162c-1.091-.09-1.816.718-1.579 1.807 0 0 8.155 56.834 94.292 66.218 86.137 9.383 121.446 1.018 121.446 1.018 1.08-.217 1.09-.637.04-.937 0 0-67.727-18.848-103.77-40.743C95.535 77.63 21.15 72.162 21.15 72.162z" mask="url(#d)"/>
            <path fill="#EE7200" d="M76.897 100.306c-7.26-5.038-8.548-14.602-2.855-21.387l1.873-2.232c5.683-6.773 15.336-7.176 21.557-.902l44.78 45.16c6.223 6.275 6.668 16.842.978 23.624l9.351-11.145c-5.682 6.773-16.176 8.177-23.435 3.14l-52.25-36.258zM199.062 136.936c-5.502 4.011-6.418 11.486-2.034 16.71l.856 1.02c4.378 5.218 11.988 5.72 17.007 1.114l54.791-50.296c3.577-3.283 3.9-8.935.73-12.616l1.54 1.788c-3.174-3.685-8.937-4.345-12.862-1.484l-60.028 43.764z" mask="url(#d)"/>
            <path fill="#1DB598" d="M226.999 118.58c.996.45 1.248 1.51.533 2.354 0 0-34.29 45.83-101.009 18.144-66.719-27.685-87.721-49.39-87.721-49.39-.803-.758-.57-1.197.516-.986 0 0 57.877 11.773 94.779 7.797 36.902-3.977 92.902 22.08 92.902 22.08z" mask="url(#d)"/>
            <path fill="#1DB598" d="M66.648 143.394s35.56 47.37 102.28 19.684c66.718-27.685 89.174-50.762 89.174-50.762s-59.846 12.16-96.748 8.183c-36.902-3.977-94.706 22.895-94.706 22.895z" mask="url(#d)"/>
            <path fill="#29C8AA" d="M238.865 65.877c.887-.637 1.932-.325 2.305.716 0 0 22.545 52.61-34.79 96.548-57.336 43.938-86.635 51.274-86.635 51.274-1.057.316-1.322-.105-.596-.94 0 0 39.135-44.236 54.142-78.183 15.007-33.946 65.574-69.415 65.574-69.415z" mask="url(#d)"/>
        </g>
        <g transform="translate(1186)">
            <path fill="#030F21" d="M0 0h180v268H0z"/>
            <path fill="#FFF5B5" stroke="#FFF5B5" stroke-linecap="round" stroke-linejoin="round" stroke-width="6" d="M69.305 29.273c-7.056 5.018-10.201 14.3-7.096 22.832C65.937 62.348 77.263 67.629 87.506 63.9a19.648 19.648 0 0 0 8.076-5.514 19.757 19.757 0 0 1-4.7 2.465C80.639 64.58 69.312 59.3 65.585 49.056c-2.554-7.016-.88-14.54 3.72-19.783z"/>
            <circle cx="44.5" cy="94.5" r="2.5" fill="#FFF5B5"/>
            <circle cx="156.5" cy="27.5" r="1.5" fill="#FFF5B5"/>
            <circle cx="29" cy="35" r="4" fill="#FFF5B5"/>
        </g>
    </g>
</svg>
