<svg xmlns="http://www.w3.org/2000/svg" xmlns:xlink="http://www.w3.org/1999/xlink" width="324" height="442" viewBox="0 0 324 442">
    <defs>
        <path id="a" d="M0 0h480v500H0z"/>
    </defs>
    <g fill="none" fill-rule="evenodd" transform="translate(-11 -58)">
        <mask id="b" fill="#fff">
            <use xlink:href="#a"/>
        </mask>
        <g mask="url(#b)">
            <path fill="#3C5F8D" d="M122.146 89.996a7.062 7.062 0 0 1 8.574-5.288l.912.222c3.844.935 6.53 4.879 6.027 8.808 0 0-5.207 36.405-5.28 70.32-.073 33.915 2.521 54.097 2.521 54.097.82 8.421-5.37 15.368-13.845 15.516l3.77-.066c-8.465.148-15.734-6.571-15.97-15.045 0 0-1.577-8.38 1.95-53.11 3.529-44.728 11.34-75.454 11.34-75.454zM184.72 100.401c1.82-3.507 6.151-4.879 9.671-3.066l.793.408c3.522 1.813 5.176 6.263 3.72 9.95 0 0-13.538 32.808-21.585 64.708s-10.204 51.067-10.204 51.067c-1.225 8.373-8.898 13.618-17.156 11.712l3.674.848c-8.25-1.905-13.681-10.187-11.857-18.45 0 0 .338-7.832 14.281-49.075 13.943-41.242 28.664-68.102 28.664-68.102z"/>
            <path fill="#A2D5D8" d="M183.513 230.84c2.84-26.077-15.911-50.176-41.888-53.827l1.658.233c-25.975-3.65-50.643 14.334-55.102 40.196L8.858 677.531c-5.74 33.29 16.722 64.088 50.189 68.791l6.692.941c33.458 4.702 63.549-18.721 67.207-52.293l50.567-464.13z"/>
            <g>
                <path fill="#EDFDFE" d="M120.362 230.74c-5.77-25.589 10.094-51.837 35.421-58.624l20.339-5.45c25.332-6.787 52.185 8.002 59.988 33.06L364.578 612.31c12.49 40.11-10.272 81.436-50.861 92.312l-8.117 2.175c-40.58 10.873-80.964-13.533-90.203-54.514l-95.035-421.541z"/>
                <path fill="#DEF3F4" d="M119.14 227.965c-3.237-15.12 3.9-35.255 15.928-44.963l14.864-11.994c6.879-5.552 14.051-3.067 16.019 5.545L282.6 687.158c5.1 22.317-8.68 45.208-30.796 51.134l17.91-4.8c-22.107 5.924-43.914-7.42-48.707-29.8L119.141 227.964z"/>
                <path fill="#223D61" d="M155.229 61.507a6.994 6.994 0 0 0-9.968-1.152l-3.057 2.472c-3.077 2.49-3.85 7.206-1.735 10.561 0 0 25.241 38.988 42.8 76.471 17.557 37.483 26.31 64.3 26.31 64.3 2.813 7.975 11.353 11.653 19.09 8.208l1.355-.603c7.73-3.442 11.49-12.607 8.174-20.4 0 0-3.985-13.165-30.856-60.866-26.872-47.7-52.113-78.99-52.113-78.99zM121.798 74.858a7.1 7.1 0 0 0-10.041-.98l-3.004 2.486c-3.049 2.524-3.74 7.237-1.564 10.536 0 0 25.355 37.39 43.138 73.645 17.782 36.255 26.58 61.948 26.58 61.948 2.938 7.93 11.53 11.461 19.206 7.882l1.343-.626c7.67-3.577 11.266-12.825 7.817-20.544 0 0-3.915-12.449-31.053-58.467-27.137-46.017-52.422-75.88-52.422-75.88z"/>
            </g>
        </g>
        <g fill="#FFF" mask="url(#b)" opacity=".197">
            <g transform="translate(10 187)">
                <rect width="8" height="50" x="39" y="-5" rx="4" transform="rotate(-47 43 20)"/>
                <rect width="8" height="50" x="24" y="90" rx="4" transform="scale(1 -1) rotate(-47 -236.482 0)"/>
                <rect width="8" height="35" x="14.376" y="48.798" rx="4" transform="rotate(-83 18.376 66.298)"/>
            </g>
        </g>
    </g>
</svg>
