<?xml version="1.0" encoding="utf-8" ?>
<svg baseProfile="tiny" height="100%" version="1.2" width="100%" xmlns="http://www.w3.org/2000/svg" xmlns:ev="http://www.w3.org/2001/xml-events" xmlns:xlink="http://www.w3.org/1999/xlink"><defs /><polyline fill="#2a4871" points="160.0,210.0 244.80480961564263,262.9919264233205 220.6126200556759,360.0214990509201 120.85621502969346,366.99714642533274 83.39555568810223,274.27876096865396 160.0,210.0" stroke="#102445" stroke-width="10" /><polyline fill="#2a4871" points="160.0,210.0 142.63518223330692,111.51922469877921 48.66592015471607,77.31721036621238 -27.938524157181767,141.59597133486648 -10.573706390488669,240.0767466360872 83.39555568810223,274.27876096865396 160.0,210.0" stroke="#102445" stroke-width="10" /><polyline fill="#2a4871" points="142.63518223330692,111.51922469877921 219.23962654520471,47.24046373012527" stroke="#102445" stroke-width="10" /><polyline fill="#2a4871" points="244.80480961564263,262.9919264233205 220.6126200556759,360.0214990509201" stroke="#102445" stroke-width="10" /><polyline fill="#2a4871" points="219.350847700131,282.41088166822703 207.25475292014767,330.9256679820268" stroke="#102445" stroke-width="10" /><polyline fill="#2a4871" points="160.0,210.0 83.39555568810223,274.27876096865396" stroke="#102445" stroke-width="10" /><polyline fill="#2a4871" points="127.99313672829477,210.74880137978394 89.69091457234587,242.88818186411092" stroke="#102445" stroke-width="10" /><polyline fill="#2a4871" points="48.66592015471607,77.31721036621238 142.63518223330692,111.51922469877921" stroke="#102445" stroke-width="10" /><polyline fill="#2a4871" points="65.31783280785041,104.66156636507226 112.30246384714584,121.76257353135568" stroke="#102445" stroke-width="10" /><polyline fill="#2a4871" points="-10.573706390488669,240.0767466360872 -27.938524157181767,141.59597133486648" stroke="#102445" stroke-width="10" /><polyline fill="#2a4871" points="4.7812442280821985,211.98358925744336 -3.90116465526435,162.74320160683305" stroke="#102445" stroke-width="10" /><circle cx="244.80480961564263" cy="262.9919264233205" fill="#2a4871" r="25.0" stroke="#1db598" stroke-width="10" /><circle cx="120.85621502969346" cy="366.99714642533274" fill="#2a4871" r="25.0" stroke="#1db598" stroke-width="10" /><circle cx="48.66592015471607" cy="77.31721036621238" fill="#2a4871" r="25.0" stroke="#1db598" stroke-width="10" /><circle cx="219.23962654520471" cy="47.24046373012527" fill="#2a4871" r="25.0" stroke="#1db598" stroke-width="10" /><circle cx="-10.573706390488669" cy="240.0767466360872" fill="#2a4871" r="25.0" stroke="#1db598" stroke-width="10" /><circle cx="104.95863710269731" cy="392.4385893100255" fill="#2a4871" r="10.0" stroke="#fbfcfd" stroke-width="10" /><circle cx="214.03018121519673" cy="17.696231139759043" fill="#2a4871" r="10.0" stroke="#fbfcfd" stroke-width="10" /><circle cx="247.43040516878193" cy="57.50106802989534" fill="#2a4871" r="10.0" stroke="#fbfcfd" stroke-width="10" /></svg>