<svg xmlns="http://www.w3.org/2000/svg" width="79" height="79" viewBox="0 0 79 79">
    <g fill="none" fill-rule="evenodd">
        <path stroke="#3C5F8D" stroke-linecap="round" stroke-linejoin="round" stroke-width="4" d="M64.27 25.311H54.199a1.866 1.866 0 0 1-1.86-1.873V2.971a1.866 1.866 0 0 0-1.86-1.873H28.003c-1.027 0-1.86.839-1.86 1.873v20.467a1.866 1.866 0 0 1-1.86 1.873H3.958c-1.027 0-1.86.838-1.86 1.873v22.632c0 1.034.833 1.873 1.86 1.873h20.325c1.027 0 1.86.839 1.86 1.873v20.467c0 1.034.833 1.873 1.86 1.873h22.475c1.028 0 1.86-.839 1.86-1.873V53.562c0-1.034.833-1.873 1.86-1.873h20.326c1.027 0 1.86-.839 1.86-1.873v-11.91"/>
        <path fill="#1DB598" d="M68.76 27.965a5 5 0 1 1 10 0 5 5 0 0 1-10 0"/>
    </g>
</svg>
