<svg xmlns="http://www.w3.org/2000/svg" width="72" height="70" viewBox="0 0 72 70">
    <path fill="#151513" fill-rule="evenodd" d="M35.767 0C16.017 0 0 16.015 0 35.771c0 15.804 10.248 29.21 24.462 33.94 1.79.33 2.442-.775 2.442-1.723 0-.848-.03-3.099-.048-6.083-9.95 2.16-12.049-4.796-12.049-4.796-1.627-4.133-3.972-5.233-3.972-5.233-3.248-2.218.246-2.174.246-2.174 3.59.253 5.478 3.687 5.478 3.687 3.191 5.466 8.373 3.887 10.411 2.971.325-2.31 1.25-3.886 2.27-4.78-7.942-.903-16.293-3.973-16.293-17.68 0-3.904 1.395-7.099 3.683-9.598-.37-.905-1.597-4.543.351-9.466 0 0 3.002-.962 9.835 3.667 2.853-.795 5.914-1.19 8.955-1.206 3.04.016 6.098.41 8.955 1.206 6.83-4.63 9.827-3.667 9.827-3.667 1.952 4.923.725 8.561.358 9.466 2.293 2.5 3.676 5.694 3.676 9.599 0 13.742-8.364 16.765-16.331 17.65 1.282 1.105 2.426 3.288 2.426 6.625 0 4.78-.043 8.64-.043 9.812 0 .957.645 2.07 2.459 1.721 14.203-4.74 24.443-18.138 24.443-33.938C71.54 16.015 55.524 0 35.767 0"/>
</svg>
