<?xml version="1.0" encoding="utf-8"?>
<!-- Generator: Adobe Illustrator 19.2.1, SVG Export Plug-In . SVG Version: 6.00 Build 0)  -->
<svg version="1.1" id="Layer_1" xmlns="http://www.w3.org/2000/svg" xmlns:xlink="http://www.w3.org/1999/xlink" x="0px" y="0px"
	 viewBox="0 0 212.4 317.2" style="enable-background:new 0 0 212.4 317.2;" xml:space="preserve">
<style type="text/css">
	.st0{fill:#0F2445;}
	.st1{fill:#052944;}
	.st2{fill:#EE3533;}
	.st3{fill:#FFFFFF;}
	.st4{fill:#A3A3A2;}
	.st5{fill:#7FB7BF;}
	.st6{fill:#C9DCE0;}
	.st7{fill:#EF3732;}
	.st8{fill:#0F234A;stroke:#FFFFFF;stroke-width:0.96;stroke-miterlimit:10;}
	.st9{fill:#A9CDD4;}
	.st10{fill:none;stroke:#0F234A;stroke-width:4;stroke-linecap:round;stroke-linejoin:round;}
	.st11{fill:#0F234A;}
	.st12{fill:#273C65;}
	.st13{fill:#0F234A;stroke:#0F234A;stroke-width:2.74;stroke-linecap:round;stroke-linejoin:round;}
	.st14{fill:none;stroke:#EF3732;stroke-width:8;stroke-linecap:round;stroke-miterlimit:10;}
	.st15{fill:#F2F7F9;}
	.st16{fill:#A3D4DB;}
	.st17{fill:none;}
</style>
<path class="st0" d="M190.4,219.5c-19.7,26.3-49.5,43-83,43c-40,0-74.9-27.6-93.4-63.1"/>
<path class="st0" d="M194.6,128.1c-9.9-16.8-23.3-31.7-38.5-42.6C144,78.3,130,73.6,114.9,72.3C61.5,67.6,14.3,107.2,9.6,160.6
	c-1.2,13.5,0.5,26.6,4.5,38.8c18.5,35.5,53.4,63.1,93.4,63.1c33.4,0,63.2-16.8,83-43c6.9-11.7,11.4-25.2,12.7-39.9
	C203.1,179.6,201.6,143.1,194.6,128.1z"/>
<title>le-2</title>
<path class="st0" d="M23.4,219.7"/>
<path class="st0" d="M65.5,257.7"/>
<path class="st0" d="M65.5,256.7"/>
<path class="st0" d="M197.6,206.1c-3.1,6.1-6.3,12.3-6.6,12.7c-19.7,26.7-49.8,43.7-83.5,43.7c-36.3,0-68.4-22.7-87.8-53.5"/>
<path class="st0" d="M107.7,71.9c-53.7,0-97.2,41.5-97.2,95.2c0,0,3.3,25.3,9.2,41.9c19.5,30.7,51.5,53.5,87.8,53.5
	c33.7,0,63.8-17.1,83.5-43.7c0.3-0.4,3.5-6.6,6.6-12.7c4.7-11.4,7.3-23.9,7.3-37C204.8,115.5,161.3,72,107.7,71.9z"/>
<rect x="42.1" y="37.4" class="st1" width="1.3" height="19.1"/>
<path class="st1" d="M42.7,53.3c-1.7,0-3.1,2-3.1,4.5h6.3C45.9,55.3,44.4,53.3,42.7,53.3z"/>
<polygon class="st2" points="42.1,37.4 42.1,47 55.9,47 52.5,42.2 55.9,37.4 "/>
<rect x="20.1" y="79.3" class="st3" width="45.3" height="40"/>
<rect x="23.4" y="82.2" class="st1" width="9.4" height="33.5"/>
<rect x="38" y="82.2" class="st1" width="9.4" height="33.5"/>
<rect x="52.5" y="82.2" class="st1" width="9.4" height="33.5"/>
<path class="st3" d="M71.4,254.9l-5.7-133.4H19.8l-3.5,82.1C29.1,226,48.4,244.9,71.4,254.9z"/>
<path class="st2" d="M38.8,232.7l31-10.7l-1.3-30.3l-49.1,17C24.9,217.4,31.4,225.5,38.8,232.7z"/>
<rect x="12.5" y="113.5" class="st4" width="60.5" height="11.7"/>
<rect x="12.5" y="100.9" class="st4" width="60.5" height="4.7"/>
<rect x="12.5" y="101.3" class="st4" width="2.6" height="17.5"/>
<rect x="70.3" y="101.3" class="st4" width="2.6" height="17.5"/>
<rect x="55.9" y="101.3" class="st4" width="2.6" height="17.5"/>
<rect x="41.4" y="101.3" class="st4" width="2.6" height="17.5"/>
<rect x="27" y="101.3" class="st4" width="2.6" height="17.5"/>
<path class="st2" d="M42.7,56.6C30.2,56.6,20,66.8,20,79.3h45.5C65.5,66.8,55.3,56.6,42.7,56.6z"/>
<polygon class="st2" points="65.7,124 19.1,140.1 17.8,171.3 67,154.3 "/>
<path class="st3" d="M31.9,101.1h25.9c1.3,0,2.4-1.1,2.4-2.4v-2.4c0-1.3-1.1-2.4-2.4-2.4H31.9c-1.3,0-2.4,1.1-2.4,2.4v2.4
	C29.5,100.1,30.6,101.1,31.9,101.1z"/>
<path class="st5" d="M133,138.7h24c0.4,0,0.8-0.4,0.8-0.8v-8.8c0-0.4-0.4-0.8-0.8-0.8h-24c-0.4,0-0.8,0.4-0.8,0.8v8.8
	C132.2,138.4,132.6,138.7,133,138.7z"/>
<path class="st5" d="M133,172.3h24c0.4,0,0.8-0.4,0.8-0.8v-8.8c0-0.4-0.4-0.8-0.8-0.8h-24c-0.4,0-0.8,0.4-0.8,0.8v8.8
	C132.2,172,132.6,172.3,133,172.3z"/>
<path class="st3" d="M67.4,161.1H61c-0.4,0-0.8,0.4-0.8,0.8h8C68.2,161.5,67.9,161.1,67.4,161.1z"/>
<path class="st3" d="M175,236.3c0-0.7-0.1-1.5-0.1-2.2l-1.7-23h12.7l-1.8-20.6c-2.7-31.7-30.7-57.4-62.5-57.4h-19.4
	c-31.8,0-59.8,25.7-62.6,57.4l-1.7,19.5h6.6v24c0,1.4,0.1,2.8,0.2,4.2c17.7,15,39.3,24.5,62.8,24.5
	C133.1,262.6,156.6,252.7,175,236.3z"/>
<path class="st6" d="M161.8,211.7l0.7,34.2c7.9-5.2,15.1-11.4,21.5-18.5l1-15.7H161.8z"/>
<polygon class="st0" points="185.9,210.5 161.8,210.3 161.8,213.8 184.4,213.8 "/>
<path class="st6" d="M64.5,211.9H39.6l1.3,22.8c6.8,6.3,14.3,11.8,22.4,16.2L64.5,211.9z"/>
<polygon class="st0" points="64.4,213.3 64.4,209.9 38,209.9 40.4,213.3 "/>
<path class="st7" d="M128.7,195.8c-0.1-1.3-0.3-2.5-0.7-3.8l-19.9-62.3c-0.3-1-1.4-1.6-2.4-1.3h-0.1c-1,0.3-1.7,1.3-1.4,2.4
	l13.9,63.9c0.3,1.2,0.8,2.4,1.4,3.5l4,6.6c0.7,1.2,2.1,1.8,3.5,1.5c1.3-0.4,2.2-1.6,2.2-3L128.7,195.8z"/>
<rect x="92.6" y="131.6" class="st6" width="36.4" height="20.2"/>
<polygon class="st8" points="111.7,151 92.6,132.7 73.4,142.3 99.6,167.3 "/>
<polygon class="st8" points="150.1,141.4 130.9,131.8 111.7,151 123.9,167.3 "/>
<path class="st9" d="M125.8,134.6H98c-10.5,0-20.9,3.1-28.6,9.6h85C146,137.3,136.2,134.6,125.8,134.6z"/>
<ellipse class="st7" cx="111.7" cy="157.1" rx="5.8" ry="5.8"/>
<path class="st6" d="M176.9,61.2H44.6c-4.2,0-7.7,3.4-7.7,7.7v63.4c0,4.2,3.4,7.7,7.7,7.7h132.2c4.2,0,7.7-3.4,7.7-7.7V68.8
	C184.6,64.6,181.1,61.2,176.9,61.2z"/>
<path class="st10" d="M107.4,118c0,2.5,2,4.5,4.5,4.5s4.5-2,4.5-4.5l0,0c0,0,0-0.1,0-0.1"/>
<path class="st11" d="M118.6,94.6h-14.4c-2.2,0-4,1.8-4,4v0.8c0,2.2,1.8,4,4,4h14.4c2.2,0,4-1.8,4-4v-0.8
	C122.6,96.4,120.8,94.6,118.6,94.6z"/>
<circle class="st12" cx="107.4" cy="99.4" r="1.6"/>
<circle class="st12" cx="116.2" cy="99.4" r="1.6"/>
<path class="st6" d="M29.8,105.3h9.5c1.5,0,2.7-1.2,2.7-2.7V89.2c0-1.5-1.2-2.7-2.7-2.7h-9.5c-1.5,0-2.7,1.2-2.7,2.7v13.4
	C27.1,104.1,28.3,105.3,29.8,105.3z"/>
<path class="st6" d="M182.9,105.3h9.5c1.5,0,2.7-1.2,2.7-2.7V89.2c0-1.5-1.2-2.7-2.7-2.7h-9.5c-1.5,0-2.7,1.2-2.7,2.7v13.4
	C180.2,104.1,181.4,105.3,182.9,105.3z"/>
<path class="st13" d="M56.9,104.3c2.9,0,5.3-2.4,5.3-5.3c0,0,0-0.1,0-0.1H51.6c0,0,0,0.1,0,0.1C51.6,101.9,54,104.3,56.9,104.3z"/>
<path class="st13" d="M166.7,104.3c2.9,0,5.3-2.4,5.3-5.3c0,0,0-0.1,0-0.1h-10.6c0,0,0,0.1,0,0.1
	C161.4,101.9,163.7,104.3,166.7,104.3z"/>
<path class="st9" d="M45.2,123h23.2c3,0,5.5-1.8,5.5-4V115c0-2.2-2.5-4-5.5-4l-11.7,5l-12.2-5c-3,0-4.8,1.8-4.8,4v3.9
	C39.7,121.2,42.2,123,45.2,123z"/>
<path class="st9" d="M153.9,123h23.2c3,0,5.5-1.8,5.5-4V115c0-2.2-1.8-4-4.8-4c0,0-8,5-11.4,5c-4.3,0-13.1-5-13.1-5
	c-3,0-4.8,1.8-4.8,4v3.9C148.4,121.2,150.9,123,153.9,123z"/>
<path class="st14" d="M59,117.3c10.8,0,19.6-8.8,19.6-19.6c0-11-8.8-19.1-19.6-19.1s-19.6,8.1-19.6,19.1c0,0,0,0,0,0
	C39.4,108.6,48.2,117.3,59,117.3z"/>
<path class="st14" d="M164.6,117.3c10.8,0,19.6-8.8,19.6-19.6c0-11-8.8-19.1-19.6-19.1S145,86.8,145,97.8c0,0,0,0,0,0
	C145,108.6,153.8,117.3,164.6,117.3z"/>
<path class="st14" d="M145.4,95.9c-18.5-21.7-48.4-21.7-66.9,0"/>
<path class="st7" d="M89.5,205.6l0.8,0.3c1,0.4,2.2,0.1,2.9-0.8l4.6-6.5c0.7-1.1,1.3-2.2,1.8-3.4l13.3-36c-0.5,0.2-1,0.3-1.5,0.3
	c-2,0.1-3.8-1.2-4.5-3.1L90,191.4c-0.5,1.2-0.9,2.4-1.1,3.6l-1,8C87.9,204.1,88.5,205.2,89.5,205.6z"/>
<path class="st0" d="M117.4,75.5c9.2-2.4,16.5-9.6,18.9-18.9h-51C88.9,70.8,103.3,79.2,117.4,75.5z"/>
<path class="st15" d="M109.4,29.7C91.5,32.8,92.8,49,84,53.5c0,14.5,11.6,5,26,5c14.4,0,28.2,10,28.2-4.5
	C129.1,47.2,124,32,109.4,29.7z"/>
<circle class="st16" cx="108" cy="42.5" r="0.9"/>
<circle class="st16" cx="113.5" cy="42.5" r="0.9"/>
<rect x="108.5" y="42" class="st16" width="4.6" height="1"/>
<path class="st16" d="M110.8,38.2c-0.8,0-1.4,0.6-1.4,1.4c0,0.8,0.6,1.4,1.4,1.4c0.8,0,1.4-0.6,1.4-1.4
	C112.2,38.9,111.5,38.2,110.8,38.2z M110.8,40.4c-0.4,0-0.7-0.3-0.7-0.7s0.3-0.7,0.7-0.7s0.7,0.3,0.7,0.7S111.2,40.4,110.8,40.4z"/>
<path class="st16" d="M115.8,46.5C115.7,46.5,115.7,46.5,115.8,46.5l-1.6,1c-0.1,0-0.1,0.1-0.1,0.1c0,0,0,0.1,0.1,0.1l0.6,0.2
	c-0.2,0.6-0.9,2.2-2.2,1.8c-0.7-0.2-1.2-0.9-1.2-1.6v-7.4h-1.2v7.4c0,0.7-0.5,1.4-1.2,1.6c-1.3,0.3-2-1.3-2.2-1.8l0.6-0.2
	c0.1,0,0.1-0.1,0.1-0.1c0,0,0-0.1-0.1-0.1l-1.5-1c-0.1-0.1-0.2,0-0.2,0c0,0,0,0.1,0,0.1l-0.3,1.7c0,0.1,0,0.1,0.1,0.2
	c0,0,0.1,0,0.1,0l0.6-0.2c0.4,1.6,1.7,2.7,3.3,3c0.5,0.1,1,0.3,1.4,0.5c0.4-0.3,0.9-0.5,1.4-0.5c1.6-0.3,2.9-1.4,3.3-3l0.6,0.2
	c0,0.1,0.1,0.1,0.2,0c0,0,0-0.1,0-0.1l-0.3-1.7C115.9,46.5,115.8,46.5,115.8,46.5z"/>
<path class="st1" d="M108,50.8c-0.2-0.1-0.4-0.2-0.6-0.4c-0.2,0.5-0.2,1.1,0,1.7c0.1,0.1,0.3,0.2,0.5,0.1s0.2-0.3,0.1-0.4
	C107.8,51.4,107.8,51.1,108,50.8z"/>
<path class="st1" d="M111.4,43.7c0,0.2,0,0.5,0,0.8c0.6,0.2,1,0.7,1.2,1.3c-0.2,0.6-0.6,1-1.2,1.3v0.8c1-0.7,1.8-1.3,1.8-2.1
	C113.2,44.9,112.3,44.2,111.4,43.7z"/>
<path class="st1" d="M108.5,49.8c0.5-0.5,1-0.9,1.6-1.2c0-0.1,0.1-0.3,0.1-0.4v-0.4c-0.8,0.5-1.6,1.1-2.3,1.8
	C108.1,49.7,108.3,49.8,108.5,49.8z"/>
<path class="st1" d="M110.6,39.7c-0.9,0.4-1.6,1.2-1.7,2.2c0,0.9,0.4,1.8,1.2,2.3v-0.8c-0.4-0.4-0.6-1-0.6-1.5
	c0.1-0.7,0.6-1.3,1.3-1.6c0.2-0.1,0.2-0.3,0.2-0.4C111,39.7,110.8,39.6,110.6,39.7z"/>
<path class="st17" d="M179,239.6c-2.5,2.8-5.1,5.5-7.8,8.1"/>
<path class="st17" d="M139,231.7v16h20.6c7-4.3,13.5-9.4,19.4-15.2v-0.8H139z"/>
<path class="st17" d="M159.6,247.7h11.5c2.7-2.5,5.3-5.2,7.8-8.1v-7.1C173.1,238.4,166.6,243.5,159.6,247.7z"/>
</svg>
