<svg id="Layer_1" data-name="Layer 1" xmlns="http://www.w3.org/2000/svg" viewBox="0 0 195.6 232.88"><defs><style>.cls-1{fill:#0f2445;}.cls-2{fill:#052944;}.cls-3{fill:#ee3533;}.cls-4{fill:#fff;}.cls-5{fill:#a3a3a2;}.cls-6{fill:#7fb7bf;}.cls-7{fill:#c9dce0;}.cls-8{fill:#ef3732;}.cls-12,.cls-14,.cls-9{fill:#0f234a;}.cls-9{stroke:#fff;stroke-width:0.96px;}.cls-15,.cls-9{stroke-miterlimit:10;}.cls-10{fill:#a9cdd4;}.cls-11,.cls-15,.cls-17{fill:none;}.cls-11,.cls-14{stroke:#0f234a;stroke-linejoin:round;}.cls-11,.cls-14,.cls-15{stroke-linecap:round;}.cls-11{stroke-width:4px;}.cls-13{fill:#273c65;}.cls-14{stroke-width:2.74px;}.cls-15{stroke:#ef3732;stroke-width:8px;}.cls-16{fill:#a3d4db;}</style></defs><title>le-cropped_2</title><path class="cls-1" d="M190.41,219.53c-19.71,26.28-49.55,43-83,43-40,0-74.85-27.62-93.36-63.14" transform="translate(-9.26 -29.68)"/><path class="cls-1" d="M194.6,128.11a140,140,0,0,0-38.47-42.56,97.22,97.22,0,0,0-142,113.87c18.51,35.52,53.38,63.14,93.36,63.14,33.41,0,63.25-16.76,83-43a94.44,94.44,0,0,0,12.71-39.94S201.57,143.06,194.6,128.11Z" transform="translate(-9.26 -29.68)"/><path class="cls-1" d="M23.43,219.67" transform="translate(-9.26 -29.68)"/><path class="cls-1" d="M65.46,257.71" transform="translate(-9.26 -29.68)"/><path class="cls-1" d="M65.46,256.71" transform="translate(-9.26 -29.68)"/><path class="cls-1" d="M197.57,206.11c-3.12,6.09-6.34,12.32-6.63,12.71-19.7,26.68-49.78,43.74-83.49,43.74-36.28,0-68.35-22.74-87.81-53.49" transform="translate(-9.26 -29.68)"/><path class="cls-1" d="M107.66,71.93c-53.68,0-97.2,41.52-97.2,95.2,0,0,3.3,25.28,9.19,41.94,19.46,30.75,51.53,53.49,87.81,53.49,33.71,0,63.79-17.05,83.49-43.74,0.29-.39,3.51-6.62,6.63-12.71A97.24,97.24,0,0,0,107.66,71.93Z" transform="translate(-9.26 -29.68)"/><rect class="cls-2" x="32.82" y="7.76" width="1.32" height="19.14"/><path class="cls-2" d="M42.74,53.3c-1.73,0-3.14,2-3.14,4.51h6.27C45.88,55.31,44.43,53.3,42.74,53.3Z" transform="translate(-9.26 -29.68)"/><polygon class="cls-3" points="32.83 7.76 32.83 17.33 46.62 17.33 43.25 12.54 46.62 7.76 32.83 7.76"/><rect class="cls-4" x="10.84" y="49.64" width="45.29" height="40.05"/><rect class="cls-2" x="14.15" y="52.57" width="9.39" height="33.46"/><rect class="cls-2" x="28.7" y="52.57" width="9.39" height="33.46"/><rect class="cls-2" x="43.24" y="52.57" width="9.39" height="33.46"/><path class="cls-4" d="M71.38,254.87L65.64,121.44H19.85l-3.53,82.07C29.06,226,48.42,244.87,71.38,254.87Z" transform="translate(-9.26 -29.68)"/><path class="cls-3" d="M38.76,232.67l31-10.73-1.3-30.29-49.11,17A129.48,129.48,0,0,0,38.76,232.67Z" transform="translate(-9.26 -29.68)"/><rect class="cls-5" x="3.25" y="83.82" width="60.47" height="11.74"/><rect class="cls-5" x="3.25" y="71.21" width="60.47" height="4.67"/><rect class="cls-5" x="3.25" y="71.64" width="2.64" height="17.51"/><rect class="cls-5" x="61.08" y="71.64" width="2.64" height="17.51"/><rect class="cls-5" x="46.62" y="71.64" width="2.64" height="17.51"/><rect class="cls-5" x="32.16" y="71.64" width="2.64" height="17.51"/><rect class="cls-5" x="17.71" y="71.64" width="2.64" height="17.51"/><path class="cls-3" d="M42.74,56.58A22.74,22.74,0,0,0,20,79.32H65.48A22.74,22.74,0,0,0,42.74,56.58Z" transform="translate(-9.26 -29.68)"/><polygon class="cls-3" points="56.4 94.31 9.87 110.4 8.53 141.61 57.71 124.6 56.4 94.31"/><rect class="cls-4" x="20.27" y="64.25" width="30.65" height="7.2" rx="2.4" ry="2.4"/><rect class="cls-6" x="122.94" y="98.65" width="25.6" height="10.4" rx="0.8" ry="0.8"/><rect class="cls-6" x="122.94" y="132.25" width="25.6" height="10.4" rx="0.8" ry="0.8"/><path class="cls-4" d="M67.43,161.13H61a0.8,0.8,0,0,0-.8.8h8A0.8,0.8,0,0,0,67.43,161.13Z" transform="translate(-9.26 -29.68)"/><path class="cls-4" d="M175,236.28c0-.74-0.06-1.48-0.12-2.22l-1.73-23H185.9l-1.76-20.59C181.43,158.7,153.43,133,121.59,133h-19.4c-31.83,0-59.85,25.71-62.57,57.43L37.94,209.9h6.6v24c0,1.4.06,2.79,0.16,4.17,17.66,15,39.33,24.49,62.75,24.49C133.06,262.56,156.57,252.71,175,236.28Z" transform="translate(-9.26 -29.68)"/><path class="cls-7" d="M161.81,211.74l0.67,34.18a110.09,110.09,0,0,0,21.46-18.52l1-15.66H161.81Z" transform="translate(-9.26 -29.68)"/><polygon class="cls-1" points="176.64 180.82 152.55 180.65 152.55 184.08 175.16 184.08 176.64 180.82"/><path class="cls-7" d="M64.5,211.94H39.64l1.26,22.77a112.54,112.54,0,0,0,22.38,16.21Z" transform="translate(-9.26 -29.68)"/><polygon class="cls-1" points="55.15 183.67 55.15 180.24 28.69 180.24 31.16 183.67 55.15 183.67"/><path class="cls-8" d="M128.71,195.82a17.47,17.47,0,0,0-.67-3.75l-19.93-62.34a2,2,0,0,0-2.44-1.34H105.6a2,2,0,0,0-1.45,2.38L118,194.66a13.9,13.9,0,0,0,1.4,3.52l4,6.59a3.29,3.29,0,0,0,3.45,1.51,3.08,3.08,0,0,0,2.17-3Z" transform="translate(-9.26 -29.68)"/><rect class="cls-7" x="83.3" y="101.92" width="36.42" height="20.18"/><polygon class="cls-9" points="102.47 121.29 83.3 103.04 64.13 112.65 90.32 137.63 102.47 121.29"/><polygon class="cls-9" points="140.81 111.69 121.64 102.08 102.47 121.29 114.62 137.63 140.81 111.69"/><path class="cls-10" d="M125.82,134.59H98c-10.48,0-20.92,3.14-28.56,9.56h85C146,137.34,136.21,134.59,125.82,134.59Z" transform="translate(-9.26 -29.68)"/><ellipse class="cls-8" cx="102.47" cy="127.38" rx="5.75" ry="5.76"/><rect class="cls-7" x="27.7" y="31.47" width="147.61" height="78.78" rx="7.68" ry="7.68"/><path class="cls-11" d="M107.43,118a4.47,4.47,0,0,0,8.94,0h0v-0.1" transform="translate(-9.26 -29.68)"/><rect class="cls-12" x="90.9" y="64.92" width="22.4" height="8.8" rx="4" ry="4"/><circle class="cls-13" cx="98.1" cy="69.72" r="1.6"/><circle class="cls-13" cx="106.9" cy="69.72" r="1.6"/><path class="cls-7" d="M29.78,105.28h9.46a2.7,2.7,0,0,0,2.67-2.71V89.21a2.7,2.7,0,0,0-2.67-2.71H29.78a2.7,2.7,0,0,0-2.67,2.71v13.36A2.7,2.7,0,0,0,29.78,105.28Z" transform="translate(-9.26 -29.68)"/><path class="cls-7" d="M182.87,105.28h9.46a2.7,2.7,0,0,0,2.67-2.71V89.21a2.7,2.7,0,0,0-2.67-2.71h-9.46a2.7,2.7,0,0,0-2.67,2.71v13.36A2.7,2.7,0,0,0,182.87,105.28Z" transform="translate(-9.26 -29.68)"/><path class="cls-14" d="M56.9,104.31A5.3,5.3,0,0,0,62.2,99V98.89H51.6V99A5.3,5.3,0,0,0,56.9,104.31Z" transform="translate(-9.26 -29.68)"/><path class="cls-14" d="M166.67,104.31A5.3,5.3,0,0,0,172,99V98.89h-10.6V99A5.3,5.3,0,0,0,166.67,104.31Z" transform="translate(-9.26 -29.68)"/><path class="cls-10" d="M45.16,123H68.35c3,0,5.46-1.82,5.46-4V115c0-2.23-2.46-4-5.46-4l-11.66,5-12.21-5c-3,0-4.78,1.82-4.78,4V119C39.7,121.18,42.16,123,45.16,123Z" transform="translate(-9.26 -29.68)"/><path class="cls-10" d="M153.88,123h23.19c3,0,5.46-1.82,5.46-4V115c0-2.23-1.78-4-4.78-4,0,0-8,5-11.42,5-4.33,0-13.13-5-13.13-5-3,0-4.78,1.82-4.78,4V119C148.42,121.18,150.88,123,153.88,123Z" transform="translate(-9.26 -29.68)"/><path class="cls-15" d="M59,117.34A19.56,19.56,0,0,0,78.55,97.77c0-11-8.76-19.05-19.56-19.05S39.43,86.77,39.43,97.77v0A19.56,19.56,0,0,0,59,117.34Z" transform="translate(-9.26 -29.68)"/><path class="cls-15" d="M164.57,117.34a19.56,19.56,0,0,0,19.55-19.57c0-11-8.76-19.05-19.56-19.05S145,86.77,145,97.77v0A19.56,19.56,0,0,0,164.57,117.34Z" transform="translate(-9.26 -29.68)"/><path class="cls-15" d="M145.43,95.85c-18.5-21.69-48.44-21.69-66.94,0" transform="translate(-9.26 -29.68)"/><path class="cls-8" d="M89.51,205.65L90.29,206a2.49,2.49,0,0,0,2.88-.81l4.59-6.45a17.46,17.46,0,0,0,1.78-3.37l13.31-36a5.31,5.31,0,0,1-1.52.27,4.55,4.55,0,0,1-4.49-3.07L90,191.36A13.9,13.9,0,0,0,89,195l-1,8A2.7,2.7,0,0,0,89.51,205.65Z" transform="translate(-9.26 -29.68)"/><path class="cls-1" d="M117.4,75.54a26.35,26.35,0,0,0,18.86-18.86h-51A26.35,26.35,0,0,0,117.4,75.54Z" transform="translate(-9.26 -29.68)"/><path class="cls-4" d="M109.37,29.68C91.5,32.77,92.82,49,84,53.48c0,14.48,11.63,5,26,5s28.19,10,28.19-4.49C129.06,47.23,124,32,109.37,29.68Z" transform="translate(-9.26 -29.68)"/><circle class="cls-16" cx="98.76" cy="12.82" r="0.89"/><circle class="cls-16" cx="104.26" cy="12.82" r="0.89"/><rect class="cls-16" x="99.21" y="12.35" width="4.61" height="0.95"/><path class="cls-16" d="M110.77,38.23a1.41,1.41,0,1,0,1.41,1.41A1.41,1.41,0,0,0,110.77,38.23Zm0,2.13a0.72,0.72,0,1,1,.72-0.72A0.72,0.72,0,0,1,110.77,40.36Z" transform="translate(-9.26 -29.68)"/><path class="cls-16" d="M115.76,46.48a0.15,0.15,0,0,0-.1,0l-1.46,1a0.12,0.12,0,0,0,0,.23L114.78,48c-0.2.56-.91,2.17-2.25,1.84a1.62,1.62,0,0,1-1.19-1.61V40.77h-1.19V48.2A1.62,1.62,0,0,1,109,49.77c-1.33.33-2-1.28-2.25-1.84l0.58-.24a0.12,0.12,0,0,0,0-.23l-1.46-1a0.15,0.15,0,0,0-.25.11l-0.33,1.71a0.12,0.12,0,0,0,.18.15l0.56-.24a4.21,4.21,0,0,0,3.34,3,3.62,3.62,0,0,1,1.39.55,3.62,3.62,0,0,1,1.39-.55,4.21,4.21,0,0,0,3.34-3L116,48.43a0.12,0.12,0,0,0,.21-0.09l-0.33-1.71A0.15,0.15,0,0,0,115.76,46.48Z" transform="translate(-9.26 -29.68)"/><path class="cls-2" d="M108,50.77a4.72,4.72,0,0,1-.55-0.37,2.12,2.12,0,0,0,0,1.68,0.32,0.32,0,0,0,.53-0.37A1.37,1.37,0,0,1,108,50.77Z" transform="translate(-9.26 -29.68)"/><path class="cls-2" d="M111.36,43.7v0.75a1.91,1.91,0,0,1,1.18,1.27,2.26,2.26,0,0,1-1.18,1.3v0.75c1-.67,1.82-1.29,1.82-2.07S112.3,44.18,111.36,43.7Z" transform="translate(-9.26 -29.68)"/><path class="cls-2" d="M108.54,49.83a8.88,8.88,0,0,1,1.56-1.23,3.11,3.11,0,0,0,.07-0.42V47.77a9.91,9.91,0,0,0-2.29,1.82A1.38,1.38,0,0,0,108.54,49.83Z" transform="translate(-9.26 -29.68)"/><path class="cls-2" d="M110.64,39.65a2.69,2.69,0,0,0-1.72,2.18,2.53,2.53,0,0,0,1.25,2.29V43.36a2,2,0,0,1-.61-1.53,2.1,2.1,0,0,1,1.32-1.58A0.32,0.32,0,1,0,110.64,39.65Z" transform="translate(-9.26 -29.68)"/><path class="cls-17" d="M179,239.65q-3.76,4.26-7.85,8.08" transform="translate(-9.26 -29.68)"/><path class="cls-17" d="M139,231.73v16h20.63A108.51,108.51,0,0,0,179,232.58v-0.85H139Z" transform="translate(-9.26 -29.68)"/><path class="cls-17" d="M159.63,247.73h11.52q4.09-3.82,7.85-8.08v-7.07A108.51,108.51,0,0,1,159.63,247.73Z" transform="translate(-9.26 -29.68)"/></svg>