<svg id="Layer_1" data-name="Layer 1" xmlns="http://www.w3.org/2000/svg" viewBox="0 0 212.37 317.18"><defs><style>.cls-1{fill:#0f2445;}.cls-2{fill:#3c5f8d;}.cls-3{fill:#052944;}.cls-4{fill:#ee3533;}.cls-5{fill:#f2f7f9;}.cls-6{fill:#a3a3a2;}.cls-7{fill:#fff;}.cls-8{fill:#7fb7bf;}.cls-9{fill:#cfeaec;}.cls-10,.cls-12,.cls-17{fill:#102445;}.cls-11{fill:#ef3732;}.cls-12{stroke:#fff;stroke-width:0.96px;}.cls-12,.cls-18{stroke-miterlimit:10;}.cls-13{fill:#b1dbde;}.cls-14,.cls-18,.cls-19{fill:none;}.cls-14{stroke:#102445;stroke-width:4px;}.cls-14,.cls-17,.cls-18{stroke-linecap:round;}.cls-14,.cls-17{stroke-linejoin:round;}.cls-15{fill:#273c65;}.cls-16{fill:#c9dce0;}.cls-17{stroke:#0f234a;stroke-width:2.74px;}.cls-18{stroke:#ef3732;stroke-width:8px;}.cls-20{fill:#294870;}</style></defs><title>Artboard 1</title><path class="cls-1" d="M190.41,219.53c-19.71,26.28-49.55,43-83,43-40,0-74.85-27.62-93.36-63.14"/><path class="cls-2" d="M194.6,128.11a140,140,0,0,0-38.47-42.56,97.22,97.22,0,0,0-142,113.87c18.51,35.52,53.38,63.14,93.36,63.14,33.41,0,63.25-16.76,83-43a94.44,94.44,0,0,0,12.71-39.94S201.57,143.06,194.6,128.11Z"/><path class="cls-1" d="M197.57,206.11c-3.12,6.09-6.34,12.32-6.63,12.71-19.7,26.68-49.78,43.74-83.49,43.74-36.28,0-68.35-22.74-87.81-53.49"/><path class="cls-2" d="M107.66,71.93c-53.68,0-97.2,41.52-97.2,95.2,0,0,3.3,25.28,9.19,41.94,19.46,30.75,51.53,53.49,87.81,53.49,33.71,0,63.79-17.05,83.49-43.74.29-.39,3.51-6.62,6.63-12.71A97.24,97.24,0,0,0,107.66,71.93Z"/><rect class="cls-3" x="42.08" y="37.44" width="1.32" height="19.14"/><path class="cls-3" d="M42.74,53.3c-1.73,0-3.14,2-3.14,4.51h6.27C45.88,55.31,44.43,53.3,42.74,53.3Z"/><polygon class="cls-4" points="42.09 37.44 42.09 47.01 55.88 47.01 52.51 42.22 55.88 37.44 42.09 37.44"/><rect class="cls-5" x="20.1" y="79.32" width="45.29" height="40.05"/><rect class="cls-3" x="23.41" y="82.25" width="9.39" height="33.46"/><rect class="cls-3" x="37.96" y="82.25" width="9.39" height="33.46"/><rect class="cls-3" x="52.5" y="82.25" width="9.39" height="33.46"/><path class="cls-5" d="M71.38,254.87,65.64,121.44H19.85l-3.53,82.07C29.06,226,48.42,244.87,71.38,254.87Z"/><path class="cls-4" d="M38.76,232.67l31-10.73-1.3-30.29-49.11,17A129.48,129.48,0,0,0,38.76,232.67Z"/><rect class="cls-6" x="12.51" y="113.5" width="60.47" height="11.74"/><rect class="cls-6" x="12.51" y="100.89" width="60.47" height="4.67"/><rect class="cls-6" x="12.51" y="101.32" width="2.64" height="17.51"/><rect class="cls-6" x="70.34" y="101.32" width="2.64" height="17.51"/><rect class="cls-6" x="55.88" y="101.32" width="2.64" height="17.51"/><rect class="cls-6" x="41.42" y="101.32" width="2.64" height="17.51"/><rect class="cls-6" x="26.97" y="101.32" width="2.64" height="17.51"/><path class="cls-4" d="M42.74,56.58A22.74,22.74,0,0,0,20,79.32H65.48A22.74,22.74,0,0,0,42.74,56.58Z"/><polygon class="cls-4" points="65.66 123.99 19.13 140.08 17.79 171.29 66.97 154.28 65.66 123.99"/><rect class="cls-7" x="29.53" y="93.93" width="30.65" height="7.2" rx="2.4" ry="2.4"/><rect class="cls-8" x="132.2" y="128.33" width="25.6" height="10.4" rx="0.8" ry="0.8"/><rect class="cls-8" x="132.2" y="161.93" width="25.6" height="10.4" rx="0.8" ry="0.8"/><path class="cls-7" d="M67.43,161.13H61a.8.8,0,0,0-.8.8h8A.8.8,0,0,0,67.43,161.13Z"/><path class="cls-7" d="M175,236.28c0-.74-.06-1.48-.12-2.22l-1.73-23H185.9l-1.76-20.59C181.43,158.7,153.43,133,121.59,133h-19.4c-31.83,0-59.85,25.71-62.57,57.43L37.94,209.9h6.6v24c0,1.4.06,2.79.16,4.17,17.66,15,39.33,24.49,62.75,24.49C133.06,262.56,156.57,252.71,175,236.28Z"/><path class="cls-9" d="M161.81,211.74l.67,34.18a110.09,110.09,0,0,0,21.46-18.52l1-15.66Z"/><polygon class="cls-10" points="185.9 211.2 161.81 211.01 161.81 214.76 184.42 214.76 185.9 211.2"/><path class="cls-9" d="M64.5,211.94H39.64l1.26,22.77a112.54,112.54,0,0,0,22.38,16.21Z"/><polygon class="cls-10" points="64.41 213.35 64.41 209.92 37.95 209.92 40.42 213.35 64.41 213.35"/><path class="cls-11" d="M128.71,195.82a17.47,17.47,0,0,0-.67-3.75l-19.93-62.34a2,2,0,0,0-2.44-1.34h-.07a2,2,0,0,0-1.45,2.38L118,194.66a13.9,13.9,0,0,0,1.4,3.52l4,6.59a3.29,3.29,0,0,0,3.45,1.51,3.08,3.08,0,0,0,2.17-3Z"/><rect class="cls-9" x="92.56" y="131.6" width="36.42" height="20.18"/><polygon class="cls-12" points="111.73 150.97 92.56 132.72 73.39 142.33 99.58 167.31 111.73 150.97"/><polygon class="cls-12" points="150.07 141.37 130.9 131.76 111.73 150.97 123.88 167.31 150.07 141.37"/><path class="cls-13" d="M126.73,134.59H97.23c-11.11,0-22.17,3.14-30.26,9.56h90C148.08,137.34,137.74,134.59,126.73,134.59Z"/><ellipse class="cls-11" cx="111.73" cy="157.06" rx="5.75" ry="5.76"/><rect class="cls-9" x="36.96" y="61.15" width="147.61" height="78.78" rx="7.68" ry="7.68"/><path class="cls-14" d="M107.43,118a4.47,4.47,0,0,0,8.94,0h0v-.1"/><rect class="cls-10" x="100.16" y="94.6" width="22.4" height="8.8" rx="4" ry="4"/><circle class="cls-15" cx="107.36" cy="99.4" r="1.6"/><circle class="cls-15" cx="116.16" cy="99.4" r="1.6"/><path class="cls-16" d="M29.78,105.28h9.46a2.7,2.7,0,0,0,2.67-2.71V89.21a2.7,2.7,0,0,0-2.67-2.71H29.78a2.7,2.7,0,0,0-2.67,2.71v13.36A2.7,2.7,0,0,0,29.78,105.28Z"/><path class="cls-16" d="M182.87,105.28h9.46a2.7,2.7,0,0,0,2.67-2.71V89.21a2.7,2.7,0,0,0-2.67-2.71h-9.46a2.7,2.7,0,0,0-2.67,2.71v13.36A2.7,2.7,0,0,0,182.87,105.28Z"/><path class="cls-17" d="M56.9,104.31A5.3,5.3,0,0,0,62.2,99v-.12H51.6V99A5.3,5.3,0,0,0,56.9,104.31Z"/><path class="cls-17" d="M166.67,104.31A5.3,5.3,0,0,0,172,99v-.12h-10.6V99A5.3,5.3,0,0,0,166.67,104.31Z"/><path class="cls-13" d="M45.16,123H68.35c3,0,5.46-1.82,5.46-4V115c0-2.23-2.46-4-5.46-4l-11.66,5-12.21-5c-3,0-4.78,1.82-4.78,4V119C39.7,121.18,42.16,123,45.16,123Z"/><path class="cls-13" d="M153.88,123h23.19c3,0,5.46-1.82,5.46-4V115c0-2.23-1.78-4-4.78-4,0,0-8,5-11.42,5-4.33,0-13.13-5-13.13-5-3,0-4.78,1.82-4.78,4V119C148.42,121.18,150.88,123,153.88,123Z"/><path class="cls-18" d="M59,117.34A19.56,19.56,0,0,0,78.55,97.77c0-11-8.76-19.05-19.56-19.05S39.43,86.77,39.43,97.77v0A19.56,19.56,0,0,0,59,117.34Z"/><path class="cls-18" d="M164.57,117.34a19.56,19.56,0,0,0,19.55-19.57c0-11-8.76-19.05-19.56-19.05S145,86.77,145,97.77v0A19.56,19.56,0,0,0,164.57,117.34Z"/><path class="cls-18" d="M145.43,95.85c-18.5-21.69-48.44-21.69-66.94,0"/><path class="cls-11" d="M89.51,205.65l.78.33a2.49,2.49,0,0,0,2.88-.81l4.59-6.45a17.46,17.46,0,0,0,1.78-3.37l13.31-36a5.31,5.31,0,0,1-1.52.27,4.55,4.55,0,0,1-4.49-3.07L90,191.36A13.9,13.9,0,0,0,89,195l-1,8A2.7,2.7,0,0,0,89.51,205.65Z"/><path class="cls-1" d="M117.4,75.54a26.35,26.35,0,0,0,18.86-18.86h-51A26.35,26.35,0,0,0,117.4,75.54Z"/><path class="cls-5" d="M109.37,29.68C91.5,32.77,92.82,49,84,53.48c0,14.48,11.63,5,26,5s28.19,10,28.19-4.49C129.06,47.23,124,32,109.37,29.68Z"/><path class="cls-19" d="M179,239.65q-3.76,4.26-7.85,8.08"/><path class="cls-19" d="M139,231.73v16h20.63A108.51,108.51,0,0,0,179,232.58v-.85Z"/><path class="cls-19" d="M159.63,247.73h11.52q4.09-3.82,7.85-8.08v-7.07A108.51,108.51,0,0,1,159.63,247.73Z"/><path class="cls-20" d="M112.79,52.61A6.11,6.11,0,0,1,107,48.46a6.46,6.46,0,0,0,11.31-.83,5.23,5.23,0,0,1-9.68-2.74s0-.06,0-.09a5.23,5.23,0,0,1,4.43-5.08A7.63,7.63,0,1,0,118,49.77,6.1,6.1,0,0,1,112.79,52.61Z"/><path class="cls-20" d="M110.57,42.16a4.67,4.67,0,0,0-.89,1.61,4.49,4.49,0,0,0-.21,1.42q0,.17,0,.34c0-.09,0-.19,0-.28a4.27,4.27,0,0,1,.49-1.32,4.1,4.1,0,0,1,1.07-1.22,3.91,3.91,0,0,1,1.39-.68,3.74,3.74,0,0,1,1.47-.08h.16a.75.75,0,1,0-.11-1.5h0a5.13,5.13,0,0,0-.75.11,5,5,0,0,0-1.15.42A4.85,4.85,0,0,0,110.57,42.16Z"/><path class="cls-20" d="M115.62,41.83a.59.59,0,0,0-.5.65.61.61,0,0,0,.45.65l-.09,0a1.5,1.5,0,0,1-.59,0,1.43,1.43,0,0,1-.53-.18,1.36,1.36,0,0,1-.4-.36l0,0a.27.27,0,1,0-.36.42h0l.22.17a1.82,1.82,0,0,0,.41.19,1.77,1.77,0,0,0,.69.08,1.7,1.7,0,0,0,.64-.18,1.63,1.63,0,0,0,.36-.26l0,0,.06-.08a.78.78,0,0,0,.12-.43A.59.59,0,0,0,115.62,41.83Z"/></svg>