<svg xmlns="http://www.w3.org/2000/svg" width="82" height="82" viewBox="0 0 82 82">
    <g fill="none" fill-rule="evenodd" transform="translate(-9 -9)">
        <circle cx="49" cy="64.85" r="5" fill="#1DB598"/>
        <path stroke="#3C5F8D" stroke-width="4" d="M61.32 72.08c-4.164-4.826-4.153-12.324.165-17.104l.056-.062c3.046-3.372 9.324-6.952 13.778-7.857l12.14-2.467c1.303-.265 1.835.266 1.58 1.583l-2.402 12.395c-.859 4.433-4.452 10.61-7.88 13.547l-.037.032c-4.919 4.214-12.55 4.12-17.4-.067zM39.34 39.08c4.165-4.826 4.154-12.324-.164-17.104l-.056-.062c-3.046-3.372-9.324-6.952-13.779-7.857L13.202 11.59c-1.303-.265-1.835.266-1.58 1.583l2.401 12.395c.86 4.433 4.453 10.61 7.88 13.547l.038.032c4.918 4.214 12.55 4.12 17.4-.067z"/>
        <g stroke="#3C5F8D" stroke-linecap="round" stroke-linejoin="round" stroke-width="4">
            <path d="M49 16v38M27 28l21 20M49 75v14M73 60L49 83"/>
        </g>
    </g>
</svg>
