<svg xmlns="http://www.w3.org/2000/svg" width="58" height="58" viewBox="0 0 58 58">
    <g fill="none" fill-rule="evenodd" transform="translate(2.268 2)">
        <ellipse cx="26.549" cy="26.549" fill="#1583BB" stroke="#D7E5EB" stroke-width="4" rx="26.549" ry="26.549"/>
        <path fill="#FFF" d="M15.93 35.988h4.585V21.239H15.93zM18.586 19.476a2.657 2.657 0 0 1-2.656-2.657 2.657 2.657 0 1 1 2.656 2.657zM37.304 36.353h-4.582v-7.172c0-1.71-.03-3.91-2.381-3.91-2.386 0-2.75 1.864-2.75 3.787v7.295H23.01V21.605h4.397v2.017h.063c.612-1.16 2.107-2.383 4.337-2.383 4.642 0 5.498 3.054 5.498 7.025v8.09z"/>
    </g>
</svg>
