<?xml version="1.0" encoding="utf-8"?>
<!-- Generator: Adobe Illustrator 16.0.0, SVG Export Plug-In . SVG Version: 6.00 Build 0)  -->
<!DOCTYPE svg PUBLIC "-//W3C//DTD SVG 1.1//EN" "http://www.w3.org/Graphics/SVG/1.1/DTD/svg11.dtd">
<svg version="1.1" id="Layer_1" xmlns="http://www.w3.org/2000/svg" xmlns:xlink="http://www.w3.org/1999/xlink" x="0px" y="0px"
	 width="808.133px" height="282.46px" viewBox="-16.11 164.77 808.133 282.46"
	 enable-background="new -16.11 164.77 808.133 282.46" xml:space="preserve">
<title>logo_white</title>
<g>
	<path fill="#FFFFFF" d="M430.316,238.705c-2.809-2.75-4.355-6.539-4.272-10.468c-0.189-8.14,6.256-14.892,14.396-15.081
		c8.139-0.189,14.891,6.256,15.08,14.396c0.005,0.228,0.005,0.457,0,0.685c-0.04,8.176-6.7,14.773-14.877,14.733
		C436.775,242.951,433.069,241.42,430.316,238.705z M453.351,340.277H428.22v-90.104h25.123L453.351,340.277z"/>
	<path fill="#FFFFFF" d="M616.854,295.226c0,13.063-4.522,24.062-13.566,32.994c-9.044,8.934-20.405,13.399-34.082,13.399
		c-13.678,0-25.039-4.466-34.083-13.399c-9.044-8.933-13.566-19.931-13.566-32.994s4.522-24.088,13.566-33.074
		s20.405-13.487,34.083-13.503c13.672,0,25.032,4.501,34.082,13.503S616.858,282.178,616.854,295.226z M546.846,295.226
		c0,7.371,2.094,13.373,6.282,18.007c4.188,4.633,9.548,6.949,16.076,6.949c6.529,0,11.888-2.316,16.077-6.949
		c4.188-4.634,6.282-10.636,6.282-18.007s-2.095-13.399-6.282-18.086c-8.206-8.878-22.056-9.424-30.935-1.219
		c-0.422,0.39-0.828,0.797-1.219,1.219c-4.183,4.692-6.274,10.72-6.274,18.086H546.846z"/>
	<path fill="#FFFFFF" d="M692.858,312.231c0,8.874-3.265,15.991-9.794,21.35c-6.529,5.359-14.818,8.038-24.869,8.038
		c-7.126-0.071-14.195-1.286-20.937-3.598c-7.123-2.327-13.763-5.931-19.595-10.636l11.056-15.742
		c9.378,7.26,19.37,10.887,29.977,10.882c3.235,0,5.804-0.644,7.704-1.931c1.784-1.08,2.865-3.021,2.844-5.107
		c0-2.118-1.324-4.071-3.972-5.861s-6.444-3.466-11.39-5.028c-4.973-1.588-8.769-2.928-11.39-4.019
		c-3.112-1.375-6.108-2.998-8.96-4.853c-6.81-4.236-10.215-10.516-10.215-18.84s3.35-15.107,10.048-20.35
		c6.698-5.248,15.351-7.871,25.957-7.871s21.213,3.571,31.819,10.715l-9.381,16.751c-7.789-5.354-15.557-8.033-23.304-8.039
		c-7.747-0.005-11.626,2.113-11.637,6.354c0,2.346,1.229,4.199,3.686,5.56s6.532,2.923,12.225,4.686
		c5.692,1.79,9.74,3.159,12.144,4.106c2.988,1.25,5.873,2.735,8.626,4.44C689.733,297.021,692.853,303.351,692.858,312.231z"/>
	<path fill="#FFFFFF" d="M712.111,328.721c-8.6-8.6-12.899-19.905-12.899-33.916c0-14.011,4.419-25.203,13.257-33.574
		c8.822-8.372,19.039-12.558,30.651-12.558c8.739-0.117,17.19,3.121,23.614,9.047v-7.546h25.289v90.104H766.71v-7.371
		c-6.858,5.715-15.521,8.811-24.448,8.737C730.756,341.627,720.705,337.319,712.111,328.721z M724.502,295.361
		c0,7.371,2.177,13.373,6.529,18.006c4.353,4.633,9.434,6.949,15.242,6.949c5.824,0,10.736-2.316,14.733-6.949
		c3.998-4.634,6.008-10.606,6.029-17.919c0-7.313-2.01-13.426-6.029-18.34c-4.019-4.914-8.985-7.371-14.9-7.371
		c-5.92,0-11.001,2.428-15.242,7.283c-4.241,4.856-6.362,10.98-6.362,18.372V295.361z"/>
	<path fill="#FFFFFF" d="M512.184,313.319c-3.241,4.236-7.213,6.354-11.914,6.354c-2.446,0.004-4.771-1.068-6.354-2.932
		c-1.79-1.948-2.683-4.656-2.677-8.125v-85.663h-25.274v86.847c0,9.822,2.986,17.583,8.96,23.28
		c5.973,5.697,13.285,8.544,21.938,8.538c8.652,0,16.887-3.574,24.702-10.723L512.184,313.319z"/>
	<path fill="#FFFFFF" d="M407.394,261.818c-8.202-8.764-17.551-13.146-28.045-13.146c-10.495,0-19.595,3.853-27.3,11.557v-10.056
		h-25.123V368.26h25.123v-39.873c6.699,8.822,15.547,13.232,26.545,13.232s20.598-4.466,28.8-13.399
		c8.208-8.933,12.312-20.053,12.312-33.359C419.705,281.553,415.602,270.54,407.394,261.818z M387.886,313.232
		c-4.353,4.633-9.433,6.949-15.242,6.949c-5.809,0-10.749-2.316-14.821-6.949c-4.077-4.634-6.116-10.607-6.116-17.919
		s2.039-13.402,6.116-18.269c4.072-4.855,9.068-7.284,14.988-7.283c5.92,0,11,2.457,15.242,7.371
		c4.236,4.914,6.354,11.003,6.354,18.269S392.234,308.609,387.886,313.232L387.886,313.232z"/>
</g>
<path fill="#FFFFFF" d="M125.12,164.77c-78,0-141.23,63.23-141.23,141.23s63.23,141.23,141.23,141.23S266.35,384,266.35,306
	S203.12,164.77,125.12,164.77z M203.169,242.374c0.548-0.143,1.064-0.31,1.588-0.484c-4.154-0.532-7.403-5.147-7.403-10.762
	c0-5.973,3.67-10.818,8.205-10.818c4.527,0,8.205,4.845,8.189,10.85c0.03,2.504-0.668,4.962-2.009,7.077
	c-0.302,0.462-0.643,0.897-1.017,1.303c-0.238,0.238-0.492,0.469-0.738,0.699c-1.793,1.685-3.808,3.118-5.989,4.257
	c-3.313,1.714-6.933,2.754-10.651,3.058c-3.867,0.315-7.757-0.141-11.446-1.342c-2.357-0.778-4.609-1.845-6.704-3.177
	c-1.303-0.818-2.542-1.731-3.709-2.732l-0.119-0.104c-0.053-0.043-0.105-0.088-0.156-0.134c-1.863-1.675-2.015-4.542-0.34-6.405
	c1.675-1.862,4.542-2.014,6.405-0.339c0.25,0.22,0.476,0.464,0.675,0.731c1.794,2.401,4.049,4.421,6.632,5.941
	c2.713,1.589,5.716,2.621,8.833,3.034C196.677,243.458,199.993,243.237,203.169,242.374z M178.276,197.315h0.437
	c0.155-0.015,0.31-0.027,0.465-0.037c6.853-0.404,12.737,4.823,13.141,11.677c0.405,6.853-4.823,12.737-11.676,13.141
	c-0.909,0.063-1.822,0.031-2.725-0.095c-8.127-1.183-16.408-0.734-24.36,1.318c-8.349,2.17-16.18,5.985-23.034,11.223
	c-7.161,5.484-13.158,12.34-17.641,20.167c-3.888,6.798-6.618,14.196-8.078,21.89c-0.302,1.541-0.548,3.082-0.747,4.67
	c-0.19-1.832-0.286-3.686-0.286-5.56c-0.11-7.945,1.057-15.856,3.455-23.431c3.1-9.747,8.106-18.78,14.726-26.577
	c6.881-8.108,15.305-14.769,24.782-19.595c6.045-3.077,12.448-5.396,19.062-6.902C169.905,198.266,174.076,197.634,178.276,197.315z
	 M89.347,426.736C22.662,406.291-14.823,335.659,5.622,268.975c20.445-66.685,91.077-104.169,157.762-83.725
	c-41.666,6.426-72.646,41.93-73.368,84.083c0,0.477,0,0.945,0,1.422c-0.004,30.025,15.558,57.906,41.115,73.665
	c40.678,25.081,93.986,12.438,119.067-28.24c-8.483,18.758-22.206,34.665-39.516,45.809
	c-49.614,31.938-115.725,17.61-147.664-32.004c13.903,41.034,52.409,68.646,95.734,68.649c34.601,0.02,66.802-17.681,85.33-46.902
	C220.118,413.408,152.61,446.132,89.347,426.736z"/>
</svg>
