<svg xmlns="http://www.w3.org/2000/svg" width="99" height="33" viewBox="0 0 99 33">
    <g fill="none" fill-rule="evenodd" stroke-linecap="round" stroke-width="6">
        <g stroke="#EAECED" opacity=".646">
            <path d="M74.324 17.907c-13.837-13.21-36.23-13.21-50.067 0M3 18.526C3 12.712 7.742 8 13.592 8c5.849 0 10.59 4.712 10.59 10.526s-4.741 10.527-10.59 10.527C7.742 29.053 3 24.34 3 18.526zM74.813 18.526C74.813 12.712 79.555 8 85.405 8c5.849 0 10.59 4.712 10.59 10.526s-4.741 10.527-10.59 10.527c-5.85 0-10.592-4.713-10.592-10.527z"/>
        </g>
        <path stroke="#FB2E2C" d="M74.324 12.907c-13.837-13.21-36.23-13.21-50.067 0M3 13.526C3 7.712 7.742 3 13.592 3c5.849 0 10.59 4.712 10.59 10.526s-4.741 10.527-10.59 10.527C7.742 24.053 3 19.34 3 13.526zM74.813 13.526C74.813 7.712 79.555 3 85.405 3c5.849 0 10.59 4.712 10.59 10.526s-4.741 10.527-10.59 10.527c-5.85 0-10.592-4.713-10.592-10.527z"/>
    </g>
</svg>
