<svg xmlns="http://www.w3.org/2000/svg" xmlns:xlink="http://www.w3.org/1999/xlink" width="203" height="217" viewBox="0 0 203 217">
    <defs>
        <circle id="a" cx="121" cy="121" r="121"/>
    </defs>
    <g fill="none" fill-rule="evenodd" transform="translate(-17 -27)">
        <circle cx="118.5" cy="142.5" r="101.5" fill="#F8FAFB"/>
        <mask id="b" fill="#fff">
            <use xlink:href="#a"/>
        </mask>
        <g mask="url(#b)">
            <path fill="#1DB598" d="M41.28 190.308c3.111-33.016 32.518-59.781 65.68-59.781h20.415c33.163 0 62.591 26.767 65.731 59.781l1.277 13.428h-13.265l2.191 31.924c2.271 33.085-22.771 59.905-55.934 59.905H106.96c-33.162 0-60.046-26.877-60.046-60.039v-31.92h-6.888l1.253-13.298z"/>
            <path fill="#168670" d="M67 173.3h102l2.5 98.7h-109z"/>
            <path fill="#FFF" d="M67.4 172.105h102v9.03H66.5z"/>
            <path fill="#CFEAEC" d="M170.248 203.457h24.08l-3.347 55.05h-19.644z"/>
            <path fill="#B1DBDE" d="M170.248 203.457h24.307l-.714 3.575h-23.593z" opacity=".4" style="mix-blend-mode:multiply"/>
            <g>
                <path fill="#CFEAEC" d="M65.73 203.457H39.796l3.055 55.05h21.155z"/>
                <path fill="#B1DBDE" d="M39.992 203.457h25.737v3.575H40.707z" opacity=".4" style="mix-blend-mode:multiply"/>
            </g>
            <path fill="#CFEAEC" stroke="#FFF" stroke-width="8" d="M147.5 133.82c0 6.205-15.234 24.287-31.44 24.287-16.206 0-33.06-18.082-33.06-24.287"/>
            <path fill="#B1DBDE" d="M77.216 138.4c8.769-5.01 18.922-7.873 29.744-7.873h20.415c10.823 0 20.978 2.862 29.747 7.872H77.216z" opacity=".4" style="mix-blend-mode:multiply"/>
            <g>
                <g fill="#CFEBEC">
                    <path d="M40.053 78.392h-9.87c-1.532 0-2.783 1.27-2.783 2.822v13.904c0 1.551 1.251 2.82 2.782 2.82h9.87c1.53 0 2.783-1.269 2.783-2.82V81.214c0-1.552-1.252-2.822-2.782-2.822M205.76 78.392h-9.872c-1.53 0-2.782 1.27-2.782 2.822v13.904c0 1.551 1.252 2.82 2.782 2.82h9.871c1.53 0 2.783-1.269 2.783-2.82V81.214c0-1.552-1.253-2.822-2.783-2.822"/>
                    <path d="M45.981 133.836c-4.971 0-9.038-4.755-9.038-10.57V54.77c0-5.811 1.872-7.856 9.038-10.568 7.166-2.712 47.04-9.066 70.794-9.066 23.755 0 60.054 4.706 70.803 9.066 10.749 4.36 9.039 4.757 9.039 10.568v68.497c0 5.814-4.068 10.569-9.04 10.569H45.982z"/>
                </g>
                <g transform="translate(103 84)">
                    <rect width="22.618" height="12.41" x=".11" y=".073" fill="#102445" rx="6.205"/>
                    <ellipse cx="4.711" cy="5.992" fill="#203962" rx="2.3" ry="2.256"/>
                    <ellipse cx="17.363" cy="5.992" fill="#203962" rx="2.3" ry="2.256"/>
                </g>
                <path fill="#B1DBDE" d="M45.981 66.686c-4.971 0-9.038-.942-9.038-2.093V51.028c0-1.15 1.872-1.555 9.038-2.092 7.166-.538 47.04-1.796 70.794-1.796 23.755 0 60.054.932 70.803 1.796 10.749.863 9.039.941 9.039 2.092v13.565c0 1.151-4.068 2.093-9.04 2.093H45.982z"/>
                <path fill="#FFF" d="M45.981 64.682c-4.971 0-9.038-.942-9.038-2.093V49.024c0-1.15 1.872-1.556 9.038-2.093 7.166-.537 47.04-1.795 70.794-1.795 23.755 0 60.054.932 70.803 1.795 10.749.864 9.039.942 9.039 2.093V62.59c0 1.151-4.068 2.093-9.04 2.093H45.982z"/>
                <path fill="#1DB598" d="M37.4 54.14h159v3h-159z"/>
                <g fill="#102445" stroke="#102445" stroke-linecap="round" stroke-linejoin="round" stroke-width="5">
                    <path d="M54.273 91.285c0 .042-.012.082-.012.124 0 3.096 2.475 5.607 5.527 5.607 3.055 0 5.53-2.51 5.53-5.607 0-.042-.012-.082-.013-.124H54.273zM167.797 91.285c0 .042-.012.082-.012.124 0 3.096 2.475 5.607 5.529 5.607 3.053 0 5.529-2.51 5.529-5.607 0-.042-.013-.082-.014-.124h-11.032z"/>
                </g>
                <path stroke="#102445" stroke-linecap="round" stroke-linejoin="round" stroke-width="5.705" d="M125.133 121.887c.238.735 2.785-.15 5.69-1.093 2.904-.943 5.064-2.304 4.825-3.038-.003-.01-.017-.017-.021-.026"/>
                <g fill="#B1DBDE">
                    <path d="M47.558 121.88c-3.135 0-5.698-2.606-5.698-5.792v-5.567c0-3.185 1.848-5.792 4.983-5.792l12.738 7.15 12.166-7.15c3.135 0 5.698 2.607 5.698 5.792v5.567c0 3.186-2.563 5.792-5.698 5.792h-24.19zM160.982 121.88c-3.134 0-5.698-2.606-5.698-5.792v-5.567c0-3.185 1.849-5.792 4.983-5.792 0 0 9.181 7.15 13.702 7.15 3.542 0 11.917-7.15 11.917-7.15 3.135 0 4.984 2.607 4.984 5.792v5.567c0 3.186-2.564 5.792-5.699 5.792h-24.19z"/>
                </g>
                <g stroke="#102445" stroke-linecap="round" stroke-width="8">
                    <path d="M155.332 79.03c-22.178-7.097-58.072-7.097-80.252 0M39.602 93.534c0-11.423 9.11-20.681 20.347-20.681 11.236 0 20.345 9.258 20.345 20.681 0 11.423-9.109 20.682-20.345 20.682-11.238 0-20.347-9.26-20.347-20.682zM153.368 93.534c0-11.423 9.11-20.681 20.348-20.681 11.236 0 20.345 9.258 20.345 20.681 0 11.423-9.109 20.682-20.345 20.682-11.237 0-20.348-9.26-20.348-20.682z"/>
                </g>
                <g fill="#CFEBEC">
                    <path d="M112.489 30.964h-1.898c-.875 0-1.591.724-1.591 1.608v3.992c0 .884.716 1.607 1.591 1.607h1.898c.875 0 1.591-.723 1.591-1.607v-3.992c0-.884-.716-1.608-1.591-1.608"/>
                    <path d="M117.03 27h-1.7c-.93 0-1.69.768-1.69 1.707v7.338c0 .94.76 1.707 1.69 1.707h1.7c.93 0 1.69-.768 1.69-1.707v-7.338c0-.939-.76-1.707-1.69-1.707"/>
                    <path d="M121.635 32.629h-2.126c-.813 0-1.477.67-1.477 1.492v2.687c0 .82.664 1.492 1.477 1.492h2.126c.813 0 1.478-.671 1.478-1.492v-2.687a1.49 1.49 0 0 0-1.478-1.492"/>
                </g>
            </g>
        </g>
    </g>
</svg>
