<svg xmlns="http://www.w3.org/2000/svg" viewBox="0 0 1058.26 516.07"><defs><style>.cls-1,.cls-13,.cls-2,.cls-21,.cls-23,.cls-24,.cls-25,.cls-26,.cls-5,.cls-6,.cls-7{fill:none;}.cls-1,.cls-2,.cls-6{stroke:#3c5f8d;}.cls-1,.cls-13,.cls-2,.cls-20,.cls-21,.cls-23{stroke-linecap:round;}.cls-1,.cls-13,.cls-2,.cls-20,.cls-21{stroke-linejoin:round;}.cls-1{stroke-width:54.12px;}.cls-2{stroke-width:7.92px;stroke-dasharray:40.92 13.2;}.cls-3{fill:#3c5f8d;}.cls-4{fill:#1db598;}.cls-5{stroke:#fff;stroke-width:30.36px;stroke-dasharray:6.6 22.44;}.cls-6{stroke-width:15.84px;stroke-dasharray:1.32;}.cls-7{stroke:#1db598;stroke-width:38.64px;}.cls-20,.cls-8{fill:#102445;}.cls-11,.cls-17,.cls-9{fill:#b1dbde;}.cls-10{fill:#cfeaec;}.cls-11{fill-opacity:0.7;}.cls-12{fill:#99ccd0;}.cls-13{stroke:#0f9f84;stroke-width:3px;}.cls-14{fill:#0fa084;}.cls-15{fill:#2a4871;}.cls-16{fill:#a9d5d9;}.cls-17{fill-opacity:0.75;}.cls-18{fill:#cfebec;}.cls-19{fill:#203962;}.cls-20,.cls-21{stroke:#102445;}.cls-20{stroke-width:5.6px;}.cls-21{stroke-width:3.48px;}.cls-22{fill:#f2f7f9;}.cls-23{stroke:#ff2b2b;stroke-width:6.95px;}.cls-24,.cls-25,.cls-26{stroke:#4a4a4a;stroke-width:2.64px;}.cls-25,.cls-26{stroke-dasharray:2.64 2.64;}.cls-26{opacity:0.51;isolation:isolate;}</style></defs><title>splash_home3</title><g id="Layer_2" data-name="Layer 2"><g id="Layer_1-2" data-name="Layer 1"><ellipse class="cls-1" cx="481.19" cy="255.28" rx="224.97" ry="224.94"/><ellipse class="cls-2" cx="481.19" cy="255.28" rx="251.36" ry="251.32"/><path class="cls-3" d="M76.11,508.36A75.86,75.86,0,1,1,152,432.5a75.86,75.86,0,0,1-75.87,75.86Zm0-131.89-33.74,11L21.52,416.2v35.54l20.85,28.75,33.74,11,33.74-11,20.85-28.75V416.2l-20.85-28.75Z"/><ellipse class="cls-4" cx="804.47" cy="409.05" rx="102.26" ry="102.24"/><ellipse class="cls-5" cx="805.13" cy="409.71" rx="69.27" ry="69.26"/><ellipse class="cls-6" cx="196.18" cy="378.36" rx="46.84" ry="46.83"/><ellipse class="cls-7" cx="256.88" cy="462.95" rx="28.84" ry="28.83"/><rect class="cls-8" x="405.04" y="383.03" width="19.74" height="4.8" rx="2.4" ry="2.4" transform="matrix(1, -0.03, 0.03, 1, -13.2, 14.71)"/><path class="cls-8" d="M425.07,378.16h0a2.4,2.4,0,0,1-2.31,2.48l-14.94.52a2.4,2.4,0,0,1-2.48-2.31h0a2.4,2.4,0,0,1,2.31-2.48l14.94-.52A2.4,2.4,0,0,1,425.07,378.16Z"/><path class="cls-9" d="M465.49,361.79c6-4.37,16-4.74,22.27-.82l-2-1.25c6.3,3.92,6.29,10.25,0,14.14l-16.65,10.25a42.45,42.45,0,0,1-18.51,5.34l-23,.23a17.48,17.48,0,0,1-16.47-13l1.32,5.72c-1.67-7.23,3-13.16,10.42-13.23l23-.23a36.55,36.55,0,0,0,18.07-6l1.64-1.2Z"/><path class="cls-10" d="M498.29,376.7c-4.56-7.53-1.56-16.08,6.73-19.1l-6.15,2.24a19.75,19.75,0,0,1,23,8.35l18.34,31.64a11.44,11.44,0,0,1,1.23,3.73L544,426.42c1,8.76-4.89,18.3-13.19,21.32L537,445.5c-8.28,3-16-1.6-17.24-10.33l-4-28.06a11.64,11.64,0,0,0-1.32-3.7Z"/><path class="cls-11" d="M510.38,396.89l1.42,3,23.06-8.76-2.34-3.87Z"/><path class="cls-8" d="M540.42,434.63h0a2.4,2.4,0,0,1,2.6,2.18l.56,6.41a2.4,2.4,0,0,1-2.18,2.6h0a2.4,2.4,0,0,1-2.6-2.18l-.56-6.41A2.4,2.4,0,0,1,540.42,434.63Z"/><rect class="cls-8" x="532.83" y="434.76" width="4.8" height="13.23" rx="2.4" ry="2.4" transform="translate(-36.43 48.33) rotate(-5)"/><path class="cls-8" d="M668.07,203h0a2.4,2.4,0,0,0-3.34-.59l-10.24,7.17a2.4,2.4,0,0,0-.59,3.34h0a2.4,2.4,0,0,0,3.34.59l10.24-7.17A2.4,2.4,0,0,0,668.07,203Z"/><path class="cls-8" d="M664.43,195.38h0a2.4,2.4,0,0,0-3.34-.59L650.85,202a2.4,2.4,0,0,0-.59,3.34h0a2.4,2.4,0,0,0,3.34.59l10.24-7.17A2.4,2.4,0,0,0,664.43,195.38Z"/><path class="cls-9" d="M654.59,223.37A16.25,16.25,0,0,0,661,202.45l3,6.08a13.81,13.81,0,0,0-19.55-6l-17.68,10.15a124.22,124.22,0,0,1-20,8.82l-37.07,11.81a12.56,12.56,0,0,0-7.69,18l-3-6.08a17.81,17.81,0,0,0,20.82,8.89l37.58-12a124.26,124.26,0,0,0,20-8.84Z"/><path class="cls-12" d="M580.94,230.95l5.39,21.63-17.49,4.19a11.32,11.32,0,0,1-13.6-8.25l0,.1a11.07,11.07,0,0,1,8-13.44l.14,0,17.49-4.19Z"/><path class="cls-3" d="M576.63,229.88l7.07,28.37L567.83,262A14.89,14.89,0,0,1,550,251.16l0,.13a14.48,14.48,0,0,1,10.51-17.58l.23-.06,15.88-3.77Z"/><path class="cls-10" d="M504,243.13a26.6,26.6,0,0,1,32.32-18.93l10.26,2.64a32.42,32.42,0,0,1,23,42.15L535.48,372.43a25.41,25.41,0,0,1-33.07,16l-8.73-3.2c-13.69-5-21.77-20.51-18.05-34.59L504,243.13Z"/><path class="cls-4" d="M477.2,332.5l-7,19.44a11.18,11.18,0,0,0,1.05,8.86l16.45,24.91,8.8,12.34A4.22,4.22,0,0,0,501,399.5L538,386.44a3,3,0,0,0,1.82-3.83l.53,1.48a30.19,30.19,0,0,1-.62-15.26l3.12-11.67Z"/><path class="cls-13" d="M479.74,346.72a63.1,63.1,0,0,0,19.51,6.66"/><path class="cls-14" d="M488.79,385.43S472,364.22,472,346.5a171.92,171.92,0,0,0-14.76,13.84,4.93,4.93,0,0,0-.89,4.92L468,392.75a2.74,2.74,0,0,0,3.83,1.39l16.92-8.7Z"/><path class="cls-15" d="M526.06,234.4c-7.42-6.11-16.76-2-20.85,9.21L472.85,332a4.58,4.58,0,0,0,2.68,5.89l.24.08,67.63,21.75a3.74,3.74,0,0,0,4.82-2.64l23-88.12c5.55-21.22-7.69-39.79-17.17-40.53l2.4,3c2.92,3.6,6.23,10,2.94,13.07,0,0,6.69-1.83-2.15.79s-7.6,1.42-7.6,1.42a30.13,30.13,0,0,1-15-5.48l-8.65-6.79Z"/><path class="cls-10" d="M646.67,308.55c9.37.2,18.54-7.05,20.49-16.23l-1.94,9.11c1.95-9.17-4.07-16.76-13.43-16.95l-34.16-.7a143.39,143.39,0,0,1-33.15-5.4l-36.86-11.5a14.49,14.49,0,0,0-19.09,11.67l.93-5.36A18.64,18.64,0,0,0,543,294.1l35.74,9.13a177.64,177.64,0,0,0,33.39,4.57l34.56.75Z"/><path class="cls-16" d="M551.09,296l8-26.06-21.56-6.38a13.84,13.84,0,0,0-17.13,9.21l0-.11a13.54,13.54,0,0,0,9,16.92l.16,0Z"/><path class="cls-3" d="M545.73,300.77l11.16-36.51L532,256.92a19.42,19.42,0,0,0-24,12.92l0-.16a18.93,18.93,0,0,0,12.52,23.67l.27.08,24.94,7.35Z"/><path class="cls-8" d="M671.82,292.58h0a2.36,2.36,0,0,0-2.63-2.06l-12,1.47a2.36,2.36,0,0,0-2.06,2.63h0a2.36,2.36,0,0,0,2.63,2.06l12-1.47A2.36,2.36,0,0,0,671.82,292.58Z"/><path class="cls-8" d="M670.62,286.2h0a2.36,2.36,0,0,0-2.67-2l-12,1.68a2.36,2.36,0,0,0-2,2.67h0a2.36,2.36,0,0,0,2.67,2l12-1.68A2.36,2.36,0,0,0,670.62,286.2Z"/><path class="cls-17" d="M509.41,237.25l50.81-1.77,6,4.39-58.22,2Z"/><path class="cls-9" d="M423.14,299.36a6.51,6.51,0,0,0,8.34-3.89h0c1.23-3.37-.28-10.07,3.62-16.82s-14.49,5.54-16.33,10.6,1,8.88,4.37,10.11ZM415.33,273a4.16,4.16,0,0,0,5.33,2.49h0c2.16-.79,4.82-4.28,9.74-5.14s-9.75-4.43-11.91-3.64-3.95,4.14-3.16,6.3ZM641.77,157.9a6.5,6.5,0,0,1-2.38,8.89c-3.11,1.8-10,1.47-15.94,6.49s2.42-14.93,7.6-17.92,8.92-.57,10.72,2.55Z"/><path class="cls-10" d="M477,184.48a9.8,9.8,0,0,1,9.62-10l116.55-2a9.8,9.8,0,0,1,10,9.62l.71,40.82a12.59,12.59,0,0,1-12.37,12.82l-110.94,1.94a12.6,12.6,0,0,1-12.81-12.38L477,184.48Z"/><path class="cls-18" d="M483.49,200.36l-8.44.15A2.4,2.4,0,0,0,472.7,203l.21,11.87a2.4,2.4,0,0,0,2.42,2.37l8.44-.15a2.4,2.4,0,0,0,2.34-2.45l-.21-11.87a2.4,2.4,0,0,0-2.42-2.37m133.67-1.43-8.44.15a2.4,2.4,0,0,0-2.34,2.45l.21,11.87a2.4,2.4,0,0,0,2.42,2.37l8.44-.15a2.4,2.4,0,0,0,2.34-2.45l-.21-11.87a2.4,2.4,0,0,0-2.42-2.37"/><path class="cls-8" d="M542.67,195.57h8.82a5.67,5.67,0,0,1,5.67,5.67h0a5.67,5.67,0,0,1-5.67,5.67h-8.82a5.67,5.67,0,0,1-5.67-5.67h0A5.67,5.67,0,0,1,542.67,195.57Z"/><ellipse class="cls-19" cx="541.1" cy="200.97" rx="2.05" ry="2.06"/><ellipse class="cls-19" cx="552.38" cy="200.97" rx="2.05" ry="2.06"/><path class="cls-9" d="M503,224.64l-18.83.33a4.48,4.48,0,0,1-4.52-4.41l-.07-4.32a4.48,4.48,0,0,1,4.36-4.57l18.83-.33a4.48,4.48,0,0,1,4.52,4.41l.08,4.32a4.48,4.48,0,0,1-4.36,4.57m106.13-1.85-18.83.33a4.48,4.48,0,0,1-4.52-4.41l-.07-4.32a4.48,4.48,0,0,1,4.36-4.57l18.83-.33a4.48,4.48,0,0,1,4.52,4.41l.07,4.32a4.48,4.48,0,0,1-4.36,4.57"/><path class="cls-18" d="M542,169.57l-2.2,0a1.86,1.86,0,0,0-1.81,1.9l.08,4.63a1.86,1.86,0,0,0,1.87,1.83l2.2,0A1.86,1.86,0,0,0,544,176l-.08-4.63a1.86,1.86,0,0,0-1.87-1.83"/><path class="cls-18" d="M547.56,165.37l-2,0a2,2,0,0,0-1.92,2l.15,8.51a2,2,0,0,0,2,1.94l2,0a2,2,0,0,0,1.92-2l-.15-8.51a2,2,0,0,0-2-1.95"/><path class="cls-18" d="M553.66,171.15l-2.46,0a1.73,1.73,0,0,0-1.68,1.76l.06,3.12a1.72,1.72,0,0,0,1.74,1.7l2.46,0a1.72,1.72,0,0,0,1.68-1.76l-.05-3.11a1.72,1.72,0,0,0-1.74-1.7"/><path class="cls-20" d="M490.75,204.51s0,0,0-.06a2.63,2.63,0,1,1,5.25-.09s0,0,0,.06l-5.24.09Zm106.91-1.87s0,0,0-.06a2.63,2.63,0,1,1,5.25-.09s0,0,0,.06l-5.24.09Z"/><path class="cls-21" d="M552.95,217.71c.19.51,2.33.15,4.77-.78s4.26-2.1,4.06-2.61l0,0"/><rect class="cls-3" x="477.58" y="177.75" width="135.86" height="15.83" rx="3.5" ry="3.5" transform="matrix(1, -0.02, 0.02, 1, -3.16, 9.55)"/><path class="cls-22" d="M476.63,183.45,614.37,181l.12,6.83-137.74,2.4Z"/><path class="cls-23" d="M583.71,199.51a52.54,52.54,0,0,0-74.3.63l-.66.68M477,202.24A15.85,15.85,0,1,1,493.1,218,15.94,15.94,0,0,1,477,202.24Zm107-1.87A15.85,15.85,0,1,1,600,216.13a15.94,15.94,0,0,1-16.12-15.75Z"/><path class="cls-24" d="M73.41,509.71A75.32,75.32,0,1,1,107,365.5l156.7,50.37a47.82,47.82,0,1,1-17.91,93.91H73.4v-.08Z"/><path class="cls-25" d="M159.17,419.71a54.76,54.76,0,1,1,84.87-67L295.81,433l-1.25,1a48.16,48.16,0,1,1-80.3,52.43Z"/><path class="cls-26" d="M1018.15,312.78A119.7,119.7,0,1,0,832.64,166.36L719.48,341.79l2.73,2.12A105.28,105.28,0,1,0,897.75,458.52l120.41-145.74Z"/></g></g></svg>