<svg xmlns="http://www.w3.org/2000/svg" width="1366" height="679" viewBox="0 0 1366 679">
    <defs>
        <path id="a" d="M0 0h1366v681H0z"/>
    </defs>
    <g fill="none" fill-rule="evenodd">
        <g transform="translate(559.015 151.938)">
            <ellipse cx="480.974" cy="251.843" stroke="#3C5F8D" stroke-linecap="round" stroke-linejoin="round" stroke-width="54.12" rx="224.973" ry="224.937"/>
            <ellipse cx="480.974" cy="251.843" stroke="#3C5F8D" stroke-dasharray="40.91999816894531,13.2" stroke-linecap="round" stroke-linejoin="round" stroke-width="7.92" rx="251.363" ry="251.323"/>
            <path fill="#3C5F8D" d="M75.89 504.917c-41.902 0-75.87-33.963-75.87-75.859 0-41.895 33.968-75.858 75.87-75.858 41.903 0 75.871 33.963 75.871 75.858 0 41.896-33.968 75.859-75.87 75.859zm0-131.89l-33.737 10.98-20.851 28.75v35.536l20.85 28.749 33.738 10.98 33.738-10.98 20.851-28.75v-35.535l-20.851-28.75-33.738-10.98z"/>
            <ellipse cx="804.25" cy="405.605" fill="#1DB598" rx="102.261" ry="102.244"/>
            <ellipse cx="804.91" cy="406.265" stroke="#FFF" stroke-dasharray="6.6,22.44000091552734" stroke-width="30.36" rx="69.273" ry="69.262"/>
            <ellipse cx="195.964" cy="374.92" stroke="#3C5F8D" stroke-dasharray="1.32" stroke-width="15.84" rx="46.842" ry="46.834"/>
            <ellipse cx="256.661" cy="459.512" stroke="#1DB598" stroke-width="38.64" rx="28.841" ry="28.834"/>
        </g>
        <g transform="rotate(74 192.34 942.926)">
            <rect width="4.796" height="19.743" x="12.165" y="69.22" fill="#102445" rx="2.398" transform="rotate(14 14.563 79.092)"/>
            <rect width="4.796" height="19.743" x="5.587" y="67.027" fill="#102445" rx="2.398" transform="rotate(14 7.984 76.898)"/>
            <path fill="#B1DBDE" d="M5.777 23.956C3.228 16.986 5.621 7.301 11.13 2.32L9.374 3.906C14.88-1.073 20.962.69 22.957 7.832l5.26 18.826c1.485 5.317 1.498 13.943.03 19.265L22.12 68.13c-1.975 7.157-9.588 12.643-16.997 12.255l5.862.307c-7.413-.388-11.821-6.506-9.848-13.659l6.109-22.145c1.468-5.323 1.12-13.845-.772-19.022l-.698-1.909z"/>
        </g>
        <g transform="rotate(-20 1972.845 -2724.578)">
            <path fill="#CFEAEC" d="M.818 16.005C-.893 7.366 4.853.363 13.678.363H7.13c8.814 0 17.21 7.033 18.755 15.709l6.41 36.002c.193 1.09.142 2.844-.117 3.923l-5.367 22.378c-2.055 8.571-10.856 15.52-19.681 15.52h6.548c-8.814 0-14.487-6.98-12.667-15.606l5.85-27.735c.23-1.084.24-2.84.025-3.927L.818 16.005z"/>
            <path fill="#B1DBDE" fill-opacity=".7" d="M5.279 39.114l.316 3.288 24.662-.344-.877-4.436z" style="mix-blend-mode:multiply"/>
            <rect width="4.796" height="11.232" x="16.748" y="84.663" fill="#102445" rx="2.398" transform="rotate(15 19.146 90.279)"/>
            <rect width="4.796" height="13.232" x="11.019" y="82.794" fill="#102445" rx="2.398" transform="rotate(15 13.417 89.41)"/>
        </g>
        <g transform="scale(-1 1) rotate(-71 -353.693 1055.912)">
            <rect width="4.796" height="17.301" x="23.284" y=".641" fill="#102445" rx="2.398" transform="rotate(16 25.682 9.292)"/>
            <rect width="4.796" height="17.301" x="31.676" y="1.6" fill="#102445" rx="2.398" transform="rotate(16 34.074 10.25)"/>
            <path fill="#B1DBDE" d="M13.199 20.357c1.562-8.115 9.483-13.877 17.69-12.869l-6.718-.825c8.208 1.008 13.6 8.41 12.043 16.53l-3.839 20.023c-1.143 5.967-1.957 15.733-1.817 21.807l.899 38.893c.19 8.262-6.309 14.144-14.516 13.136l6.718.825c-8.207-1.008-15.007-8.518-15.188-16.792L7.61 61.639C7.477 55.56 8.3 45.8 9.449 39.834l3.75-19.477z"/>
        </g>
        <path fill="#99CCD0" d="M1139.734 379.444l5.392 21.628-17.486 4.188c-6.015 1.44-12.1-2.246-13.598-8.254l.023.095a11.073 11.073 0 0 1 8.182-13.47l17.487-4.187z"/>
        <path fill="#3C5F8D" d="M1135.428 378.382l7.074 28.372-15.877 3.766c-7.891 1.872-15.88-2.996-17.84-10.86l.03.125a14.483 14.483 0 0 1 10.736-17.637l15.877-3.766z"/>
        <path fill="#CFEAEC" d="M1062.829 391.625c3.723-14.093 18.182-22.572 32.316-18.935l10.261 2.641c18.803 4.84 29.113 23.705 23.024 42.15l-34.151 103.443c-4.573 13.85-19.384 21.01-33.072 16l-8.726-3.195c-13.692-5.013-21.772-20.511-18.052-34.594l28.4-107.51z"/>
        <path fill="#1DB598" d="M1036 481l-7.039 19.44c-.94 2.594-.47 6.56 1.05 8.863l16.449 24.91 8.8 12.345c.96 1.349 3.015 1.991 4.569 1.442l36.949-13.059a2.999 2.999 0 0 0 1.823-3.826l.525 1.476c-1.482-4.167-1.756-11.01-.62-15.263l3.12-11.672L1036 481z"/>
        <path stroke="#0F9F84" stroke-linecap="round" stroke-linejoin="round" stroke-width="3" d="M1038.533 495.215s8.73 5.004 19.512 6.656"/>
        <path fill="#0FA084" d="M1047.582 533.931s-16.76-21.214-16.76-38.931c-8.75 7.31-14.758 13.839-14.758 13.839-1.14 1.193-1.54 3.394-.894 4.918l11.66 27.486c.646 1.523 2.365 2.142 3.831 1.389l16.921-8.701z"/>
        <path fill="#2A4871" d="M1084.855 382.894c-7.418-6.112-16.755-1.985-20.854 9.215l-32.352 88.385a4.579 4.579 0 0 0 2.92 5.975l67.633 21.748c2.104.676 4.262-.508 4.82-2.643l23.035-88.116c5.547-21.218-7.69-39.794-17.17-40.529l2.4 2.962c2.917 3.603 6.228 10.005 2.936 13.065 0 0 6.686-1.834-2.152.787-8.838 2.62-7.597 1.418-7.597 1.418-4.62-.168-11.323-2.625-14.966-5.482l-8.653-6.785z"/>
        <g>
            <path fill="#CFEAEC" d="M1205.468 457.046c9.366.203 18.537-7.055 20.487-16.23l-1.936 9.109c1.948-9.167-4.068-16.755-13.433-16.948l-34.162-.705c-9.367-.193-24.207-2.61-33.15-5.4l-36.862-11.496c-8.941-2.79-17.49 2.436-19.093 11.665l.93-5.358c-1.603 9.232 4.456 18.595 13.53 20.914l35.742 9.13c9.076 2.32 24.023 4.364 33.392 4.568l34.555.75z"/>
            <path fill="#A9D5D9" d="M1109.887 444.476l7.969-26.064-21.565-6.378c-7.251-2.144-14.922 1.983-17.13 9.207l.034-.115a13.543 13.543 0 0 0 9.127 16.972l21.565 6.378z"/>
            <path fill="#3C5F8D" d="M1104.528 449.272l11.161-36.509-24.943-7.347c-10.16-2.992-20.907 2.798-24 12.917l.048-.16a18.933 18.933 0 0 0 12.79 23.752l24.944 7.347z"/>
            <g fill="#102445" transform="scale(1 -1) rotate(55 1048.133 949.418)">
                <rect width="4.725" height="16.815" x="5.781" y=".224" rx="2.363" transform="rotate(42 8.143 8.632)"/>
                <rect width="4.725" height="16.815" x="10.22" y="4.765" rx="2.363" transform="rotate(43 12.583 13.172)"/>
            </g>
        </g>
        <path fill="#B1DBDE" fill-opacity=".75" d="M1068.21 385.752l50.81-1.774 5.98 4.39-58.218 2.033z" style="mix-blend-mode:multiply"/>
        <g fill="#B1DBDE">
            <path d="M981.94 447.86a6.505 6.505 0 0 0 8.339-3.886c1.228-3.375-.282-10.066 3.62-16.824 3.903-6.758-14.486 5.542-16.325 10.596-1.84 5.055.99 8.884 4.366 10.114zM974.122 421.523a4.162 4.162 0 0 0 5.334 2.489c2.16-.786 4.818-4.278 9.736-5.145 4.917-.867-9.75-4.43-11.91-3.644-2.159.786-3.947 4.139-3.16 6.3zM1200.57 306.394a6.505 6.505 0 0 1-2.38 8.886c-3.11 1.796-9.96 1.47-15.939 6.487-5.977 5.017 2.42-14.927 7.6-17.918 5.18-2.99 8.922-.568 10.718 2.545z"/>
        </g>
        <g>
            <path fill="#CFEAEC" d="M1035.748 332.98c-.095-5.407 4.223-9.867 9.619-9.961l116.548-2.034c5.407-.095 9.867 4.223 9.961 9.618l.712 40.818c.122 6.96-5.413 12.7-12.373 12.821l-110.942 1.937c-6.955.121-12.691-5.418-12.813-12.382l-.712-40.817z"/>
            <g fill="#CFEBEC">
                <path d="M1042.283 348.854l-8.445.148c-1.31.023-2.361 1.125-2.338 2.45l.207 11.871c.023 1.325 1.113 2.39 2.423 2.367l8.445-.147c1.309-.023 2.361-1.125 2.338-2.45l-.207-11.871c-.023-1.325-1.114-2.39-2.423-2.368M1175.956 347.421l-8.445.148c-1.31.022-2.362 1.125-2.339 2.45l.208 11.871c.023 1.325 1.113 2.39 2.422 2.367l8.445-.147c1.31-.023 2.362-1.126 2.339-2.45l-.207-11.872c-.023-1.324-1.114-2.39-2.423-2.367"/>
            </g>
            <g transform="translate(1095.7 343.99)">
                <rect width="20.155" height="11.338" x=".098" y=".075" fill="#102445" rx="5.669"/>
                <ellipse cx="4.198" cy="5.482" fill="#203962" rx="2.05" ry="2.061"/>
                <ellipse cx="15.472" cy="5.482" fill="#203962" rx="2.05" ry="2.061"/>
            </g>
            <g fill="#B1DBDE">
                <path d="M1061.752 373.14l-18.834.328c-2.44.043-4.471-1.943-4.515-4.412l-.075-4.316c-.043-2.469 1.917-4.524 4.358-4.567l18.834-.329c2.441-.042 4.472 1.944 4.515 4.412l.076 4.316c.043 2.47-1.918 4.525-4.359 4.567M1167.88 371.287l-18.834.329c-2.44.042-4.472-1.943-4.515-4.413l-.075-4.316c-.043-2.468 1.917-4.524 4.358-4.566l18.834-.329c2.44-.043 4.473 1.943 4.516 4.412l.075 4.316c.043 2.47-1.918 4.524-4.359 4.567"/>
            </g>
            <g fill="#CFEBEC">
                <path d="M1100.793 318.072l-2.197.038c-1.012.018-1.827.872-1.809 1.896l.081 4.629c.018 1.025.862 1.849 1.874 1.831l2.197-.038c1.013-.018 1.827-.87 1.81-1.896l-.082-4.628c-.018-1.025-.861-1.85-1.874-1.832"/>
                <path d="M1106.357 313.864l-1.968.034c-1.076.02-1.94.925-1.922 2.013l.149 8.509c.019 1.088.915 1.963 1.99 1.944l1.97-.034c1.075-.019 1.94-.925 1.92-2.013l-.148-8.508c-.019-1.089-.915-1.964-1.99-1.945"/>
                <path d="M1112.458 319.65l-2.462.043c-.94.017-1.696.808-1.68 1.76l.055 3.116a1.724 1.724 0 0 0 1.74 1.7l2.461-.044a1.725 1.725 0 0 0 1.68-1.759l-.054-3.115c-.017-.952-.8-1.717-1.74-1.7"/>
            </g>
            <g fill="#102445" stroke="#102445" stroke-linecap="round" stroke-linejoin="round" stroke-width="5.599">
                <path d="M1049.55 353.01c0-.02-.006-.04-.007-.06-.025-1.466 1.129-2.676 2.578-2.702 1.45-.025 2.646 1.144 2.671 2.611 0 .02-.004.039-.004.06l-5.238.09zM1156.463 351.144c0-.02-.006-.04-.006-.06-.026-1.466 1.129-2.676 2.578-2.702 1.45-.025 2.646 1.144 2.672 2.611 0 .02-.005.039-.005.06l-5.239.09z"/>
            </g>
            <path stroke="#102445" stroke-linecap="round" stroke-linejoin="round" stroke-width="3.476" d="M1111.744 366.205c.194.505 2.327.155 4.767-.782 2.44-.936 4.259-2.104 4.065-2.608-.002-.007-.013-.01-.017-.017"/>
            <g transform="rotate(-1 19278.717 -59106.811)">
                <rect width="135.859" height="15.827" x="1.753" fill="#3C5F8D" rx="3.499"/>
                <path fill="#F2F7F9" d="M.851 4.5h137.761v6.827H.851z"/>
                <path stroke="#FF2B2B" stroke-linecap="round" stroke-width="6.953" d="M107.642 22.433a52.542 52.542 0 0 0-74.972 0M.869 23.3c0-8.857 7.094-16.035 15.845-16.035 8.75 0 15.844 7.178 15.844 16.034 0 8.856-7.093 16.034-15.844 16.034S.87 32.155.87 23.299zM107.837 23.3c0-8.857 7.094-16.035 15.845-16.035 8.75 0 15.844 7.178 15.844 16.034 0 8.856-7.094 16.034-15.844 16.034s-15.845-7.178-15.845-16.034z"/>
            </g>
        </g>
        <g stroke="#4A4A4A" stroke-width="2.64">
            <path d="M632.202 658.205c-40.1-1.7-72.087-34.741-72.087-75.253 0-41.6 33.728-75.322 75.334-75.322 10.804 0 21.077 2.274 30.366 6.37l156.702 50.372c22.81 3.63 40.245 23.388 40.245 47.217 0 26.406-21.41 47.813-47.82 47.813-3.548 0-7.006-.386-10.334-1.12H632.191l.011-.077z"/>
            <path stroke-dasharray="2.640000057220459,2.640000057220459" d="M717.965 568.206c-10.907-10.008-17.744-24.38-17.744-40.348 0-30.237 24.516-54.75 54.759-54.75 20.572 0 38.495 11.343 47.853 28.115l51.768 80.257-1.25.971a47.945 47.945 0 0 1 10.487 30c0 26.594-21.563 48.153-48.162 48.153-18.498 0-34.56-10.427-42.628-25.723l-55.083-66.675z"/>
            <path stroke-dasharray="2.640000057220459,2.640000057220459" d="M1576.947 461.274c23.841-21.876 38.787-53.291 38.787-88.196 0-66.096-53.59-119.678-119.697-119.678-44.97 0-84.147 24.795-104.603 61.457l-113.16 175.432 2.732 2.123c-14.347 17.988-22.921 40.78-22.921 65.575 0 58.133 47.133 105.26 105.275 105.26 40.435 0 75.546-22.793 93.181-56.23l120.406-145.743z" opacity=".509"/>
        </g>
    </g>
</svg>
