<svg xmlns="http://www.w3.org/2000/svg" xmlns:xlink="http://www.w3.org/1999/xlink" width="427" height="500" viewBox="0 0 427 500">
    <defs>
        <path id="a" d="M0 0h604v500H0z"/>
    </defs>
    <g fill="none" fill-rule="evenodd" transform="translate(-177)">
        <mask id="b" fill="#fff">
            <use xlink:href="#a"/>
        </mask>
        <g mask="url(#b)">
            <path fill="#CFEAEC" d="M365.015 313.361c-24.866 8.348-52.294-4.862-61.266-29.512l4.83 13.268c-8.971-24.646 3.546-52.399 27.962-61.988l479.864-188.47c27.248-10.701 57.453 2.92 67.47 30.439l2.002 5.503c10.014 27.512-4.36 57.366-32.12 66.685L365.016 313.361z"/>
            <path fill="#3F608A" d="M237.27 320.139c-3.041 2.539-3.13 6.75-.192 9.412l-1.715-1.553c2.936 2.659 7.926 2.94 11.156.645 0 0 29.715-21.622 59.258-38.584 29.542-16.961 51.149-26.755 51.149-26.755 6.004-2.85 8.256-9.877 5.024-15.709l1.642 2.963c-3.229-5.826-10.647-8.105-16.52-4.956 0 0-10.848 4.745-48.475 29.4-37.627 24.655-61.326 45.137-61.326 45.137zM248.956 340.069c-3.197 2.337-3.585 6.57-.873 9.447l-1.606-1.704c2.715 2.88 7.642 3.52 11.018 1.444 0 0 29.982-18.924 59.71-33.352 29.728-14.429 50.992-22.26 50.992-22.26 6.191-2.413 8.931-9.257 6.113-15.3l1.432 3.07c-2.815-6.036-10.063-8.829-16.132-6.098 0 0-10.508 3.677-48.544 25.079-38.037 21.402-62.11 39.674-62.11 39.674z"/>
            <path fill="#B1DBDE" d="M402.334 259.468c8.085 24.95-5.334 52.444-29.983 61.415l-11.777 4.287c-24.644 8.97-52.603-3.47-62.445-27.774l-172.744-426.62c-14.606-36.073 3.196-76.105 39.782-89.421l7.317-2.664c36.577-13.313 75.956 5.908 87.954 42.93l141.896 437.847z"/>
            <path fill="#3C5F8D" d="M394.224 407.272c2.647 2.94 7.067 3.063 9.881.264l.244-.243c2.81-2.795 3.152-7.628.795-10.792 0 0-23.329-30.475-40.95-60.953-17.623-30.478-26.321-50.72-26.321-50.72-3.463-7.506-12.127-10.344-19.352-6.34l3.647-2.02c-7.226 4.004-10.07 13.232-6.142 20.515 0 0 3.49 9.117 29.573 47.666 26.084 38.549 48.625 62.623 48.625 62.623zM413.778 393.506c2.454 3.102 6.892 3.531 9.9.97l.246-.21c3.014-2.566 3.693-7.338 1.546-10.657 0 0-20.563-30.852-35.584-61.56-15.021-30.708-21.869-50.544-21.869-50.544-2.912-7.726-11.34-11.16-18.823-7.671l3.777-1.762c-7.483 3.49-10.967 12.492-7.555 20.022 0 0 2.548 8.703 25.31 47.76 22.76 39.057 43.052 63.652 43.052 63.652z"/>
            <g>
                <path fill="#A2D5D8" d="M370.325 303.209c-.678-26.218-22.484-47.472-48.721-47.472h17.103c-26.23 0-48.043 21.251-48.721 47.472l-12.393 479.337c-.728 28.19 21.535 51.043 49.742 51.043h5.64c28.2 0 50.47-22.853 49.742-51.043L370.325 303.21z"/>
                <path fill="#3C5F8D" d="M339.424 169.459c1.401-3.704 5.411-5.275 8.946-3.513l-1.252-.624c3.54 1.764 5.515 6.265 4.426 10.084 0 0-10.525 35.274-16.401 68.829-5.877 33.555-7.439 56.247-7.439 56.247-.643 7.167-6.93 12.063-14.043 10.937l3.59.568c-7.113-1.126-12.18-7.83-11.146-14.965 0 0 .507-10.852 11.077-54.599 10.569-43.747 22.242-72.964 22.242-72.964zM357.153 173.554c1.161-3.785 5.087-5.647 8.741-4.172l-1.328-.536c3.667 1.48 5.947 5.82 5.116 9.687 0 0-7.9 34.627-11.332 67.493-3.432 32.867-3.338 54.552-3.338 54.552-.129 7.192-6.049 12.513-13.223 11.886l3.621.317c-7.174-.628-12.701-6.96-12.163-14.163 0 0-.312-10.138 7.062-53.176 7.375-43.039 16.844-71.888 16.844-71.888z"/>
            </g>
            <g>
                <path fill="#2A4871" fill-opacity=".06" d="M375.796 321.277c-25.679-5.354-42.803-30.635-38.248-56.466l-.256 1.45c4.555-25.832 29.29-43.732 55.254-39.98L857.052 293.4c33.51 4.842 55.91 35.79 50.03 69.144l-1.176 6.67c-5.88 33.345-37.515 54.774-70.661 47.862l-459.45-95.799z" style="mix-blend-mode:multiply"/>
                <path fill="#EDFDFE" d="M369.924 328.594c-25.66-5.403-42.77-30.725-38.217-56.548l.264-1.496c4.554-25.827 29.304-43.764 55.252-40.066l445.925 63.543c34.581 4.928 57.698 36.806 51.63 71.22l-1.214 6.883c-6.066 34.407-38.698 56.464-72.875 49.268l-440.765-92.804z"/>
                <path fill="#223D61" d="M224.923 254.293c-3.895.72-6.113 4.377-4.957 8.161l.317 1.037c1.157 3.787 5.279 6.521 9.228 6.121 0 0 46.49-5.183 88.298-5.114 41.807.069 70.254 2.995 70.254 2.995 8.42.704 15.366-5.588 15.514-14.053l-.07 3.94c.149-8.465-6.58-15.697-15.048-15.962 0 0-13.9-1.67-69.024 1.65-55.123 3.318-94.512 11.225-94.512 11.225zM224.472 285.327c-3.872.805-6.042 4.515-4.843 8.299l.313.988c1.197 3.779 5.348 6.44 9.288 5.96 0 0 45.084-5.973 85.865-6.633 40.782-.661 68.209 1.746 68.209 1.746 8.43.569 15.264-5.834 15.264-14.3v3.94c0-8.465-6.86-15.583-15.313-15.697 0 0-13.225-1.425-66.938 2.855s-91.845 12.842-91.845 12.842z"/>
            </g>
        </g>
    </g>
</svg>
