<svg xmlns="http://www.w3.org/2000/svg" xmlns:xlink="http://www.w3.org/1999/xlink" width="1173" height="490" viewBox="0 0 1173 490">
    <defs>
        <path id="a" d="M0 0h1366v500H0z"/>
    </defs>
    <g fill="none" fill-rule="evenodd" transform="translate(-102 -10)">
        <mask id="b" fill="#fff">
            <use xlink:href="#a"/>
        </mask>
        <g mask="url(#b)" opacity=".73">
            <path fill="#A2D5D8" d="M208.294 189.252c-.816-26.219-22.739-47.474-48.971-47.474h1.674c-26.23 0-48.155 21.242-48.972 47.474l-14.519 466.65c-1.05 33.766 25.48 61.138 59.274 61.138h6.76c33.786 0 60.324-27.383 59.274-61.138l-14.52-466.65z"/>
            <path fill="#3C5F8D" d="M148.59 60.976c1.073-3.809 4.97-5.845 8.719-4.544l-.423-.147c3.742 1.3 6.172 5.504 5.45 9.39 0 0-7.174 35.983-9.55 69.814-2.374 33.83-1.387 56.138-1.387 56.138.153 7.347-5.677 12.992-13.033 12.606l2.344.123c-7.352-.385-13.237-6.662-12.951-14.014 0 0-.748-10.465 5.478-54.86 6.227-44.396 15.354-74.506 15.354-74.506zM169.825 68.358a6.923 6.923 0 0 1 8.675-4.94c3.798 1.102 6.355 5.16 5.735 9.069 0 0-6.05 34.912-7.246 67.789-1.196 32.876.636 54.07.636 54.07.444 7.34-5.16 13.186-12.516 13.058l1.474.025c-7.357-.128-13.467-6.192-13.438-13.544 0 0-1.17-9.731 3.618-52.977 4.788-43.245 13.062-72.55 13.062-72.55z"/>
            <g opacity=".592">
                <path fill="#65A7AB" d="M362.98 292.932c-.661-21.245-18.43-38.468-39.687-38.468h-2.383c-21.258 0-39.026 17.216-39.687 38.468l-12.408 398.792c-.894 28.717 21.67 51.997 50.412 51.997h5.748c28.736 0 51.306-23.29 50.413-51.997L362.98 292.932z"/>
                <path fill="#3C5F8D" d="M312.792 186.773a6.905 6.905 0 0 1 8.762-4.79l-1.747-.542c3.786 1.174 6.279 5.284 5.598 9.177 0 0-5.674 29.645-7.225 58.447-1.55 28.803-.309 46.313-.309 46.313.295 7.047-5.187 12.56-12.243 12.314l3.562.124c-7.057-.247-12.81-6.164-12.638-13.239 0 0-.911-7.427 3.937-45.265 4.85-37.837 12.303-62.539 12.303-62.539zM331.555 193.88c.912-3.855 4.77-6.246 8.622-5.339l-1.328-.312c3.85.906 6.53 4.814 6.014 8.75 0 0-4.285 28.798-4.362 56.778-.077 27.98 2.063 43.976 2.063 43.976.725 7.309-4.636 13.337-11.973 13.466l3.703-.065c-7.337.128-13.64-5.713-13.833-13.049 0 0-1.328-6.265 1.692-43.17 3.02-36.903 9.402-61.035 9.402-61.035z"/>
            </g>
            <path fill="#EDFDFE" fill-opacity=".889" d="M979.877 207.326c1.05-26.211 23.167-47.46 49.388-47.46h21.056c26.225 0 48.336 21.236 49.387 47.46l17.307 431.774c1.682 41.975-31 76.003-73.02 76.003h-8.404c-42.01 0-74.703-34.027-73.02-76.003l17.306-431.774z"/>
            <path fill="#223D61" d="M1057.65 61.64a6.994 6.994 0 0 0-8.81-4.803l-3.76 1.148c-3.786 1.155-6.269 5.238-5.565 9.142 0 0 8.797 45.604 11.036 86.935 2.238 41.33.308 69.474.308 69.474-.38 8.448 6.16 15.057 14.625 14.761l1.481-.051c8.458-.296 15.377-7.385 15.22-15.852 0 0 1.238-13.7-5.807-67.993-7.046-54.293-18.728-92.761-18.728-92.761zM1025.374 72.381a7.1 7.1 0 0 0-8.687-5.132l-3.773.984c-3.83 1-6.447 4.979-5.87 8.888 0 0 7.178 44.603 7.973 84.976.794 40.374-2.09 67.378-2.09 67.378-.69 8.427 5.604 15.26 14.074 15.26h1.482c8.463 0 15.631-6.862 15.767-15.316 0 0 1.713-12.937-3.434-66.112s-15.442-90.926-15.442-90.926z"/>
            <path fill="#A2D4D8" d="M1155.533 278.53c.336-25.225 19.423-45.192 42.624-44.598l18.63.477c23.205.594 43.25 21.551 44.775 46.837l25.096 416.323c2.44 40.473-25.707 72.511-62.888 71.56l-7.436-.191c-37.171-.952-66.87-34.47-66.331-74.868"/>
            <path fill="#355682" d="M1202.2 117.194c-1.16-3.57-4.628-5.277-7.754-3.81l-3.101 1.455c-3.122 1.464-4.952 5.63-4.103 9.328 0 0 10.41 43.135 15.002 82.761 4.59 39.626 4.8 66.93 4.8 66.93.231 8.176 6.187 13.939 13.317 12.868l1.247-.187c7.124-1.07 12.505-8.545 11.82-16.692 0 0 .15-13.318-9.35-64.99M1180.338 128.269c-.946-3.71-4.198-6.072-7.248-5.28l-3.012.78c-3.056.793-5.005 4.489-4.37 8.254 0 0 7.708 42.984 10.072 81.65 2.363 38.664 1.18 64.38 1.18 64.38-.199 8.035 5.186 14.84 12.04 15.201l1.2.063c6.847.36 12.355-5.899 12.105-13.982 0 0 .835-12.306-5.596-63.406"/>
            <g opacity=".676">
                <path fill="#4D8094" d="M797.528 433.578c1.02-26.21 23.106-47.458 49.345-47.458h-2.9c26.232 0 48.324 21.237 49.345 47.458l13.468 345.939c1.297 33.316-24.674 60.324-58.028 60.324h-6.67c-33.345 0-59.326-27.003-58.028-60.324l13.468-345.939z"/>
                <path fill="#355682" d="M865.27 307.42a6.979 6.979 0 0 0-8.634-5.104l-.55.147c-3.829 1.024-6.46 5.024-5.899 8.946 0 0 5.701 36.198 6.35 70.015.65 33.818-1.672 55.936-1.672 55.936-.583 7.335 4.902 13.282 12.264 13.282h-.385c7.356 0 13.577-5.963 13.684-13.31 0 0 1.398-10.354-2.808-54.895-4.206-44.54-12.35-75.017-12.35-75.017zM837.975 309.044a7.084 7.084 0 0 0-8.583-5.29l-.551.133c-3.847.932-6.536 4.86-6.03 8.793 0 0 5.063 35.238 5.136 68.236.074 32.998-2.596 54.208-2.596 54.208-.723 7.324 4.647 13.366 12.008 13.495l-.385-.007c7.355.128 13.682-5.716 13.915-13.078 0 0 1.567-9.742-1.88-53.262-3.447-43.52-11.034-73.228-11.034-73.228z"/>
            </g>
            <g opacity=".601">
                <path fill="#AFD0D2" d="M453.656 137.804c.93-26.209 22.942-47.455 49.18-47.455h-2.9c26.233 0 48.252 21.253 49.182 47.455l13.84 390.072c1.182 33.32-24.883 60.332-58.236 60.332h-6.67c-33.346 0-59.419-27.01-58.236-60.332l13.84-390.072z" opacity=".63"/>
                <path fill="#3C67A0" d="M509.629 16.313c.6-3.986 3.705-6.434 6.958-5.462l.465.14c3.243.969 5.629 5.036 5.348 9.096 0 0-3.028 37.48-1.956 72.389 1.072 34.91 3.861 55.689 3.861 55.689.948 8.655-20.74 9.23-21.214.542 0 0-1.566-8.652-.183-54.706M486.516 19.215c.756-4.014 4.196-6.438 7.67-5.418l.5.146c3.479 1.022 5.953 5.159 5.546 9.26 0 0-4.12 36.74-3.77 71.203.349 34.463 2.848 54.645 2.848 54.645.84 8.765-22.586 8.89-22.898.095 0 0-1.481-8.18 1.078-53.59"/>
            </g>
        </g>
    </g>
</svg>
