<?xml version="1.0" encoding="UTF-8"?>
<svg width="490px" height="459px" viewBox="0 0 490 459" version="1.1" xmlns="http://www.w3.org/2000/svg" xmlns:xlink="http://www.w3.org/1999/xlink">
    <!-- Generator: Sketch 43.1 (39012) - http://www.bohemiancoding.com/sketch -->
    <title>graphic / blog / splash</title>
    <desc>Created with Sketch.</desc>
    <defs>
        <rect id="path-1" x="0" y="0" width="570" height="500"></rect>
    </defs>
    <g id="Web" stroke="none" stroke-width="1" fill="none" fill-rule="evenodd">
        <g id="07-Blog" transform="translate(-876.000000, -131.000000)">
            <g id="intro-area" transform="translate(210.000000, 90.000000)">
                <g id="graphic-/-blog-/-splash" transform="translate(586.000000, 0.000000)">
                    <mask id="mask-2" fill="white">
                        <use xlink:href="#path-1"></use>
                    </mask>
                    <g id="Mask"></g>
                    <g id="keys" mask="url(#mask-2)">
                        <g transform="translate(80.000000, 44.000000)">
                            <g id="base" stroke="none" stroke-width="1" fill="none">
                                <rect id="Rectangle-4" fill="#E4EFF3" x="372" y="94" width="78" height="18" rx="9"></rect>
                                <path d="M414,105 L414,94.8444052 C414,84.352086 422.510588,75.8463808 432.999952,75.8463808 L451.236689,75.8463808 C461.730073,75.8463808 470.236641,67.3333329 470.236641,56.8383172 L470.236641,20.0073037 C470.236641,9.50944006 478.742073,0.99924011 489.227699,0.99924011 L534.022928,0.99924011" id="Path-2" stroke="#E4EFF3" stroke-width="8"></path>
                                <rect id="Rectangle-37" fill="#E4EFF4" x="0.587563914" y="106.424484" width="558.199697" height="252.199336" rx="51"></rect>
                            </g>
                            <ellipse id="Oval-23" stroke="#1DB598" stroke-width="0.896" fill="#1DB598" cx="71.1878896" cy="167.205195" rx="26.908448" ry="26.9759588"></ellipse>
                            <ellipse id="Oval-23-Copy" stroke="#1DB598" stroke-width="0.896" fill="#1DB598" cx="138.45901" cy="167.205195" rx="26.908448" ry="26.9759588"></ellipse>
                            <ellipse id="Oval-23-Copy-2" stroke="#1DB598" stroke-width="0.896" fill="#1DB598" cx="205.73013" cy="167.205195" rx="26.908448" ry="26.9759588"></ellipse>
                            <ellipse id="Oval-23-Copy-3" stroke="#1DB598" stroke-width="0.896" fill="#1DB598" cx="273.00125" cy="167.205195" rx="26.908448" ry="26.9759588"></ellipse>
                            <ellipse id="Oval-23-Copy-4" stroke="#1DB598" stroke-width="0.896" fill="#1DB598" cx="340.27237" cy="167.205195" rx="26.908448" ry="26.9759588"></ellipse>
                            <ellipse id="Oval-23-Copy-5" stroke="#1DB598" stroke-width="0.896" fill="#1DB598" cx="407.54349" cy="167.205195" rx="26.908448" ry="26.9759588"></ellipse>
                            <ellipse id="Oval-23-Copy-6" stroke="#1DB598" stroke-width="0.896" fill="#1DB598" cx="474.81461" cy="167.205195" rx="26.908448" ry="26.9759588"></ellipse>
                            <ellipse id="Oval-23-Copy-13" stroke="#1DB598" stroke-width="0.896" fill="#1DB598" cx="98.0963376" cy="232.846695" rx="26.908448" ry="26.9759588"></ellipse>
                            <ellipse id="Oval-23-Copy-12" stroke="#1DB598" stroke-width="0.896" fill="#1DB598" cx="165.367458" cy="232.846695" rx="26.908448" ry="26.9759588"></ellipse>
                            <ellipse id="Oval-23-Copy-11" stroke="#1DB598" stroke-width="0.896" fill="#1DB598" cx="232.638578" cy="232.846695" rx="26.908448" ry="26.9759588"></ellipse>
                            <ellipse id="Oval-23-Copy-10" stroke="#1DB598" stroke-width="0.896" fill="#1DB598" cx="299.909698" cy="232.846695" rx="26.908448" ry="26.9759588"></ellipse>
                            <ellipse id="Oval-23-Copy-9" stroke="#1DB598" stroke-width="0.896" fill="#1DB598" cx="368.077766" cy="233.745893" rx="18.8359136" ry="18.8831712"></ellipse>
                            <ellipse id="Oval-23-Copy-8" stroke="#1DB598" stroke-width="0.896" fill="#1DB598" cx="434.451938" cy="232.846695" rx="26.908448" ry="26.9759588"></ellipse>
                            <ellipse id="Oval-23-Copy-7" stroke="#1DB598" stroke-width="0.896" fill="#1DB598" cx="501.723058" cy="232.846695" rx="26.908448" ry="26.9759588"></ellipse>
                            <ellipse id="Oval-23-Copy-20" stroke="#1DB598" stroke-width="0.896" fill="#1DB598" cx="61.3214586" cy="294.8914" rx="26.908448" ry="26.9759588"></ellipse>
                            <ellipse id="Oval-23-Copy-19" stroke="#1DB598" stroke-width="0.896" fill="#1DB598" cx="128.592579" cy="294.8914" rx="26.908448" ry="26.9759588"></ellipse>
                            <ellipse id="Oval-23-Copy-18" stroke="#1DB598" stroke-width="0.896" fill="#1DB598" cx="195.863699" cy="294.8914" rx="26.908448" ry="26.9759588"></ellipse>
                            <ellipse id="Oval-23-Copy-17" stroke="#1DB598" stroke-width="0.896" fill="#1DB598" cx="263.134819" cy="294.8914" rx="26.908448" ry="26.9759588"></ellipse>
                            <ellipse id="Oval-23-Copy-16" stroke="#1DB598" stroke-width="0.896" fill="#1DB598" cx="330.405939" cy="294.8914" rx="26.908448" ry="26.9759588"></ellipse>
                            <ellipse id="Oval-23-Copy-15" stroke="#1DB598" stroke-width="0.896" fill="#1DB598" cx="397.677059" cy="294.8914" rx="26.908448" ry="26.9759588"></ellipse>
                            <ellipse id="Oval-23-Copy-14" stroke="#1DB598" stroke-width="0.896" fill="#1DB598" cx="464.948179" cy="294.8914" rx="26.908448" ry="26.9759588"></ellipse>
                        </g>
                    </g>
                    <g id="hands" mask="url(#mask-2)">
                        <g transform="translate(98.468354, 260.495430)">
                            <g id="right" transform="translate(314.405405, 0.000000)">
                                <path d="M14.6213193,176.9997 C16.6020541,144.273943 44.7757178,117.744476 77.5639337,117.744476 L75.9346506,117.744476 C108.716162,117.744476 136.89692,144.28039 138.877265,176.9997 L153.111487,412.177927 C155.672478,454.490697 123.392844,488.791974 80.9893523,488.791974 L72.5092319,488.791974 C30.1162857,488.791974 -2.17371073,454.487672 0.387097353,412.177927 L14.6213193,176.9997 Z" id="Rectangle-11-Copy" fill="#CFEAEC"></path>
                                <g id="Group-5" transform="translate(26.871858, 0.048927)" fill-opacity="0.290000021" fill="#3C5F8D">
                                    <path d="M63.0245854,9.16958656 C64.2246874,4.37333042 69.0708708,1.4971646 73.8641181,2.74948234 L75.1155549,3.07644158 C79.9019616,4.32697206 83.1749574,9.31010355 82.4581167,14.2075025 C82.4581167,14.2075025 75.0994768,59.870881 74.2626522,102.469317 C73.4258276,145.067753 76.2546483,170.579932 76.2546483,170.579932 C77.0963178,181.117958 69.1953534,189.660715 58.6331134,189.660715 L63.0830916,189.660715 C52.5093171,189.660715 43.5774192,181.088251 43.4661085,170.511973 C43.4661085,170.511973 41.6657249,159.851554 47.0871269,103.745732 C52.5085289,47.6399104 63.0245854,9.16958656 63.0245854,9.16958656 Z" id="Rectangle-12-Copy-6" style="mix-blend-mode: multiply;" transform="translate(63.028108, 96.110949) scale(-1, 1) rotate(9.000000) translate(-63.028108, -96.110949) "></path>
                                    <path d="M27.7519358,14.8284923 C28.9858933,10.0388048 33.8821439,7.14337125 38.6799403,8.35931322 L39.8770353,8.6627021 C44.678448,9.87956059 47.9461504,14.8297958 47.208287,19.7274776 C47.208287,19.7274776 39.8881281,63.762048 39.0513035,105.083921 C38.2144788,146.405794 41.0029779,170.580666 41.0029779,170.580666 C41.8669164,181.11923 33.9840046,189.662423 23.4217647,189.662423 L27.8717428,189.662423 C17.2979683,189.662423 8.3598854,181.098946 8.25621676,170.525502 C8.25621676,170.525502 6.45437613,160.746564 11.8757781,106.322086 C17.2971801,51.8976073 27.7519358,14.8284923 27.7519358,14.8284923 Z" id="Rectangle-12-Copy-5" style="mix-blend-mode: multiply;" transform="translate(27.816759, 98.916097) scale(-1, 1) rotate(5.000000) translate(-27.816759, -98.916097) "></path>
                                </g>
                                <path d="M92.530526,9.16958656 C93.7168337,4.37333042 98.5520807,1.50899669 103.339491,2.77433344 L104.388495,3.05159048 C109.171813,4.31584585 112.449285,9.31010355 111.740683,14.2075025 C111.740683,14.2075025 104.466626,59.870881 103.63942,102.469317 C102.812214,145.067753 105.608519,170.579932 105.608519,170.579932 C106.440514,181.117958 98.5436805,189.660715 87.9709009,189.660715 L92.8069896,189.660715 C82.2340068,189.660715 73.3068905,181.088251 73.1968592,170.511973 C73.1968592,170.511973 71.4171696,159.851554 76.7762567,103.745732 C82.1353437,47.6399104 92.530526,9.16958656 92.530526,9.16958656 Z" id="Rectangle-12-Copy" fill="#3C5F8D" transform="translate(92.534008, 96.110949) scale(-1, 1) rotate(9.000000) translate(-92.534008, -96.110949) "></path>
                                <path d="M57.6633092,14.8284923 C58.8830833,10.0388048 63.7566787,7.15199181 68.5463064,8.37997832 L69.5684377,8.642037 C74.359177,9.8703085 77.6254063,14.8297958 76.8960241,19.7274776 C76.8960241,19.7274776 69.660005,63.762048 68.832799,105.083921 C68.0055931,146.405794 70.7620404,170.580666 70.7620404,170.580666 C71.6160486,181.11923 63.7370599,189.662423 53.1642803,189.662423 L58.000369,189.662423 C47.4273862,189.662423 38.4941559,181.098946 38.3916788,170.525502 C38.3916788,170.525502 36.610549,160.746564 41.9696361,106.322086 C47.3287231,51.8976073 57.6633092,14.8284923 57.6633092,14.8284923 Z" id="Rectangle-12-Copy-2" fill="#3C5F8D" transform="translate(57.727387, 98.916097) scale(-1, 1) rotate(5.000000) translate(-57.727387, -98.916097) "></path>
                            </g>
                            <g id="left" transform="translate(119.331377, 324.559857) rotate(-10.000000) translate(-119.331377, -324.559857) translate(42.331377, 78.559857)">
                                <path d="M14.6213193,179.242452 C16.6020541,146.516695 44.7757178,119.987228 77.5639337,119.987228 L75.9346506,119.987228 C108.716162,119.987228 136.89692,146.523142 138.877265,179.242452 L153.111487,414.420679 C155.672478,456.733449 123.392844,491.034726 80.9893523,491.034726 L72.5092319,491.034726 C30.1162857,491.034726 -2.17371073,456.730424 0.387097353,414.420679 L14.6213193,179.242452 Z" id="Rectangle-11-Copy-2" fill="#CFEAEC"></path>
                                <g id="Group-3" transform="translate(80.752017, 87.232670) rotate(3.000000) translate(-80.752017, -87.232670) translate(41.004691, 2.568785)" fill-opacity="0.280000001" fill="#3C5F8D">
                                    <path d="M59.9018303,7.62072551 C61.0113734,2.80070379 65.7714093,-0.0160133391 70.5326374,1.32912051 L68.6272376,0.790810291 C73.3889272,2.13607452 76.6892546,7.19458499 76.0292931,12.1009571 C76.0292931,12.1009571 70.083086,51.8921086 69.3924377,89.909119 C68.7017894,127.926129 71.0897248,151.527949 71.0897248,151.527949 C71.7549611,160.472315 65.0289521,167.723156 56.0676335,167.723156 L60.5911501,167.723156 C51.6294419,167.723156 44.0763685,160.460926 43.9747303,151.490325 C43.9747303,151.490325 42.4895346,141.119945 46.9639273,91.0482568 C51.43832,40.9765685 59.9018303,7.62072551 59.9018303,7.62072551 Z" id="Rectangle-12-Copy-8" style="mix-blend-mode: multiply;" transform="translate(60.120341, 84.234588) rotate(2.000000) translate(-60.120341, -84.234588) "></path>
                                    <path d="M24.0034328,12.9538143 C25.1477175,8.13967939 29.9458199,5.29446248 34.7194547,6.59861505 L32.7694358,6.0658717 C37.5434466,7.37012698 40.8356128,12.3921122 40.154472,17.298351 C40.154472,17.298351 34.2475937,55.4876292 33.5569454,92.2506044 C32.8662971,129.01358 35.2199492,151.319318 35.2199492,151.319318 C35.9041197,160.254477 29.1934598,167.497855 20.2321413,167.497855 L24.7556579,167.497855 C15.7939496,167.497855 8.23507235,160.237363 8.13950648,151.261965 C8.13950648,151.261965 6.65404237,141.772182 11.128435,93.3521664 C15.6028277,44.9321509 24.0034328,12.9538143 24.0034328,12.9538143 Z" id="Rectangle-12-Copy-7" style="mix-blend-mode: multiply;" transform="translate(24.284849, 86.763255) rotate(5.000000) translate(-24.284849, -86.763255) "></path>
                                </g>
                                <path d="M94.769812,11.4123385 C95.9561197,6.61608234 100.791367,3.75174861 105.578777,5.01708536 L106.627781,5.2943424 C111.411099,6.55859776 114.688571,11.5528555 113.979969,16.4502544 C113.979969,16.4502544 106.705912,62.1136329 105.878706,104.712069 C105.0515,147.310505 107.847805,172.822684 107.847805,172.822684 C108.6798,183.360709 100.782966,191.903467 90.2101869,191.903467 L95.0462756,191.903467 C84.4732928,191.903467 75.5461765,183.331003 75.4361452,172.754725 C75.4361452,172.754725 73.6564556,162.094306 79.0155427,105.988484 C84.3746297,49.8826623 94.769812,11.4123385 94.769812,11.4123385 Z" id="Rectangle-12-Copy-4" fill="#3C5F8D" transform="translate(94.773294, 98.353701) rotate(2.000000) translate(-94.773294, -98.353701) "></path>
                                <path d="M57.6633092,17.0712442 C58.8830833,12.2815568 63.7566787,9.39474373 68.5463064,10.6227302 L69.5684377,10.8847889 C74.359177,12.1130604 77.6254063,17.0725477 76.8960241,21.9702295 C76.8960241,21.9702295 69.660005,66.0047999 68.832799,107.326673 C68.0055931,148.648546 70.7620404,172.823418 70.7620404,172.823418 C71.6160486,183.361981 63.7370599,191.905175 53.1642803,191.905175 L58.000369,191.905175 C47.4273862,191.905175 38.4941559,183.341698 38.3916788,172.768254 C38.3916788,172.768254 36.610549,162.989316 41.9696361,108.564837 C47.3287231,54.1403592 57.6633092,17.0712442 57.6633092,17.0712442 Z" id="Rectangle-12-Copy-3" fill="#3C5F8D" transform="translate(57.727387, 101.158849) rotate(5.000000) translate(-57.727387, -101.158849) "></path>
                            </g>
                        </g>
                    </g>
                </g>
            </g>
        </g>
    </g>
</svg>