<svg xmlns="http://www.w3.org/2000/svg" xmlns:xlink="http://www.w3.org/1999/xlink" width="174" height="424" viewBox="0 0 174 424">
    <defs>
        <path id="a" d="M0 0h395v501H0z"/>
    </defs>
    <g fill="none" fill-rule="evenodd" transform="translate(-89 -77)">
        <mask id="b" fill="#fff">
            <use xlink:href="#a"/>
        </mask>
        <g mask="url(#b)">
            <path fill="#CFEAEC" d="M97.442 381.514c2.4-36.644 34.123-66.35 70.835-66.35h15.831c36.722 0 68.436 29.704 70.835 66.35l18.612 284.215c3.086 47.122-32.689 85.321-79.907 85.321h-34.911c-47.217 0-82.992-38.204-79.907-85.32l18.612-284.216z"/>
            <path fill="#3C5F8D" d="M165.997 84.873c-1.62-6.409-7.7-9.155-13.575-6.135l1.01-.52c-5.877 3.021-9.652 10.74-8.458 17.232 0 0 16.068 83.727 23.6 158.912 7.531 75.184 8.836 134.31 8.836 134.31.367 11.098 9.627 19.311 20.687 18.344l-1.765.154c11.058-.967 19.526-10.737 18.743-21.803 0 0-.759-32.843-15.564-131.44-14.806-98.596-33.514-169.054-33.514-169.054z"/>
            <path fill="#2A4871" d="M198.398 241.024c.273 2.005.544 4.023.813 6.054.59 4.457 1.15 8.77 1.685 12.942-12.225 57.746-22.136 107.852-22.136 107.852a5.554 5.554 0 0 1-1.89 3.196c-.012-1.675-.103-12.53-.635-29.615 4.34-20.401 11.552-53.614 22.163-100.429z" opacity=".489"/>
            <path fill="#3C5F8D" d="M231.577 108.02c3.357-5.686 10.498-7.264 15.948-3.528l-1.04-.713c5.45 3.737 7.487 11.573 4.611 17.51 0 0-37.43 73.517-54.705 144.12-17.275 70.603-25.981 125.048-25.981 125.048-1.984 11.487-12.8 18.673-24.148 16.053l3.67.847c-11.353-2.62-18.73-14.015-16.291-25.4 0 0 4.662-29.48 32.194-121.368 27.532-91.886 65.742-152.57 65.742-152.57z"/>
        </g>
    </g>
</svg>
