<svg xmlns="http://www.w3.org/2000/svg" xmlns:xlink="http://www.w3.org/1999/xlink" width="320" height="233" viewBox="0 0 320 233">
    <defs>
        <path id="a" d="M0 0h320v834H0z"/>
        <path id="c" d="M0 0h614.996v307H0z"/>
    </defs>
    <g fill="none" fill-rule="evenodd" transform="translate(0 -578)">
        <mask id="b" fill="#fff">
            <use xlink:href="#a"/>
        </mask>
        <use fill="#F2F7F9" xlink:href="#a"/>
        <g mask="url(#b)">
            <g transform="translate(-27.322 580.495)">
                <ellipse cx="216.543" cy="113.533" stroke="#3C5F8D" stroke-linecap="round" stroke-linejoin="round" stroke-width="24.354" rx="101.287" ry="101.403"/>
                <ellipse cx="216.543" cy="113.533" stroke="#3C5F8D" stroke-dasharray="18.41399917602539,5.939999914169312" stroke-linecap="round" stroke-linejoin="round" stroke-width="3.564" rx="113.168" ry="113.298"/>
                <path fill="#3C5F8D" d="M34.167 227.62C15.302 227.62.01 212.31.01 193.423s15.293-34.198 34.158-34.198c18.865 0 34.158 15.311 34.158 34.198S53.032 227.62 34.167 227.62zm0-59.457l-15.19 4.95-9.387 12.96v16.02l9.388 12.961 15.19 4.95 15.188-4.95 9.388-12.96v-16.02l-9.388-12.96-15.189-4.95z"/>
                <ellipse cx="362.087" cy="182.85" fill="#1DB598" rx="46.039" ry="46.092"/>
                <ellipse cx="362.384" cy="183.147" stroke="#FFF" stroke-dasharray="2.969999957084656,10.09800024032593" stroke-width="13.662" rx="31.188" ry="31.224"/>
                <ellipse cx="88.226" cy="169.017" stroke="#3C5F8D" stroke-dasharray=".594" stroke-width="7.128" rx="21.089" ry="21.113"/>
                <ellipse cx="115.553" cy="207.152" stroke="#1DB598" stroke-width="17.388" rx="12.989" ry="13.014"/>
            </g>
            <g transform="rotate(74 -392.844 495.554)">
                <rect width="2.159" height="8.9" x="5.477" y="31.205" fill="#102445" rx="1.08" transform="rotate(14 6.556 35.655)"/>
                <rect width="2.159" height="8.9" x="2.515" y="30.216" fill="#102445" rx="1.08" transform="rotate(14 3.595 34.666)"/>
                <path fill="#B1DBDE" d="M2.596 10.784C1.45 7.65 2.526 3.296 5.012 1.045l-.79.716C6.7-.484 9.438.311 10.334 3.524l2.372 8.505c.667 2.39.674 6.265.013 8.66L9.955 30.727c-.887 3.22-4.314 5.687-7.643 5.512l2.626.138c-3.334-.175-5.315-2.932-4.428-6.15l2.754-9.996c.66-2.397.506-6.23-.348-8.57l-.32-.876z"/>
            </g>
            <g transform="rotate(-20 2201.367 -179.252)">
                <path fill="#CFEAEC" d="M.367 7.208C-.403 3.318 2.185.164 6.158.164H3.21c3.968 0 7.748 3.164 8.441 7.065l2.888 16.246c.088.492.065 1.282-.049 1.757l-2.422 10.113c-.924 3.857-4.885 6.984-8.858 6.984h2.948c-3.968 0-6.522-3.147-5.704-7.029L3.09 22.783a5.24 5.24 0 0 0 .01-1.756L.367 7.207z"/>
                <path fill="#B1DBDE" fill-opacity=".7" d="M2.376 17.634l.142 1.482 11.104-.158-.394-2z" style="mix-blend-mode:multiply"/>
                <rect width="2.159" height="5.064" x="7.54" y="38.167" fill="#102445" rx="1.08" transform="rotate(15 8.62 40.698)"/>
                <rect width="2.159" height="5.965" x="4.961" y="37.324" fill="#102445" rx="1.08" transform="rotate(15 6.04 40.307)"/>
            </g>
            <g transform="scale(-1 1) rotate(-71 339.278 535.955)">
                <rect width="2.159" height="7.8" x="10.483" y=".289" fill="#102445" rx="1.08" transform="rotate(16 11.562 4.189)"/>
                <rect width="2.159" height="7.8" x="14.261" y=".721" fill="#102445" rx="1.08" transform="rotate(16 15.34 4.621)"/>
                <path fill="#B1DBDE" d="M5.948 9.164c.703-3.65 4.268-6.242 7.963-5.788l-3.025-.372c3.695.454 6.123 3.785 5.422 7.444l-1.732 9.04c-.515 2.687-.881 7.086-.819 9.808l.402 17.549c.086 3.725-2.84 6.376-6.536 5.923l3.025.371c-3.695-.454-6.756-3.839-6.837-7.55L3.426 27.78c-.06-2.735.31-7.122.827-9.809l1.695-8.807z"/>
            </g>
            <path fill="#99CCD0" d="M234.147 683.063l2.428 9.737-7.883 1.888a5.1 5.1 0 0 1-6.13-3.721l.014.057a4.992 4.992 0 0 1 3.688-6.073l7.883-1.888z"/>
            <path fill="#3C5F8D" d="M232.209 682.587l3.185 12.773-7.158 1.698a6.706 6.706 0 0 1-8.043-4.896l.019.074a6.53 6.53 0 0 1 4.84-7.952l7.157-1.697z"/>
            <path fill="#CFEAEC" d="M199.517 688.539c1.676-6.342 8.195-10.156 14.55-8.52l4.608 1.185c8.472 2.18 13.116 10.683 10.376 18.982l-15.406 46.67c-2.057 6.232-8.725 9.454-14.877 7.2l-3.948-1.445c-6.16-2.255-9.794-9.224-8.118-15.567l12.815-48.505z"/>
            <path fill="#1DB598" d="M187.418 728.855l-3.173 8.756c-.425 1.173-.216 2.963.469 4l7.401 11.222 3.96 5.562c.433.607 1.358.896 2.057.649l16.644-5.895a1.352 1.352 0 0 0 .824-1.72l.234.66c-.666-1.877-.788-4.961-.275-6.878l1.408-5.261-29.549-11.095z"/>
            <path stroke="#0F9F84" stroke-linecap="round" stroke-linejoin="round" stroke-width="1.35" d="M188.555 735.255s3.93 2.255 8.785 3"/>
            <path fill="#0FA084" d="M192.625 752.71s-7.545-9.563-7.546-17.55c-3.939 3.295-6.644 6.238-6.644 6.238-.513.538-.69 1.54-.403 2.217l5.25 12.391c.292.687 1.066.966 1.735.622l7.608-3.918z"/>
            <path fill="#2A4871" d="M209.431 684.62c-3.339-2.755-7.542-.898-9.383 4.134l-14.59 39.868a2.059 2.059 0 0 0 1.32 2.695l30.438 9.788a1.692 1.692 0 0 0 2.176-1.19l10.392-39.743c2.498-9.554-3.461-17.916-7.73-18.246l1.075 1.33c1.316 1.626 2.808 4.514 1.325 5.893 0 0 3.01-.828-.97.355-3.98 1.183-3.43.642-3.43.642-2.074-.076-5.08-1.176-6.728-2.47l-3.895-3.057z"/>
            <g>
                <path fill="#CFEAEC" d="M263.78 718.026c4.214.093 8.34-3.174 9.218-7.305l-.872 4.101c.878-4.127-1.828-7.544-6.037-7.632l-15.44-.322c-4.21-.088-10.892-1.178-14.924-2.435l-16.618-5.18c-4.03-1.257-7.884 1.094-8.604 5.24l.416-2.393c-.72 4.15 2.005 8.361 6.103 9.408l16.113 4.116c4.091 1.045 10.83 1.967 15.038 2.06l15.607.342z"/>
                <path fill="#A9D5D9" d="M220.677 712.362l3.588-11.734-9.727-2.877a6.231 6.231 0 0 0-7.717 4.153l.02-.069a6.105 6.105 0 0 0 4.11 7.65l9.726 2.877z"/>
                <path fill="#3C5F8D" d="M218.262 714.522l5.026-16.437-11.252-3.314c-4.576-1.348-9.414 1.249-10.81 5.814l.022-.072a8.528 8.528 0 0 0 5.762 10.695l11.252 3.314z"/>
                <g fill="#102445" transform="scale(1 -1) rotate(55 824.432 -96.606)">
                    <rect width="2.127" height="7.581" x="2.603" y=".101" rx="1.064" transform="rotate(42 3.666 3.891)"/>
                    <rect width="2.127" height="7.581" x="4.601" y="2.148" rx="1.064" transform="rotate(43 5.665 5.938)"/>
                </g>
            </g>
            <path fill="#B1DBDE" fill-opacity=".75" d="M201.939 685.912l22.876-.799 2.692 1.98-26.21.915z" style="mix-blend-mode:multiply"/>
            <g fill="#B1DBDE">
                <path d="M163.077 713.923a2.93 2.93 0 0 0 3.756-1.753c.554-1.521-.125-4.537 1.633-7.584 1.759-3.046-6.524 2.5-7.353 4.78-.83 2.278.444 4.004 1.964 4.557zM159.558 702.052a1.875 1.875 0 0 0 2.404 1.12c.974-.354 2.173-1.927 4.39-2.319 2.216-.39-4.394-1.993-5.367-1.638-.974.354-1.78 1.864-1.427 2.837zM261.554 650.119a2.93 2.93 0 0 1-1.074 4.003c-1.402.81-4.49.664-7.185 2.925-2.695 2.261 1.095-6.723 3.43-8.071 2.335-1.348 4.02-.258 4.83 1.143z"/>
            </g>
            <g>
                <path fill="#CFEAEC" d="M187.33 662.11a4.405 4.405 0 0 1 4.33-4.483l52.472-.916a4.413 4.413 0 0 1 4.485 4.329l.321 18.425a5.666 5.666 0 0 1-5.57 5.763l-49.949.872a5.663 5.663 0 0 1-5.768-5.565l-.322-18.426z"/>
                <g fill="#CFEBEC">
                    <path d="M190.272 669.274l-3.802.066c-.59.01-1.063.507-1.053 1.105l.094 5.351c.01.597.5 1.077 1.09 1.067l3.802-.066a1.082 1.082 0 0 0 1.053-1.105l-.093-5.351a1.082 1.082 0 0 0-1.09-1.067M250.454 668.629l-3.802.066c-.59.01-1.064.508-1.053 1.105l.093 5.352c.01.597.502 1.077 1.09 1.067l3.803-.067a1.082 1.082 0 0 0 1.053-1.104l-.093-5.352a1.082 1.082 0 0 0-1.091-1.067"/>
                </g>
                <g transform="translate(214.321 667.081)">
                    <rect width="9.074" height="5.111" x=".044" y=".034" fill="#102445" rx="2.556"/>
                    <ellipse cx="1.89" cy="2.471" fill="#203962" rx="1" ry="1"/>
                    <ellipse cx="6.966" cy="2.471" fill="#203962" rx="1" ry="1"/>
                </g>
                <g fill="#B1DBDE">
                    <path d="M199.038 680.222l-8.48.148c-1.099.019-2.013-.876-2.033-1.99l-.033-1.945c-.02-1.113.863-2.04 1.962-2.059l8.48-.148c1.098-.019 2.012.876 2.032 1.99l.034 1.945c.02 1.113-.863 2.04-1.962 2.059M246.818 679.388l-8.48.148c-1.098.019-2.013-.876-2.032-1.99l-.034-1.945c-.02-1.113.863-2.04 1.962-2.059l8.48-.148c1.098-.019 2.013.876 2.033 1.99l.034 1.945c.019 1.113-.864 2.04-1.963 2.059"/>
                </g>
                <g fill="#CFEBEC">
                    <path d="M216.614 655.397l-.99.018a.838.838 0 0 0-.814.854l.037 2.087a.837.837 0 0 0 .844.825l.989-.017a.837.837 0 0 0 .814-.854l-.036-2.087a.838.838 0 0 0-.844-.826"/>
                    <path d="M219.119 653.5l-.886.016a.89.89 0 0 0-.865.907l.066 3.836a.89.89 0 0 0 .897.877l.886-.016a.89.89 0 0 0 .865-.907l-.067-3.836a.89.89 0 0 0-.896-.877"/>
                    <path d="M221.865 656.109l-1.108.02a.777.777 0 0 0-.756.793l.025 1.404c.007.43.36.774.783.766l1.108-.019a.777.777 0 0 0 .756-.793l-.024-1.405a.777.777 0 0 0-.784-.766"/>
                </g>
                <g fill="#102445" stroke="#102445" stroke-linecap="round" stroke-linejoin="round" stroke-width="2.519">
                    <path d="M193.544 671.147c0-.01-.003-.018-.003-.027a1.19 1.19 0 0 1 1.16-1.218 1.19 1.19 0 0 1 1.203 1.177l-.002.027-2.358.04zM241.678 670.307c0-.01-.003-.018-.003-.027a1.19 1.19 0 0 1 1.16-1.218 1.19 1.19 0 0 1 1.204 1.177c0 .009-.003.017-.003.027l-2.358.04z"/>
                </g>
                <g transform="rotate(-1 37886.31 -10370.717)">
                    <rect width="61.166" height="7.135" x=".789" fill="#3C5F8D" rx="1.575"/>
                    <path fill="#F2F7F9" d="M.383 2.029h62.022v3.078H.383z"/>
                    <path stroke="#FF2B2B" stroke-linecap="round" stroke-width="3.129" d="M48.462 10.113a23.633 23.633 0 0 0-33.753 0M.391 10.503c0-3.992 3.194-7.228 7.134-7.228 3.94 0 7.133 3.236 7.133 7.228 0 3.993-3.193 7.229-7.133 7.229S.391 14.496.391 10.503zM48.55 10.503c0-3.992 3.194-7.228 7.134-7.228 3.94 0 7.133 3.236 7.133 7.228 0 3.993-3.194 7.229-7.133 7.229-3.94 0-7.134-3.236-7.134-7.229z"/>
                </g>
            </g>
            <g stroke="#4A4A4A" stroke-width="1.188">
                <path d="M5.628 808.724c-18.054-.766-32.455-15.662-32.455-33.925 0-18.753 15.185-33.956 33.917-33.956 4.864 0 9.489 1.026 13.671 2.872l70.55 22.708c10.27 1.637 18.119 10.544 18.119 21.286 0 11.904-9.64 21.554-21.53 21.554-1.597 0-3.154-.174-4.652-.504H5.623l.005-.035z"/>
                <path stroke-dasharray="1.188000047206879,1.188000047206879" d="M44.24 768.152a24.63 24.63 0 0 1-7.99-18.19c0-13.63 11.039-24.681 24.654-24.681 9.262 0 17.332 5.113 21.545 12.674l23.307 36.18-.563.438a21.632 21.632 0 0 1 4.721 13.524c0 11.99-9.708 21.708-21.683 21.708-8.328 0-15.56-4.7-19.192-11.596l-24.8-30.057z"/>
                <path stroke-dasharray="1.188000047206879,1.188000047206879" d="M430.967 719.946c10.734-9.862 17.463-24.024 17.463-39.76 0-29.796-24.127-53.951-53.89-53.951-20.246 0-37.884 11.177-47.094 27.705L296.5 733.026l1.23.957a47.285 47.285 0 0 0-10.32 29.562c0 26.207 21.22 47.451 47.397 47.451 18.205 0 34.012-10.275 41.952-25.348l54.208-65.702z" opacity=".509"/>
            </g>
        </g>
    </g>
</svg>
