<?xml version="1.0" encoding="utf-8"?>
<!-- Generator: Adobe Illustrator 16.0.0, SVG Export Plug-In . SVG Version: 6.00 Build 0)  -->
<!DOCTYPE svg PUBLIC "-//W3C//DTD SVG 1.1//EN" "http://www.w3.org/Graphics/SVG/1.1/DTD/svg11.dtd">
<svg version="1.1" id="Layer_1" xmlns="http://www.w3.org/2000/svg" xmlns:xlink="http://www.w3.org/1999/xlink" x="0px" y="0px"
	 width="126px" height="126px" viewBox="0 0 126 126" enable-background="new 0 0 126 126" xml:space="preserve">
<g>
	<path fill="none" stroke="#3C5F8D" stroke-width="2.7" d="M63.435,39.75l0.15,20.752"/>
	
		<ellipse transform="matrix(0.7071 -0.7071 0.7071 0.7071 -5.3809 54.8404)" fill="none" stroke="#1DB598" stroke-width="2.508" cx="63.51" cy="33.916" rx="6.396" ry="6.449"/>
</g>
<g>
	<path fill="none" stroke="#3C5F8D" stroke-width="2.7" d="M42.913,54.754l19.782,6.271"/>
	
		<ellipse transform="matrix(-0.4539 -0.8911 0.8911 -0.4539 7.2397 110.1962)" fill="none" stroke="#1DB598" stroke-width="2.508" cx="37.388" cy="52.88" rx="6.396" ry="6.449"/>
</g>
<g>
	<path fill="none" stroke="#3C5F8D" stroke-width="2.7" d="M50.841,78.908l12.076-16.877"/>
	
		<ellipse transform="matrix(-0.9877 0.1563 -0.1563 -0.9877 107.187 158.737)" fill="none" stroke="#1DB598" stroke-width="2.508" cx="47.351" cy="83.584" rx="6.396" ry="6.449"/>
</g>
<g>
	<path fill="none" stroke="#3C5F8D" stroke-width="2.7" d="M76.263,78.832l-12.319-16.7"/>
	
		<ellipse transform="matrix(-0.1565 0.9877 -0.9877 -0.1565 174.6594 18.0295)" fill="none" stroke="#1DB598" stroke-width="2.508" cx="79.631" cy="83.597" rx="6.396" ry="6.449"/>
</g>
<g>
	<path fill="none" stroke="#3C5F8D" stroke-width="2.7" d="M84.046,54.631l-19.689,6.556"/>
	
		<ellipse transform="matrix(0.8909 0.4541 -0.4541 0.8909 33.7951 -34.927)" fill="none" stroke="#1DB598" stroke-width="2.508" cx="89.618" cy="52.9" rx="6.396" ry="6.449"/>
</g>
<ellipse fill="#1DB598" cx="63.51" cy="61.488" rx="7.703" ry="7.65"/>
</svg>
