<svg xmlns="http://www.w3.org/2000/svg" width="58" height="58" viewBox="0 0 58 58">
    <g fill="none" fill-rule="evenodd">
        <path fill="#2DACF1" stroke="#D7E5EB" stroke-width="4" d="M28.55 55.099c14.662 0 26.549-11.887 26.549-26.55C55.099 13.887 43.212 2 28.549 2 13.887 2 2 13.887 2 28.55c0 14.662 11.887 26.549 26.55 26.549z"/>
        <path fill="#FFF" d="M40.58 20.305a9.592 9.592 0 0 1-2.982 1.099 4.756 4.756 0 0 0-3.425-1.432c-2.59 0-4.69 2.031-4.69 4.537 0 .355.04.7.12 1.033-3.9-.19-7.357-1.994-9.673-4.742a4.414 4.414 0 0 0-.635 2.283c0 1.574.828 2.963 2.088 3.777a4.82 4.82 0 0 1-2.127-.566v.055c0 2.2 1.618 4.033 3.766 4.449-.393.106-.808.16-1.236.16a4.79 4.79 0 0 1-.884-.081c.598 1.802 2.33 3.114 4.384 3.149a9.618 9.618 0 0 1-5.829 1.943c-.378 0-.753-.02-1.119-.062a13.635 13.635 0 0 0 7.194 2.037c8.632 0 13.351-6.913 13.351-12.908 0-.198-.003-.395-.011-.588a9.32 9.32 0 0 0 2.34-2.349 9.585 9.585 0 0 1-2.695.714 4.578 4.578 0 0 0 2.063-2.508"/>
    </g>
</svg>
