<svg class="marks" width="849" height="762" viewBox="0 0 849 762" version="1.1" xmlns="http://www.w3.org/2000/svg" xmlns:xlink="http://www.w3.org/1999/xlink"><rect width="849" height="762" style="fill: #ffffff;"></rect><g transform="translate(96,44)"><g class="mark-group role-frame root"><g transform="translate(0,0)"><path class="background" d="M0.5,0.5h671v588h-671Z" style="fill: none; stroke: #ddd;"></path><g><g class="mark-group role-axis"><g transform="translate(0.5,0.5)"><path class="background" d="M0,0h0v0h0Z" style="pointer-events: none; fill: none;"></path><g><g class="mark-rule role-axis-grid" style="pointer-events: none;"><line transform="translate(0,588)" x2="671" y2="0" style="fill: none; stroke: #ddd; stroke-width: 1; opacity: 1;"></line><line transform="translate(0,559)" x2="671" y2="0" style="fill: none; stroke: #ddd; stroke-width: 1; opacity: 1;"></line><line transform="translate(0,529)" x2="671" y2="0" style="fill: none; stroke: #ddd; stroke-width: 1; opacity: 1;"></line><line transform="translate(0,500)" x2="671" y2="0" style="fill: none; stroke: #ddd; stroke-width: 1; opacity: 1;"></line><line transform="translate(0,470)" x2="671" y2="0" style="fill: none; stroke: #ddd; stroke-width: 1; opacity: 1;"></line><line transform="translate(0,441)" x2="671" y2="0" style="fill: none; stroke: #ddd; stroke-width: 1; opacity: 1;"></line><line transform="translate(0,412)" x2="671" y2="0" style="fill: none; stroke: #ddd; stroke-width: 1; opacity: 1;"></line><line transform="translate(0,382)" x2="671" y2="0" style="fill: none; stroke: #ddd; stroke-width: 1; opacity: 1;"></line><line transform="translate(0,353)" x2="671" y2="0" style="fill: none; stroke: #ddd; stroke-width: 1; opacity: 1;"></line><line transform="translate(0,323)" x2="671" y2="0" style="fill: none; stroke: #ddd; stroke-width: 1; opacity: 1;"></line><line transform="translate(0,294)" x2="671" y2="0" style="fill: none; stroke: #ddd; stroke-width: 1; opacity: 1;"></line><line transform="translate(0,265)" x2="671" y2="0" style="fill: none; stroke: #ddd; stroke-width: 1; opacity: 1;"></line><line transform="translate(0,235)" x2="671" y2="0" style="fill: none; stroke: #ddd; stroke-width: 1; opacity: 1;"></line><line transform="translate(0,206)" x2="671" y2="0" style="fill: none; stroke: #ddd; stroke-width: 1; opacity: 1;"></line><line transform="translate(0,176)" x2="671" y2="0" style="fill: none; stroke: #ddd; stroke-width: 1; opacity: 1;"></line><line transform="translate(0,147)" x2="671" y2="0" style="fill: none; stroke: #ddd; stroke-width: 1; opacity: 1;"></line><line transform="translate(0,118)" x2="671" y2="0" style="fill: none; stroke: #ddd; stroke-width: 1; opacity: 1;"></line><line transform="translate(0,88)" x2="671" y2="0" style="fill: none; stroke: #ddd; stroke-width: 1; opacity: 1;"></line><line transform="translate(0,59)" x2="671" y2="0" style="fill: none; stroke: #ddd; stroke-width: 1; opacity: 1;"></line><line transform="translate(0,29)" x2="671" y2="0" style="fill: none; stroke: #ddd; stroke-width: 1; opacity: 1;"></line><line transform="translate(0,0)" x2="671" y2="0" style="fill: none; stroke: #ddd; stroke-width: 1; opacity: 1;"></line></g></g></g></g><g class="mark-rect role-mark marks"><path d="M5.59166666666664,532.1034705h100.64999999999999v55.89652950000004h-100.64999999999999Z" style="fill: #f20007;"></path><path d="M117.42499999999997,526.0996377h100.64999999999999v61.90036229999998h-100.64999999999999Z" style="fill: #fd8705;"></path><path d="M229.2583333333333,520.5836538h100.64999999999999v67.41634620000002h-100.64999999999999Z" style="fill: #f20007;"></path><path d="M341.09166666666664,467.23215h100.64999999999999v120.76785000000001h-100.64999999999999Z" style="fill: #fd8705;"></path><path d="M452.92499999999995,462.0324366h100.64999999999999v125.96756340000002h-100.64999999999999Z" style="fill: #fd8705;"></path><path d="M564.7583333333332,10.36457310000003h100.64999999999999v577.6354269h-100.64999999999999Z" style="fill: #2f60ce;"></path></g><g class="mark-group role-legend"><g transform="translate(689,0)"><path class="background" d="M0,0h44v56h-44Z" style="pointer-events: none; fill: none;"></path><g><g class="mark-group role-legend-entry"><g transform="translate(0,16)"><path class="background" d="M0,0h0v0h0Z" style="pointer-events: none; fill: none;"></path><g><g class="mark-group role-scope"><g transform="translate(0,0)"><path class="background" d="M0,0h43.123046875v12h-43.123046875Z" style="pointer-events: none; fill: none; opacity: 1;"></path><g><g class="mark-symbol role-legend-symbol" style="pointer-events: none;"><path transform="translate(6,6)" d="M-5,-5h10v10h-10Z" style="fill: #fd8705; stroke-width: 1.5; opacity: 1;"></path></g><g class="mark-text role-legend-label" style="pointer-events: none;"><text text-anchor="start" transform="translate(16,9)" style="font-family: sans-serif; font-size: 10px; fill: #000; opacity: 1;">AWS</text></g></g></g><g transform="translate(0,14)"><path class="background" d="M0,0h43.123046875v12h-43.123046875Z" style="pointer-events: none; fill: none; opacity: 1;"></path><g><g class="mark-symbol role-legend-symbol" style="pointer-events: none;"><path transform="translate(6,6)" d="M-5,-5h10v10h-10Z" style="fill: #2f60ce; stroke-width: 1.5; opacity: 1;"></path></g><g class="mark-text role-legend-label" style="pointer-events: none;"><text text-anchor="start" transform="translate(16,9)" style="font-family: sans-serif; font-size: 10px; fill: #000; opacity: 1;">Azure</text></g></g></g><g transform="translate(0,28)"><path class="background" d="M0,0h43.123046875v12h-43.123046875Z" style="pointer-events: none; fill: none; opacity: 1;"></path><g><g class="mark-symbol role-legend-symbol" style="pointer-events: none;"><path transform="translate(6,6)" d="M-5,-5h10v10h-10Z" style="fill: #f20007; stroke-width: 1.5; opacity: 1;"></path></g><g class="mark-text role-legend-label" style="pointer-events: none;"><text text-anchor="start" transform="translate(16,9)" style="font-family: sans-serif; font-size: 10px; fill: #000; opacity: 1;">OCI</text></g></g></g></g></g></g></g><g class="mark-text role-legend-title" style="pointer-events: none;"><text text-anchor="start" transform="translate(0,9)" style="font-family: sans-serif; font-size: 11px; font-weight: bold; fill: #000; opacity: 1;">Cloud</text></g></g></g></g><g class="mark-text role-title" style="pointer-events: none;"><text text-anchor="middle" transform="translate(328.9755859375,-13)" style="font-family: sans-serif; font-size: 13px; font-weight: bold; fill: #000; opacity: 1;">FileWrite Benchmark (I/O Intensive)</text></g><g class="mark-group role-axis"><g transform="translate(0.5,588.5)"><path class="background" d="M0,0h0v0h0Z" style="pointer-events: none; fill: none;"></path><g><g class="mark-rule role-axis-tick" style="pointer-events: none;"><line transform="translate(55,0)" x2="0" y2="5" style="fill: none; stroke: #888; stroke-width: 1; opacity: 1;"></line><line transform="translate(167,0)" x2="0" y2="5" style="fill: none; stroke: #888; stroke-width: 1; opacity: 1;"></line><line transform="translate(279,0)" x2="0" y2="5" style="fill: none; stroke: #888; stroke-width: 1; opacity: 1;"></line><line transform="translate(390,0)" x2="0" y2="5" style="fill: none; stroke: #888; stroke-width: 1; opacity: 1;"></line><line transform="translate(502,0)" x2="0" y2="5" style="fill: none; stroke: #888; stroke-width: 1; opacity: 1;"></line><line transform="translate(614,0)" x2="0" y2="5" style="fill: none; stroke: #888; stroke-width: 1; opacity: 1;"></line></g><g class="mark-text role-axis-label" style="pointer-events: none;"><text text-anchor="end" transform="translate(54.916666666666636,7) rotate(270) translate(0,3)" style="font-family: sans-serif; font-size: 10px; fill: #000; opacity: 1;">VM.DenseIO2.16</text><text text-anchor="end" transform="translate(166.74999999999997,7) rotate(270) translate(0,3)" style="font-family: sans-serif; font-size: 10px; fill: #000; opacity: 1;">r5d.12xlarge</text><text text-anchor="end" transform="translate(278.5833333333333,7) rotate(270) translate(0,3)" style="font-family: sans-serif; font-size: 10px; fill: #000; opacity: 1;">BM.HPC2.36</text><text text-anchor="end" transform="translate(390.41666666666663,7) rotate(270) translate(0,3)" style="font-family: sans-serif; font-size: 10px; fill: #000; opacity: 1;">c5.9xlarge</text><text text-anchor="end" transform="translate(502.24999999999994,7) rotate(270) translate(0,3)" style="font-family: sans-serif; font-size: 10px; fill: #000; opacity: 1;">c4.8xlarge</text><text text-anchor="end" transform="translate(614.0833333333333,7) rotate(270) translate(0,3)" style="font-family: sans-serif; font-size: 10px; fill: #000; opacity: 1;">Standard_F32s_v2</text></g><g class="mark-rule role-axis-domain" style="pointer-events: none;"><line transform="translate(0,0)" x2="671" y2="0" style="fill: none; stroke: #888; stroke-width: 1; opacity: 1;"></line></g><g class="mark-text role-axis-title" style="pointer-events: none;"><text text-anchor="middle" transform="translate(335.5,105.501953125)" style="font-family: sans-serif; font-size: 11px; font-weight: bold; fill: #000; opacity: 1;">Instance Type</text></g></g></g></g><g class="mark-group role-axis"><g transform="translate(0.5,0.5)"><path class="background" d="M0,0h0v0h0Z" style="pointer-events: none; fill: none;"></path><g><g class="mark-rule role-axis-tick" style="pointer-events: none;"><line transform="translate(0,588)" x2="-5" y2="0" style="fill: none; stroke: #888; stroke-width: 1; opacity: 1;"></line><line transform="translate(0,559)" x2="-5" y2="0" style="fill: none; stroke: #888; stroke-width: 1; opacity: 1;"></line><line transform="translate(0,529)" x2="-5" y2="0" style="fill: none; stroke: #888; stroke-width: 1; opacity: 1;"></line><line transform="translate(0,500)" x2="-5" y2="0" style="fill: none; stroke: #888; stroke-width: 1; opacity: 1;"></line><line transform="translate(0,470)" x2="-5" y2="0" style="fill: none; stroke: #888; stroke-width: 1; opacity: 1;"></line><line transform="translate(0,441)" x2="-5" y2="0" style="fill: none; stroke: #888; stroke-width: 1; opacity: 1;"></line><line transform="translate(0,412)" x2="-5" y2="0" style="fill: none; stroke: #888; stroke-width: 1; opacity: 1;"></line><line transform="translate(0,382)" x2="-5" y2="0" style="fill: none; stroke: #888; stroke-width: 1; opacity: 1;"></line><line transform="translate(0,353)" x2="-5" y2="0" style="fill: none; stroke: #888; stroke-width: 1; opacity: 1;"></line><line transform="translate(0,323)" x2="-5" y2="0" style="fill: none; stroke: #888; stroke-width: 1; opacity: 1;"></line><line transform="translate(0,294)" x2="-5" y2="0" style="fill: none; stroke: #888; stroke-width: 1; opacity: 1;"></line><line transform="translate(0,265)" x2="-5" y2="0" style="fill: none; stroke: #888; stroke-width: 1; opacity: 1;"></line><line transform="translate(0,235)" x2="-5" y2="0" style="fill: none; stroke: #888; stroke-width: 1; opacity: 1;"></line><line transform="translate(0,206)" x2="-5" y2="0" style="fill: none; stroke: #888; stroke-width: 1; opacity: 1;"></line><line transform="translate(0,176)" x2="-5" y2="0" style="fill: none; stroke: #888; stroke-width: 1; opacity: 1;"></line><line transform="translate(0,147)" x2="-5" y2="0" style="fill: none; stroke: #888; stroke-width: 1; opacity: 1;"></line><line transform="translate(0,118)" x2="-5" y2="0" style="fill: none; stroke: #888; stroke-width: 1; opacity: 1;"></line><line transform="translate(0,88)" x2="-5" y2="0" style="fill: none; stroke: #888; stroke-width: 1; opacity: 1;"></line><line transform="translate(0,59)" x2="-5" y2="0" style="fill: none; stroke: #888; stroke-width: 1; opacity: 1;"></line><line transform="translate(0,29)" x2="-5" y2="0" style="fill: none; stroke: #888; stroke-width: 1; opacity: 1;"></line><line transform="translate(0,0)" x2="-5" y2="0" style="fill: none; stroke: #888; stroke-width: 1; opacity: 1;"></line></g><g class="mark-text role-axis-label" style="pointer-events: none;"><text text-anchor="end" transform="translate(-7,591)" style="font-family: sans-serif; font-size: 10px; fill: #000; opacity: 1;">0</text><text text-anchor="end" transform="translate(-7,561.6)" style="font-family: sans-serif; font-size: 10px; fill: #000; opacity: 1;">2,000,000</text><text text-anchor="end" transform="translate(-7,532.2)" style="font-family: sans-serif; font-size: 10px; fill: #000; opacity: 1;">4,000,000</text><text text-anchor="end" transform="translate(-7,502.8)" style="font-family: sans-serif; font-size: 10px; fill: #000; opacity: 1;">6,000,000</text><text text-anchor="end" transform="translate(-7,473.4)" style="font-family: sans-serif; font-size: 10px; fill: #000; opacity: 1;">8,000,000</text><text text-anchor="end" transform="translate(-7,444)" style="font-family: sans-serif; font-size: 10px; fill: #000; opacity: 1;">10,000,000</text><text text-anchor="end" transform="translate(-7,414.6)" style="font-family: sans-serif; font-size: 10px; fill: #000; opacity: 1;">12,000,000</text><text text-anchor="end" transform="translate(-7,385.20000000000005)" style="font-family: sans-serif; font-size: 10px; fill: #000; opacity: 1;">14,000,000</text><text text-anchor="end" transform="translate(-7,355.79999999999995)" style="font-family: sans-serif; font-size: 10px; fill: #000; opacity: 1;">16,000,000</text><text text-anchor="end" transform="translate(-7,326.4)" style="font-family: sans-serif; font-size: 10px; fill: #000; opacity: 1;">18,000,000</text><text text-anchor="end" transform="translate(-7,297)" style="font-family: sans-serif; font-size: 10px; fill: #000; opacity: 1;">20,000,000</text><text text-anchor="end" transform="translate(-7,267.59999999999997)" style="font-family: sans-serif; font-size: 10px; fill: #000; opacity: 1;">22,000,000</text><text text-anchor="end" transform="translate(-7,238.2)" style="font-family: sans-serif; font-size: 10px; fill: #000; opacity: 1;">24,000,000</text><text text-anchor="end" transform="translate(-7,208.8)" style="font-family: sans-serif; font-size: 10px; fill: #000; opacity: 1;">26,000,000</text><text text-anchor="end" transform="translate(-7,179.40000000000003)" style="font-family: sans-serif; font-size: 10px; fill: #000; opacity: 1;">28,000,000</text><text text-anchor="end" transform="translate(-7,150)" style="font-family: sans-serif; font-size: 10px; fill: #000; opacity: 1;">30,000,000</text><text text-anchor="end" transform="translate(-7,120.59999999999997)" style="font-family: sans-serif; font-size: 10px; fill: #000; opacity: 1;">32,000,000</text><text text-anchor="end" transform="translate(-7,91.19999999999999)" style="font-family: sans-serif; font-size: 10px; fill: #000; opacity: 1;">34,000,000</text><text text-anchor="end" transform="translate(-7,61.799999999999955)" style="font-family: sans-serif; font-size: 10px; fill: #000; opacity: 1;">36,000,000</text><text text-anchor="end" transform="translate(-7,32.39999999999998)" style="font-family: sans-serif; font-size: 10px; fill: #000; opacity: 1;">38,000,000</text><text text-anchor="end" transform="translate(-7,3)" style="font-family: sans-serif; font-size: 10px; fill: #000; opacity: 1;">40,000,000</text></g><g class="mark-rule role-axis-domain" style="pointer-events: none;"><line transform="translate(0,588)" x2="0" y2="-588" style="fill: none; stroke: #888; stroke-width: 1; opacity: 1;"></line></g><g class="mark-text role-axis-title" style="pointer-events: none;"><text text-anchor="middle" transform="translate(-62.048828125,294) rotate(-90) translate(0,-2)" style="font-family: sans-serif; font-size: 11px; font-weight: bold; fill: #000; opacity: 1;">ns/operation (mean)</text></g></g></g></g></g></g></g></g></svg>